%TF.GenerationSoftware,KiCad,Pcbnew,9.0.7*%
%TF.CreationDate,2026-04-13T23:47:59-02:30*%
%TF.ProjectId,chris-mang-custom,63687269-732d-46d6-916e-672d63757374,rev?*%
%TF.SameCoordinates,Original*%
%TF.FileFunction,Copper,L3,Inr*%
%TF.FilePolarity,Positive*%
%FSLAX46Y46*%
G04 Gerber Fmt 4.6, Leading zero omitted, Abs format (unit mm)*
G04 Created by KiCad (PCBNEW 9.0.7) date 2026-04-13 23:47:59*
%MOMM*%
%LPD*%
G01*
G04 APERTURE LIST*
%TA.AperFunction,ComponentPad*%
%ADD10O,4.000000X1.500000*%
%TD*%
%TA.AperFunction,ComponentPad*%
%ADD11O,1.500000X4.000000*%
%TD*%
%TA.AperFunction,ComponentPad*%
%ADD12C,2.540000*%
%TD*%
%TA.AperFunction,ComponentPad*%
%ADD13O,3.000000X1.400000*%
%TD*%
%TA.AperFunction,ComponentPad*%
%ADD14O,1.400000X3.000000*%
%TD*%
%TA.AperFunction,ComponentPad*%
%ADD15C,1.400000*%
%TD*%
%TA.AperFunction,ComponentPad*%
%ADD16O,1.400000X1.400000*%
%TD*%
%TA.AperFunction,ComponentPad*%
%ADD17C,1.600000*%
%TD*%
%TA.AperFunction,ComponentPad*%
%ADD18R,1.600000X1.600000*%
%TD*%
%TA.AperFunction,ComponentPad*%
%ADD19O,1.600000X1.600000*%
%TD*%
%TA.AperFunction,ComponentPad*%
%ADD20R,1.700000X1.700000*%
%TD*%
%TA.AperFunction,ComponentPad*%
%ADD21O,1.700000X1.700000*%
%TD*%
%TA.AperFunction,ComponentPad*%
%ADD22R,1.200000X1.200000*%
%TD*%
%TA.AperFunction,ComponentPad*%
%ADD23C,1.200000*%
%TD*%
%TA.AperFunction,ComponentPad*%
%ADD24R,2.000000X2.000000*%
%TD*%
%TA.AperFunction,ComponentPad*%
%ADD25C,2.000000*%
%TD*%
%TA.AperFunction,ComponentPad*%
%ADD26R,1.800000X1.800000*%
%TD*%
%TA.AperFunction,ComponentPad*%
%ADD27C,1.800000*%
%TD*%
%TA.AperFunction,ComponentPad*%
%ADD28O,3.600000X4.200000*%
%TD*%
%TA.AperFunction,ComponentPad*%
%ADD29C,1.500000*%
%TD*%
%TA.AperFunction,ComponentPad*%
%ADD30O,3.800000X2.400000*%
%TD*%
%TA.AperFunction,ViaPad*%
%ADD31C,0.800000*%
%TD*%
%TA.AperFunction,Conductor*%
%ADD32C,0.500000*%
%TD*%
G04 APERTURE END LIST*
D10*
%TO.N,Earth*%
%TO.C,J1*%
X0Y29800000D03*
%TO.N,Net-(Q1-D)*%
X0Y35800000D03*
D11*
%TO.N,unconnected-(J1-Pad3)*%
X-4700000Y32800000D03*
%TD*%
D12*
%TO.N,/input_jack*%
%TO.C,J2*%
X-46250000Y23650000D03*
%TO.N,Earth*%
X-46250000Y30000000D03*
X-46250000Y36350000D03*
X-29750000Y23650000D03*
X-29750000Y30000000D03*
X-29750000Y36350000D03*
%TD*%
%TO.N,/output_jack*%
%TO.C,J3*%
X29750000Y23650000D03*
%TO.N,Earth*%
X29750000Y30000000D03*
X29750000Y36350000D03*
X46250000Y23650000D03*
X46250000Y30000000D03*
X46250000Y36350000D03*
%TD*%
D13*
%TO.N,Earth*%
%TO.C,G1*%
X49700000Y34500000D03*
D14*
X53000000Y30000000D03*
D13*
X49700000Y25500000D03*
%TD*%
D15*
%TO.N,Net-(D4-A)*%
%TO.C,R11*%
X-41000000Y-4600000D03*
D16*
%TO.N,Net-(R11-Pad2)*%
X-36000000Y-4600000D03*
%TD*%
D17*
%TO.N,Net-(C25-Pad1)*%
%TO.C,C25*%
X37500000Y9600000D03*
%TO.N,Net-(C25-Pad2)*%
X42500000Y9600000D03*
%TD*%
D18*
%TO.N,Net-(D6-A)*%
%TO.C,D8*%
X100000Y5020000D03*
D19*
%TO.N,/bluesbreaker/sw4*%
X-4900000Y5020000D03*
%TD*%
D18*
%TO.N,Net-(D5-K)*%
%TO.C,D5*%
X100000Y10800000D03*
D19*
%TO.N,Net-(D5-A)*%
X-4900000Y10800000D03*
%TD*%
D17*
%TO.N,/bluesbreaker-send*%
%TO.C,C28*%
X37600000Y-11100000D03*
%TO.N,Net-(Q6-B)*%
X42600000Y-11100000D03*
%TD*%
%TO.N,/zendrive_send*%
%TO.C,C3*%
X-50975000Y-2800000D03*
%TO.N,Net-(U2A-+)*%
X-45975000Y-2800000D03*
%TD*%
%TO.N,/bluesbreaker/4.5V*%
%TO.C,C20*%
X16100000Y-8100000D03*
%TO.N,Net-(C20-Pad2)*%
X21100000Y-8100000D03*
%TD*%
D20*
%TO.N,Earth*%
%TO.C,J5*%
X23650000Y-17500000D03*
D21*
%TO.N,unconnected-(J5-Pin_2-Pad2)*%
X26190000Y-17500000D03*
%TO.N,/bluesbreaker-send*%
X28730000Y-17500000D03*
%TO.N,/bluesbreaker-return*%
X31270000Y-17500000D03*
%TO.N,/output_jack*%
X33810000Y-17500000D03*
%TO.N,/V+1*%
X36350000Y-17500000D03*
%TD*%
D18*
%TO.N,Net-(D5-A)*%
%TO.C,D6*%
X100000Y2040000D03*
D19*
%TO.N,Net-(D6-A)*%
X-4900000Y2040000D03*
%TD*%
D15*
%TO.N,Net-(U3A--)*%
%TO.C,R27*%
X11000000Y6942857D03*
D16*
%TO.N,Net-(D5-A)*%
X6000000Y6942857D03*
%TD*%
D22*
%TO.N,Net-(C22-Pad1)*%
%TO.C,C23*%
X19530000Y1400000D03*
D23*
%TO.N,Net-(Q5-B)*%
X21030000Y1400000D03*
%TD*%
D18*
%TO.N,Net-(D1-K)*%
%TO.C,C1*%
X-14300000Y37550000D03*
D17*
%TO.N,Earth*%
X-14300000Y40050000D03*
%TD*%
D15*
%TO.N,Earth*%
%TO.C,R33*%
X23900000Y10600000D03*
D16*
%TO.N,Net-(Q5-E)*%
X28900000Y10600000D03*
%TD*%
D17*
%TO.N,Net-(C10-Pad1)*%
%TO.C,C10*%
X-19000000Y-2199000D03*
%TO.N,Net-(C10-Pad2)*%
X-24000000Y-2199000D03*
%TD*%
D15*
%TO.N,Net-(C8-Pad2)*%
%TO.C,R12*%
X-41100000Y-1500000D03*
D16*
%TO.N,Net-(U2B--)*%
X-36100000Y-1500000D03*
%TD*%
D15*
%TO.N,/V+0*%
%TO.C,R2*%
X-11100000Y25100000D03*
D16*
%TO.N,+9V*%
X-11100000Y30100000D03*
%TD*%
D15*
%TO.N,Net-(U2B--)*%
%TO.C,R13*%
X-24000000Y3942000D03*
D16*
%TO.N,Net-(C10-Pad1)*%
X-19000000Y3942000D03*
%TD*%
D15*
%TO.N,/bluesbreaker/4.5V*%
%TO.C,R23*%
X7900000Y16800000D03*
D16*
%TO.N,Net-(U3B-+)*%
X12900000Y16800000D03*
%TD*%
D18*
%TO.N,Net-(D2-K)*%
%TO.C,D2*%
X-46100000Y7700000D03*
D19*
%TO.N,Net-(D2-A)*%
X-51100000Y7700000D03*
%TD*%
D15*
%TO.N,Net-(C16-Pad2)*%
%TO.C,R22*%
X12900000Y30133333D03*
D16*
%TO.N,/bluesbreaker/sw7*%
X7900000Y30133333D03*
%TD*%
D17*
%TO.N,Net-(U2B-+)*%
%TO.C,C7*%
X-24000000Y-11200000D03*
%TO.N,Earth*%
X-19000000Y-11200000D03*
%TD*%
D22*
%TO.N,Net-(Q5-E)*%
%TO.C,C24*%
X32730000Y11700000D03*
D23*
%TO.N,Net-(C24-Pad2)*%
X34230000Y11700000D03*
%TD*%
D15*
%TO.N,Net-(C25-Pad2)*%
%TO.C,R35*%
X47500000Y7700000D03*
D16*
%TO.N,Net-(U4B--)*%
X52500000Y7700000D03*
%TD*%
D15*
%TO.N,Net-(U3A--)*%
%TO.C,R28*%
X11000000Y3985714D03*
D16*
%TO.N,/bluesbreaker/sw5*%
X6000000Y3985714D03*
%TD*%
D15*
%TO.N,/bluesbreaker/4.5V*%
%TO.C,R32*%
X24000000Y12800000D03*
D16*
%TO.N,Net-(Q5-B)*%
X29000000Y12800000D03*
%TD*%
D15*
%TO.N,Net-(C15-Pad2)*%
%TO.C,R21*%
X12900000Y32800000D03*
D16*
%TO.N,/bluesbreaker/sw7*%
X7900000Y32800000D03*
%TD*%
D24*
%TO.N,Net-(C20-Pad2)*%
%TO.C,RV6*%
X20000000Y-14500000D03*
D25*
%TO.N,Net-(R30-Pad1)*%
X15000000Y-14500000D03*
%TO.N,Net-(D10-A)*%
X10000000Y-14500000D03*
%TD*%
D17*
%TO.N,Net-(C17-Pad1)*%
%TO.C,C17*%
X18600000Y21045000D03*
%TO.N,Net-(U3B-+)*%
X23600000Y21045000D03*
%TD*%
%TO.N,Net-(C19-Pad1)*%
%TO.C,C19*%
X18600000Y17300000D03*
%TO.N,Net-(C19-Pad2)*%
X23600000Y17300000D03*
%TD*%
D18*
%TO.N,/bluesbreaker/sw4*%
%TO.C,D7*%
X100000Y8000000D03*
D19*
%TO.N,Net-(D5-K)*%
X-4900000Y8000000D03*
%TD*%
D15*
%TO.N,/bluesbreaker/4.5V*%
%TO.C,R37*%
X11000000Y-1928571D03*
D16*
%TO.N,Net-(C22-Pad1)*%
X6000000Y-1928571D03*
%TD*%
D17*
%TO.N,Earth*%
%TO.C,C15*%
X23600000Y32400000D03*
%TO.N,Net-(C15-Pad2)*%
X18600000Y32400000D03*
%TD*%
D26*
%TO.N,Net-(C21-Pad2)*%
%TO.C,RV7*%
X32500000Y-5000000D03*
D27*
%TO.N,Net-(C22-Pad1)*%
X30000000Y-5000000D03*
X27500000Y-5000000D03*
D28*
%TO.N,N/C*%
X25600000Y2000000D03*
X34400000Y2000000D03*
%TD*%
D24*
%TO.N,Net-(R24-Pad2)*%
%TO.C,RV5*%
X20000000Y13500000D03*
D25*
%TO.N,Net-(C18-Pad2)*%
X15000000Y13500000D03*
%TO.N,Net-(C19-Pad1)*%
X10000000Y13500000D03*
%TD*%
D15*
%TO.N,Net-(D3-A)*%
%TO.C,R9*%
X-27500000Y11100000D03*
D16*
%TO.N,Net-(R9-Pad2)*%
X-32500000Y11100000D03*
%TD*%
D15*
%TO.N,Net-(U4B--)*%
%TO.C,R36*%
X52500000Y5400000D03*
D16*
%TO.N,Net-(C26-Pad2)*%
X47500000Y5400000D03*
%TD*%
D17*
%TO.N,Earth*%
%TO.C,C8*%
X-19000000Y-7077000D03*
%TO.N,Net-(C8-Pad2)*%
X-24000000Y-7077000D03*
%TD*%
D18*
%TO.N,Net-(D2-A)*%
%TO.C,D4*%
X-46100000Y10600000D03*
D19*
%TO.N,Net-(D4-A)*%
X-51100000Y10600000D03*
%TD*%
D29*
%TO.N,Net-(U4B--)*%
%TO.C,C26*%
X41250000Y6300000D03*
%TO.N,Net-(C26-Pad2)*%
X38750000Y6300000D03*
%TD*%
D15*
%TO.N,Net-(R30-Pad1)*%
%TO.C,R30*%
X6000000Y-4885714D03*
D16*
%TO.N,Net-(C22-Pad1)*%
X11000000Y-4885714D03*
%TD*%
D29*
%TO.N,Net-(D3-A)*%
%TO.C,C6*%
X-37250000Y10300000D03*
%TO.N,Net-(D4-A)*%
X-39750000Y10300000D03*
%TD*%
D20*
%TO.N,Earth*%
%TO.C,J4*%
X-36350000Y-17500000D03*
D21*
%TO.N,/input_jack*%
X-33810000Y-17500000D03*
%TO.N,/zendrive_send*%
X-31270000Y-17500000D03*
%TO.N,/zendrive_return*%
X-28730000Y-17500000D03*
%TO.N,unconnected-(J4-Pin_5-Pad5)*%
X-26190000Y-17500000D03*
%TO.N,/V+0*%
X-23650000Y-17500000D03*
%TD*%
D18*
%TO.N,Net-(D3-K)*%
%TO.C,D3*%
X-46100000Y4800000D03*
D19*
%TO.N,Net-(D3-A)*%
X-51100000Y4800000D03*
%TD*%
D15*
%TO.N,Net-(C4-Pad2)*%
%TO.C,R7*%
X-36000000Y-11500000D03*
D16*
%TO.N,Net-(R7-Pad2)*%
X-41000000Y-11500000D03*
%TD*%
D18*
%TO.N,/bluesbreaker/9V*%
%TO.C,C30*%
X10800000Y37450000D03*
D17*
%TO.N,Earth*%
X10800000Y39950000D03*
%TD*%
D15*
%TO.N,Net-(C19-Pad2)*%
%TO.C,R26*%
X6000000Y9900000D03*
D16*
%TO.N,Net-(U3A--)*%
X11000000Y9900000D03*
%TD*%
D29*
%TO.N,Net-(U4A--)*%
%TO.C,C34*%
X51250000Y1300000D03*
%TO.N,Net-(C25-Pad1)*%
X48750000Y1300000D03*
%TD*%
D15*
%TO.N,/bluesbreaker-send*%
%TO.C,R20*%
X7900000Y19466667D03*
D16*
%TO.N,Net-(C17-Pad1)*%
X12900000Y19466667D03*
%TD*%
D15*
%TO.N,Earth*%
%TO.C,R40*%
X52500000Y-5000000D03*
D16*
%TO.N,Net-(Q6-E)*%
X47500000Y-5000000D03*
%TD*%
D15*
%TO.N,Net-(C29-Pad2)*%
%TO.C,R41*%
X47500000Y-2000000D03*
D16*
%TO.N,Net-(U4A--)*%
X52500000Y-2000000D03*
%TD*%
D15*
%TO.N,/Zendrive/4.5V*%
%TO.C,R5*%
X-27500000Y-8200000D03*
D16*
%TO.N,Net-(U2A-+)*%
X-32500000Y-8200000D03*
%TD*%
D18*
%TO.N,Net-(D10-A)*%
%TO.C,D9*%
X100000Y-940000D03*
D19*
%TO.N,/bluesbreaker/sw3*%
X-4900000Y-940000D03*
%TD*%
D24*
%TO.N,Earth*%
%TO.C,RV4*%
X-10000000Y13500000D03*
D25*
%TO.N,/zendrive_return*%
X-15000000Y13500000D03*
%TO.N,Net-(R14-Pad2)*%
X-20000000Y13500000D03*
%TD*%
D15*
%TO.N,/bluesbreaker/4.5V*%
%TO.C,R39*%
X27500000Y-11200000D03*
D16*
%TO.N,Net-(Q6-B)*%
X32500000Y-11200000D03*
%TD*%
D18*
%TO.N,/Zendrive/4.5V*%
%TO.C,C13*%
X-51500000Y17950000D03*
D17*
%TO.N,Earth*%
X-51500000Y20450000D03*
%TD*%
D24*
%TO.N,Net-(C4-Pad2)*%
%TO.C,RV1*%
X-40000000Y-14500000D03*
D25*
X-45000000Y-14500000D03*
%TO.N,Net-(R7-Pad2)*%
X-50000000Y-14500000D03*
%TD*%
D17*
%TO.N,Net-(C22-Pad1)*%
%TO.C,C22*%
X16100000Y-3800000D03*
%TO.N,Net-(Q5-B)*%
X21100000Y-3800000D03*
%TD*%
D22*
%TO.N,Net-(C26-Pad2)*%
%TO.C,C27*%
X50050000Y18400000D03*
D23*
%TO.N,Net-(C27-Pad2)*%
X51550000Y18400000D03*
%TD*%
D18*
%TO.N,unconnected-(SW2A-C-Pad1)*%
%TO.C,SW2*%
X-3810000Y17690000D03*
D19*
%TO.N,/bluesbreaker/sw2*%
X-1270000Y17690000D03*
%TO.N,/bluesbreaker/sw3*%
X1270000Y17690000D03*
%TO.N,/bluesbreaker/sw4*%
X3810000Y17690000D03*
%TO.N,/bluesbreaker/sw5*%
X3810000Y25310000D03*
%TO.N,/bluesbreaker/4.5V*%
X1270000Y25310000D03*
%TO.N,/bluesbreaker/sw7*%
X-1270000Y25310000D03*
%TO.N,unconnected-(SW2A-A-Pad8)*%
X-3810000Y25310000D03*
%TD*%
D18*
%TO.N,/bluesbreaker/sw3*%
%TO.C,D11*%
X100000Y-6900000D03*
D19*
%TO.N,Net-(D10-K)*%
X-4900000Y-6900000D03*
%TD*%
D18*
%TO.N,Net-(D10-K)*%
%TO.C,D10*%
X100000Y-3920000D03*
D19*
%TO.N,Net-(D10-A)*%
X-4900000Y-3920000D03*
%TD*%
D18*
%TO.N,/bluesbreaker/4.5V*%
%TO.C,C31*%
X21700000Y37450000D03*
D17*
%TO.N,Earth*%
X21700000Y39950000D03*
%TD*%
D15*
%TO.N,Net-(C10-Pad2)*%
%TO.C,R14*%
X-24000000Y1474000D03*
D16*
%TO.N,Net-(R14-Pad2)*%
X-19000000Y1474000D03*
%TD*%
D17*
%TO.N,Net-(C15-Pad2)*%
%TO.C,C16*%
X23600000Y28595000D03*
%TO.N,Net-(C16-Pad2)*%
X18600000Y28595000D03*
%TD*%
D22*
%TO.N,Net-(Q6-E)*%
%TO.C,C29*%
X39350000Y-6600000D03*
D23*
%TO.N,Net-(C29-Pad2)*%
X40850000Y-6600000D03*
%TD*%
D24*
%TO.N,Earth*%
%TO.C,RV8*%
X50000000Y13500000D03*
D25*
%TO.N,/bluesbreaker-return*%
X45000000Y13500000D03*
%TO.N,Net-(C27-Pad2)*%
X40000000Y13500000D03*
%TD*%
D15*
%TO.N,/bluesbreaker/sw2*%
%TO.C,R24*%
X7900000Y24800000D03*
D16*
%TO.N,Net-(R24-Pad2)*%
X12900000Y24800000D03*
%TD*%
D17*
%TO.N,Earth*%
%TO.C,C5*%
X-50975000Y-11200000D03*
%TO.N,Net-(C4-Pad1)*%
X-45975000Y-11200000D03*
%TD*%
D15*
%TO.N,/Zendrive/Q1G*%
%TO.C,R15*%
X-9200000Y-4000000D03*
D16*
%TO.N,/Zendrive/9V*%
X-14200000Y-4000000D03*
%TD*%
D18*
%TO.N,+9V*%
%TO.C,C2*%
X-21200000Y37550000D03*
D17*
%TO.N,Earth*%
X-21200000Y40050000D03*
%TD*%
D15*
%TO.N,/Zendrive/Q1D*%
%TO.C,R16*%
X-9200000Y-6400000D03*
D16*
%TO.N,/Zendrive/9V*%
X-14200000Y-6400000D03*
%TD*%
D15*
%TO.N,Net-(C21-Pad2)*%
%TO.C,R31*%
X32500000Y-8200000D03*
D16*
%TO.N,Net-(C22-Pad1)*%
X27500000Y-8200000D03*
%TD*%
D15*
%TO.N,/V+1*%
%TO.C,R3*%
X-9000000Y25100000D03*
D16*
%TO.N,+9V*%
X-9000000Y30100000D03*
%TD*%
D15*
%TO.N,Earth*%
%TO.C,R19*%
X12900000Y22133333D03*
D16*
%TO.N,/bluesbreaker-send*%
X7900000Y22133333D03*
%TD*%
D17*
%TO.N,Net-(C4-Pad1)*%
%TO.C,C4*%
X-50975000Y-7000000D03*
%TO.N,Net-(C4-Pad2)*%
X-45975000Y-7000000D03*
%TD*%
%TO.N,/bluesbreaker/4.5V*%
%TO.C,C21*%
X16100000Y-11100000D03*
%TO.N,Net-(C21-Pad2)*%
X21100000Y-11100000D03*
%TD*%
D24*
%TO.N,Net-(D3-A)*%
%TO.C,RV2*%
X-40000000Y13500000D03*
D25*
%TO.N,Net-(R10-Pad1)*%
X-45000000Y13500000D03*
%TO.N,Net-(D4-A)*%
X-50000000Y13500000D03*
%TD*%
D24*
%TO.N,Net-(U4A--)*%
%TO.C,RV9*%
X50000000Y-14500000D03*
D25*
%TO.N,Net-(C25-Pad1)*%
X45000000Y-14500000D03*
X40000000Y-14500000D03*
%TD*%
D24*
%TO.N,Net-(R11-Pad2)*%
%TO.C,RV3*%
X-10000000Y-14500000D03*
D25*
X-15000000Y-14500000D03*
%TO.N,Net-(U2B-+)*%
X-20000000Y-14500000D03*
%TD*%
D15*
%TO.N,/bluesbreaker/sw5*%
%TO.C,R29*%
X11000000Y1028571D03*
D16*
%TO.N,Net-(D10-A)*%
X6000000Y1028571D03*
%TD*%
D15*
%TO.N,Net-(R10-Pad1)*%
%TO.C,R10*%
X-32500000Y14600000D03*
D16*
%TO.N,Net-(D4-A)*%
X-27500000Y14600000D03*
%TD*%
D15*
%TO.N,/bluesbreaker/sw7*%
%TO.C,R25*%
X7900000Y27466667D03*
D16*
%TO.N,Net-(R24-Pad2)*%
X12900000Y27466667D03*
%TD*%
D29*
%TO.N,/bluesbreaker/sw7*%
%TO.C,C18*%
X19850000Y24790000D03*
%TO.N,Net-(C18-Pad2)*%
X22350000Y24790000D03*
%TD*%
D15*
%TO.N,Net-(R7-Pad2)*%
%TO.C,R8*%
X-41000000Y-8166667D03*
D16*
%TO.N,Net-(D3-A)*%
X-36000000Y-8166667D03*
%TD*%
D15*
%TO.N,Earth*%
%TO.C,R4*%
X-27500000Y-11500000D03*
D16*
%TO.N,/zendrive_send*%
X-32500000Y-11500000D03*
%TD*%
D29*
%TO.N,Net-(U2B--)*%
%TO.C,C9*%
X-22850000Y6800000D03*
%TO.N,Net-(C10-Pad1)*%
X-20350000Y6800000D03*
%TD*%
D15*
%TO.N,Net-(C24-Pad2)*%
%TO.C,R34*%
X47500000Y10000000D03*
D16*
%TO.N,Net-(U4B--)*%
X52500000Y10000000D03*
%TD*%
D18*
%TO.N,/Zendrive/9V*%
%TO.C,C12*%
X-51500000Y29450000D03*
D17*
%TO.N,Earth*%
X-51500000Y31950000D03*
%TD*%
D30*
%TO.N,Earth*%
%TO.C,SW1*%
X-30000000Y-2700000D03*
%TO.N,/Zendrive/Q1G*%
X-30000000Y2000000D03*
%TO.N,unconnected-(SW1-C-Pad3)*%
X-30000000Y6700000D03*
%TD*%
D31*
%TO.N,Earth*%
X-16800000Y24200000D03*
X-17300000Y20300000D03*
X17200000Y40600000D03*
X-19900000Y18200000D03*
X38300000Y-100000D03*
X-18600000Y18200000D03*
X-46100000Y-17100000D03*
X20500000Y6600000D03*
X-53500000Y23500000D03*
X43900000Y-3400000D03*
X-39800000Y2100000D03*
X-38900000Y7700000D03*
X-6500000Y40400000D03*
X-14500000Y-10800000D03*
X14600000Y7100000D03*
%TO.N,Net-(C4-Pad1)*%
X-53200000Y14100000D03*
%TO.N,Net-(D4-A)*%
X-48400000Y2400000D03*
X-48363603Y9163603D03*
%TO.N,/Zendrive/9V*%
X-20900000Y24200000D03*
X-34700000Y7700000D03*
%TO.N,/bluesbreaker/4.5V*%
X19200000Y3700000D03*
X42600000Y-3400000D03*
X43900000Y1500000D03*
%TO.N,Net-(D3-K)*%
X-45700000Y500000D03*
%TO.N,/Zendrive/Q1D*%
X-23600000Y20200000D03*
X-14700000Y20400000D03*
%TO.N,/Zendrive/Q1G*%
X-23700000Y18300000D03*
%TO.N,/bluesbreaker/9V*%
X30600000Y6900000D03*
X46200000Y-9300000D03*
X14600000Y11200000D03*
X38300000Y4000000D03*
%TD*%
D32*
%TO.N,/Zendrive/9V*%
X-50500000Y29450000D02*
X-47650000Y26600000D01*
X-35900000Y18300000D02*
X-34700000Y17100000D01*
X-23200000Y24200000D02*
X-29100000Y18300000D01*
X-44000000Y20100000D02*
X-42200000Y18300000D01*
X-33500000Y18300000D02*
X-34700000Y17100000D01*
X-34700000Y8300000D02*
X-33500000Y9500000D01*
X-44000000Y25900000D02*
X-44000000Y20100000D01*
X-34700000Y10700000D02*
X-33500000Y9500000D01*
X-33500000Y9500000D02*
X-15500000Y9500000D01*
X-29100000Y18300000D02*
X-33500000Y18300000D01*
X-20900000Y24200000D02*
X-23200000Y24200000D01*
X-51500000Y29450000D02*
X-50500000Y29450000D01*
X-42200000Y18300000D02*
X-35900000Y18300000D01*
X-14200000Y8200000D02*
X-14200000Y-4000000D01*
X-34700000Y17100000D02*
X-34700000Y10700000D01*
X-44700000Y26600000D02*
X-44000000Y25900000D01*
X-15500000Y9500000D02*
X-14200000Y8200000D01*
X-47650000Y26600000D02*
X-44700000Y26600000D01*
X-34700000Y7700000D02*
X-34700000Y8300000D01*
%TO.N,/Zendrive/4.5V*%
X-48000000Y15600000D02*
X-43800000Y15600000D01*
X-33600000Y-500000D02*
X-33600000Y-5000000D01*
X-51500000Y17950000D02*
X-50350000Y17950000D01*
X-32200000Y-6400000D02*
X-29300000Y-6400000D01*
X-33600000Y-5000000D02*
X-32200000Y-6400000D01*
X-34800000Y700000D02*
X-33600000Y-500000D01*
X-50350000Y17950000D02*
X-48000000Y15600000D01*
X-42600000Y14400000D02*
X-42600000Y1600000D01*
X-29300000Y-6400000D02*
X-27500000Y-8200000D01*
X-43800000Y15600000D02*
X-42600000Y14400000D01*
X-42600000Y1600000D02*
X-41700000Y700000D01*
X-41700000Y700000D02*
X-34800000Y700000D01*
%TO.N,/bluesbreaker/4.5V*%
X16000000Y18000000D02*
X17000000Y18000000D01*
X13500000Y-12000000D02*
X13500000Y-8705000D01*
X15500000Y22500000D02*
X15500000Y18500000D01*
X13600000Y3700000D02*
X19200000Y3700000D01*
X12900000Y-1300000D02*
X12900000Y3000000D01*
X12900000Y3000000D02*
X13600000Y3700000D01*
X16700000Y-12800000D02*
X16200000Y-12300000D01*
X43900000Y1500000D02*
X45100000Y300000D01*
X15500000Y33500000D02*
X15500000Y24300000D01*
X15500000Y-12800000D02*
X14300000Y-12800000D01*
X13500000Y-7495000D02*
X14002500Y-7997500D01*
X45100000Y-4200000D02*
X44600000Y-4700000D01*
X44600000Y-4700000D02*
X44600000Y-11300000D01*
X14600000Y23400000D02*
X3180000Y23400000D01*
X9100000Y18000000D02*
X7900000Y16800000D01*
X27500000Y-12200000D02*
X27500000Y-11200000D01*
X14002500Y-8202500D02*
X14105000Y-8100000D01*
X25800000Y14600000D02*
X24000000Y12800000D01*
X28100000Y-12800000D02*
X27500000Y-12200000D01*
X25800000Y17800000D02*
X25800000Y14600000D01*
X16100000Y-12200000D02*
X15500000Y-12800000D01*
X27500000Y-12200000D02*
X26900000Y-12800000D01*
X43300000Y-4700000D02*
X42600000Y-4000000D01*
X45100000Y300000D02*
X45100000Y-4200000D01*
X13500000Y-8705000D02*
X14002500Y-8202500D01*
X3180000Y23400000D02*
X1270000Y25310000D01*
X17700000Y18700000D02*
X24900000Y18700000D01*
X15500000Y18500000D02*
X15000000Y18000000D01*
X44600000Y-11300000D02*
X43100000Y-12800000D01*
X16200000Y-12300000D02*
X16100000Y-12200000D01*
X44600000Y-4700000D02*
X43300000Y-4700000D01*
X15500000Y16800000D02*
X12900000Y14200000D01*
X16800000Y34800000D02*
X15500000Y33500000D01*
X13500000Y-5300000D02*
X13500000Y-7495000D01*
X14600000Y23400000D02*
X15500000Y22500000D01*
X15500000Y24300000D02*
X14600000Y23400000D01*
X24900000Y18700000D02*
X25800000Y17800000D01*
X15500000Y18500000D02*
X15500000Y16800000D01*
X14300000Y-12800000D02*
X13500000Y-12000000D01*
X12271429Y-1928571D02*
X11000000Y-1928571D01*
X21100000Y34800000D02*
X16800000Y34800000D01*
X12900000Y-4700000D02*
X13500000Y-5300000D01*
X12271429Y-1928571D02*
X12900000Y-2557142D01*
X26900000Y-12800000D02*
X16700000Y-12800000D01*
X21700000Y35400000D02*
X21100000Y34800000D01*
X16100000Y-12200000D02*
X16100000Y-11100000D01*
X12900000Y-2557142D02*
X12900000Y-4700000D01*
X14002500Y-7997500D02*
X14002500Y-8202500D01*
X15500000Y18500000D02*
X16000000Y18000000D01*
X21700000Y37450000D02*
X21700000Y35400000D01*
X43100000Y-12800000D02*
X28100000Y-12800000D01*
X12900000Y-1300000D02*
X12271429Y-1928571D01*
X15000000Y18000000D02*
X9100000Y18000000D01*
X14105000Y-8100000D02*
X16100000Y-8100000D01*
X12900000Y4400000D02*
X13600000Y3700000D01*
X42600000Y-4000000D02*
X42600000Y-3400000D01*
X12900000Y14200000D02*
X12900000Y4400000D01*
X17000000Y18000000D02*
X17700000Y18700000D01*
%TO.N,/bluesbreaker/9V*%
X38300000Y4500000D02*
X38300000Y4000000D01*
X10800000Y37450000D02*
X11450000Y37450000D01*
X25500000Y39800000D02*
X30300000Y39800000D01*
X23600000Y41700000D02*
X25500000Y39800000D01*
X36100000Y5500000D02*
X36800000Y4800000D01*
X36100000Y7500000D02*
X36100000Y5500000D01*
X21900000Y8100000D02*
X31000000Y8100000D01*
X14600000Y11200000D02*
X18800000Y11200000D01*
X35500000Y8100000D02*
X36100000Y7500000D01*
X31629000Y10599000D02*
X32100000Y10599000D01*
X36800000Y4800000D02*
X38000000Y4800000D01*
X15700000Y41700000D02*
X23600000Y41700000D01*
X46200000Y4200000D02*
X45600000Y4800000D01*
X31000000Y8100000D02*
X35500000Y8100000D01*
X30600000Y7700000D02*
X31000000Y8100000D01*
X38600000Y4800000D02*
X38300000Y4500000D01*
X18800000Y11200000D02*
X21900000Y8100000D01*
X11450000Y37450000D02*
X15700000Y41700000D01*
X30600000Y6900000D02*
X30600000Y7700000D01*
X46200000Y-9300000D02*
X46200000Y4200000D01*
X38000000Y4800000D02*
X38300000Y4500000D01*
X32100000Y38000000D02*
X32100000Y12801000D01*
X32100000Y10599000D02*
X32100000Y9200000D01*
X32100000Y9200000D02*
X31000000Y8100000D01*
X45600000Y4800000D02*
X38600000Y4800000D01*
X32100000Y12801000D02*
X31629000Y12801000D01*
X30300000Y39800000D02*
X32100000Y38000000D01*
X31629000Y12801000D02*
X31629000Y10599000D01*
%TD*%
M02*
