%TF.GenerationSoftware,KiCad,Pcbnew,9.0.7*%
%TF.CreationDate,2026-04-13T23:47:59-02:30*%
%TF.ProjectId,chris-mang-custom,63687269-732d-46d6-916e-672d63757374,rev?*%
%TF.SameCoordinates,Original*%
%TF.FileFunction,Soldermask,Top*%
%TF.FilePolarity,Negative*%
%FSLAX46Y46*%
G04 Gerber Fmt 4.6, Leading zero omitted, Abs format (unit mm)*
G04 Created by KiCad (PCBNEW 9.0.7) date 2026-04-13 23:47:59*
%MOMM*%
%LPD*%
G01*
G04 APERTURE LIST*
G04 Aperture macros list*
%AMRoundRect*
0 Rectangle with rounded corners*
0 $1 Rounding radius*
0 $2 $3 $4 $5 $6 $7 $8 $9 X,Y pos of 4 corners*
0 Add a 4 corners polygon primitive as box body*
4,1,4,$2,$3,$4,$5,$6,$7,$8,$9,$2,$3,0*
0 Add four circle primitives for the rounded corners*
1,1,$1+$1,$2,$3*
1,1,$1+$1,$4,$5*
1,1,$1+$1,$6,$7*
1,1,$1+$1,$8,$9*
0 Add four rect primitives between the rounded corners*
20,1,$1+$1,$2,$3,$4,$5,0*
20,1,$1+$1,$4,$5,$6,$7,0*
20,1,$1+$1,$6,$7,$8,$9,0*
20,1,$1+$1,$8,$9,$2,$3,0*%
G04 Aperture macros list end*
%ADD10O,4.000000X1.500000*%
%ADD11O,1.500000X4.000000*%
%ADD12C,2.540000*%
%ADD13O,3.000000X1.400000*%
%ADD14O,1.400000X3.000000*%
%ADD15C,1.400000*%
%ADD16O,1.400000X1.400000*%
%ADD17RoundRect,0.250000X0.450000X-0.350000X0.450000X0.350000X-0.450000X0.350000X-0.450000X-0.350000X0*%
%ADD18RoundRect,0.250000X0.325000X0.450000X-0.325000X0.450000X-0.325000X-0.450000X0.325000X-0.450000X0*%
%ADD19C,1.600000*%
%ADD20R,1.600000X1.600000*%
%ADD21O,1.600000X1.600000*%
%ADD22R,1.700000X1.700000*%
%ADD23O,1.700000X1.700000*%
%ADD24R,1.200000X1.200000*%
%ADD25C,1.200000*%
%ADD26RoundRect,0.200000X-0.750000X-0.200000X0.750000X-0.200000X0.750000X0.200000X-0.750000X0.200000X0*%
%ADD27RoundRect,0.250000X-0.475000X0.337500X-0.475000X-0.337500X0.475000X-0.337500X0.475000X0.337500X0*%
%ADD28R,2.000000X2.000000*%
%ADD29C,2.000000*%
%ADD30RoundRect,0.150000X0.150000X-0.825000X0.150000X0.825000X-0.150000X0.825000X-0.150000X-0.825000X0*%
%ADD31R,1.800000X1.800000*%
%ADD32C,1.800000*%
%ADD33O,3.600000X4.200000*%
%ADD34RoundRect,0.150000X-0.825000X-0.150000X0.825000X-0.150000X0.825000X0.150000X-0.825000X0.150000X0*%
%ADD35RoundRect,0.250000X0.350000X0.450000X-0.350000X0.450000X-0.350000X-0.450000X0.350000X-0.450000X0*%
%ADD36C,1.500000*%
%ADD37RoundRect,0.250000X0.337500X0.475000X-0.337500X0.475000X-0.337500X-0.475000X0.337500X-0.475000X0*%
%ADD38RoundRect,0.250000X-0.337500X-0.475000X0.337500X-0.475000X0.337500X0.475000X-0.337500X0.475000X0*%
%ADD39RoundRect,0.250000X-0.450000X0.325000X-0.450000X-0.325000X0.450000X-0.325000X0.450000X0.325000X0*%
%ADD40RoundRect,0.200000X0.750000X0.200000X-0.750000X0.200000X-0.750000X-0.200000X0.750000X-0.200000X0*%
%ADD41RoundRect,0.250000X-0.350000X-0.450000X0.350000X-0.450000X0.350000X0.450000X-0.350000X0.450000X0*%
%ADD42RoundRect,0.250000X-0.450000X0.350000X-0.450000X-0.350000X0.450000X-0.350000X0.450000X0.350000X0*%
%ADD43RoundRect,0.250000X-0.250000X-0.250000X0.250000X-0.250000X0.250000X0.250000X-0.250000X0.250000X0*%
%ADD44O,3.800000X2.400000*%
G04 APERTURE END LIST*
D10*
%TO.C,J1*%
X0Y29800000D03*
X0Y35800000D03*
D11*
X-4700000Y32800000D03*
%TD*%
D12*
%TO.C,J2*%
X-46250000Y23650000D03*
X-46250000Y30000000D03*
X-46250000Y36350000D03*
X-29750000Y23650000D03*
X-29750000Y30000000D03*
X-29750000Y36350000D03*
%TD*%
%TO.C,J3*%
X29750000Y23650000D03*
X29750000Y30000000D03*
X29750000Y36350000D03*
X46250000Y23650000D03*
X46250000Y30000000D03*
X46250000Y36350000D03*
%TD*%
D13*
%TO.C,G1*%
X49700000Y34500000D03*
D14*
X53000000Y30000000D03*
D13*
X49700000Y25500000D03*
%TD*%
D15*
%TO.C,R11*%
X-41000000Y-4600000D03*
D16*
X-36000000Y-4600000D03*
%TD*%
D17*
%TO.C,R42*%
X15300000Y37600000D03*
X15300000Y39600000D03*
%TD*%
D18*
%TO.C,FB1*%
X-13275000Y34200000D03*
X-15325000Y34200000D03*
%TD*%
D19*
%TO.C,C25*%
X37500000Y9600000D03*
X42500000Y9600000D03*
%TD*%
D20*
%TO.C,D8*%
X100000Y5020000D03*
D21*
X-4900000Y5020000D03*
%TD*%
D20*
%TO.C,D5*%
X100000Y10800000D03*
D21*
X-4900000Y10800000D03*
%TD*%
D19*
%TO.C,C28*%
X37600000Y-11100000D03*
X42600000Y-11100000D03*
%TD*%
%TO.C,C3*%
X-50975000Y-2800000D03*
X-45975000Y-2800000D03*
%TD*%
%TO.C,C20*%
X16100000Y-8100000D03*
X21100000Y-8100000D03*
%TD*%
D22*
%TO.C,J5*%
X23650000Y-17500000D03*
D23*
X26190000Y-17500000D03*
X28730000Y-17500000D03*
X31270000Y-17500000D03*
X33810000Y-17500000D03*
X36350000Y-17500000D03*
%TD*%
D20*
%TO.C,D6*%
X100000Y2040000D03*
D21*
X-4900000Y2040000D03*
%TD*%
D15*
%TO.C,R27*%
X11000000Y6942857D03*
D16*
X6000000Y6942857D03*
%TD*%
D24*
%TO.C,C23*%
X19530000Y1400000D03*
D25*
X21030000Y1400000D03*
%TD*%
D20*
%TO.C,C1*%
X-14300000Y37550000D03*
D19*
X-14300000Y40050000D03*
%TD*%
D15*
%TO.C,R33*%
X23900000Y10600000D03*
D16*
X28900000Y10600000D03*
%TD*%
D19*
%TO.C,C10*%
X-19000000Y-2199000D03*
X-24000000Y-2199000D03*
%TD*%
D15*
%TO.C,R12*%
X-41100000Y-1500000D03*
D16*
X-36100000Y-1500000D03*
%TD*%
D15*
%TO.C,R2*%
X-11100000Y25100000D03*
D16*
X-11100000Y30100000D03*
%TD*%
D15*
%TO.C,R13*%
X-24000000Y3942000D03*
D16*
X-19000000Y3942000D03*
%TD*%
D26*
%TO.C,Q3*%
X-47100000Y2350000D03*
X-47100000Y450000D03*
X-44100000Y1400000D03*
%TD*%
%TO.C,Q1*%
X-9400000Y38250000D03*
X-9400000Y36350000D03*
X-6400000Y37300000D03*
%TD*%
%TO.C,Q4*%
X-13200000Y-8850000D03*
X-13200000Y-10750000D03*
X-10200000Y-9800000D03*
%TD*%
D15*
%TO.C,R23*%
X7900000Y16800000D03*
D16*
X12900000Y16800000D03*
%TD*%
D20*
%TO.C,D2*%
X-46100000Y7700000D03*
D21*
X-51100000Y7700000D03*
%TD*%
D15*
%TO.C,R22*%
X12900000Y30133333D03*
D16*
X7900000Y30133333D03*
%TD*%
D19*
%TO.C,C7*%
X-24000000Y-11200000D03*
X-19000000Y-11200000D03*
%TD*%
D24*
%TO.C,C24*%
X32730000Y11700000D03*
D25*
X34230000Y11700000D03*
%TD*%
D15*
%TO.C,R35*%
X47500000Y7700000D03*
D16*
X52500000Y7700000D03*
%TD*%
D27*
%TO.C,C33*%
X38300000Y2937500D03*
X38300000Y862500D03*
%TD*%
D15*
%TO.C,R28*%
X11000000Y3985714D03*
D16*
X6000000Y3985714D03*
%TD*%
D27*
%TO.C,C32*%
X14600000Y10137500D03*
X14600000Y8062500D03*
%TD*%
D15*
%TO.C,R32*%
X24000000Y12800000D03*
D16*
X29000000Y12800000D03*
%TD*%
D15*
%TO.C,R21*%
X12900000Y32800000D03*
D16*
X7900000Y32800000D03*
%TD*%
D28*
%TO.C,RV6*%
X20000000Y-14500000D03*
D29*
X15000000Y-14500000D03*
X10000000Y-14500000D03*
%TD*%
D19*
%TO.C,C17*%
X18600000Y21045000D03*
X23600000Y21045000D03*
%TD*%
%TO.C,C19*%
X18600000Y17300000D03*
X23600000Y17300000D03*
%TD*%
D30*
%TO.C,U3*%
X16695000Y5125000D03*
X17965000Y5125000D03*
X19235000Y5125000D03*
X20505000Y5125000D03*
X20505000Y10075000D03*
X19235000Y10075000D03*
X17965000Y10075000D03*
X16695000Y10075000D03*
%TD*%
D20*
%TO.C,D7*%
X100000Y8000000D03*
D21*
X-4900000Y8000000D03*
%TD*%
D15*
%TO.C,R37*%
X11000000Y-1928571D03*
D16*
X6000000Y-1928571D03*
%TD*%
D19*
%TO.C,C15*%
X23600000Y32400000D03*
X18600000Y32400000D03*
%TD*%
D31*
%TO.C,RV7*%
X32500000Y-5000000D03*
D32*
X30000000Y-5000000D03*
X27500000Y-5000000D03*
D33*
X25600000Y2000000D03*
X34400000Y2000000D03*
%TD*%
D28*
%TO.C,RV5*%
X20000000Y13500000D03*
D29*
X15000000Y13500000D03*
X10000000Y13500000D03*
%TD*%
D26*
%TO.C,Q5*%
X26200000Y7850000D03*
X26200000Y5950000D03*
X29200000Y6900000D03*
%TD*%
D15*
%TO.C,R9*%
X-27500000Y11100000D03*
D16*
X-32500000Y11100000D03*
%TD*%
D34*
%TO.C,U2*%
X-40975000Y5905000D03*
X-40975000Y4635000D03*
X-40975000Y3365000D03*
X-40975000Y2095000D03*
X-36025000Y2095000D03*
X-36025000Y3365000D03*
X-36025000Y4635000D03*
X-36025000Y5905000D03*
%TD*%
D15*
%TO.C,R36*%
X52500000Y5400000D03*
D16*
X47500000Y5400000D03*
%TD*%
D19*
%TO.C,C8*%
X-19000000Y-7077000D03*
X-24000000Y-7077000D03*
%TD*%
D35*
%TO.C,R17*%
X-50500000Y25500000D03*
X-52500000Y25500000D03*
%TD*%
D30*
%TO.C,U4*%
X40095000Y-2075000D03*
X41365000Y-2075000D03*
X42635000Y-2075000D03*
X43905000Y-2075000D03*
X43905000Y2875000D03*
X42635000Y2875000D03*
X41365000Y2875000D03*
X40095000Y2875000D03*
%TD*%
D20*
%TO.C,D4*%
X-46100000Y10600000D03*
D21*
X-51100000Y10600000D03*
%TD*%
D36*
%TO.C,C26*%
X41250000Y6300000D03*
X38750000Y6300000D03*
%TD*%
D15*
%TO.C,R30*%
X6000000Y-4885714D03*
D16*
X11000000Y-4885714D03*
%TD*%
D30*
%TO.C,U1*%
X-23645000Y16755000D03*
X-22375000Y16755000D03*
X-21105000Y16755000D03*
X-19835000Y16755000D03*
X-18565000Y16755000D03*
X-17295000Y16755000D03*
X-16025000Y16755000D03*
X-14755000Y16755000D03*
X-14755000Y21705000D03*
X-16025000Y21705000D03*
X-17295000Y21705000D03*
X-18565000Y21705000D03*
X-19835000Y21705000D03*
X-21105000Y21705000D03*
X-22375000Y21705000D03*
X-23645000Y21705000D03*
%TD*%
D36*
%TO.C,C6*%
X-37250000Y10300000D03*
X-39750000Y10300000D03*
%TD*%
D22*
%TO.C,J4*%
X-36350000Y-17500000D03*
D23*
X-33810000Y-17500000D03*
X-31270000Y-17500000D03*
X-28730000Y-17500000D03*
X-26190000Y-17500000D03*
X-23650000Y-17500000D03*
%TD*%
D26*
%TO.C,Q2*%
X-52600000Y2350000D03*
X-52600000Y450000D03*
X-49600000Y1400000D03*
%TD*%
D20*
%TO.C,D3*%
X-46100000Y4800000D03*
D21*
X-51100000Y4800000D03*
%TD*%
D15*
%TO.C,R7*%
X-36000000Y-11500000D03*
D16*
X-41000000Y-11500000D03*
%TD*%
D20*
%TO.C,C30*%
X10800000Y37450000D03*
D19*
X10800000Y39950000D03*
%TD*%
D37*
%TO.C,C14*%
X-35862500Y7700000D03*
X-37937500Y7700000D03*
%TD*%
D15*
%TO.C,R26*%
X6000000Y9900000D03*
D16*
X11000000Y9900000D03*
%TD*%
D36*
%TO.C,C34*%
X51250000Y1300000D03*
X48750000Y1300000D03*
%TD*%
D15*
%TO.C,R20*%
X7900000Y19466667D03*
D16*
X12900000Y19466667D03*
%TD*%
D15*
%TO.C,R40*%
X52500000Y-5000000D03*
D16*
X47500000Y-5000000D03*
%TD*%
D15*
%TO.C,R41*%
X47500000Y-2000000D03*
D16*
X52500000Y-2000000D03*
%TD*%
D38*
%TO.C,C11*%
X-19837500Y24200000D03*
X-17762500Y24200000D03*
%TD*%
D15*
%TO.C,R5*%
X-27500000Y-8200000D03*
D16*
X-32500000Y-8200000D03*
%TD*%
D20*
%TO.C,D9*%
X100000Y-940000D03*
D21*
X-4900000Y-940000D03*
%TD*%
D28*
%TO.C,RV4*%
X-10000000Y13500000D03*
D29*
X-15000000Y13500000D03*
X-20000000Y13500000D03*
%TD*%
D15*
%TO.C,R39*%
X27500000Y-11200000D03*
D16*
X32500000Y-11200000D03*
%TD*%
D20*
%TO.C,C13*%
X-51500000Y17950000D03*
D19*
X-51500000Y20450000D03*
%TD*%
D28*
%TO.C,RV1*%
X-40000000Y-14500000D03*
D29*
X-45000000Y-14500000D03*
X-50000000Y-14500000D03*
%TD*%
D19*
%TO.C,C22*%
X16100000Y-3800000D03*
X21100000Y-3800000D03*
%TD*%
D24*
%TO.C,C27*%
X50050000Y18400000D03*
D25*
X51550000Y18400000D03*
%TD*%
D20*
%TO.C,SW2*%
X-3810000Y17690000D03*
D21*
X-1270000Y17690000D03*
X1270000Y17690000D03*
X3810000Y17690000D03*
X3810000Y25310000D03*
X1270000Y25310000D03*
X-1270000Y25310000D03*
X-3810000Y25310000D03*
%TD*%
D20*
%TO.C,D11*%
X100000Y-6900000D03*
D21*
X-4900000Y-6900000D03*
%TD*%
D20*
%TO.C,D10*%
X100000Y-3920000D03*
D21*
X-4900000Y-3920000D03*
%TD*%
D20*
%TO.C,C31*%
X21700000Y37450000D03*
D19*
X21700000Y39950000D03*
%TD*%
D15*
%TO.C,R14*%
X-24000000Y1474000D03*
D16*
X-19000000Y1474000D03*
%TD*%
D39*
%TO.C,FB3*%
X6300000Y39625000D03*
X6300000Y37575000D03*
%TD*%
D19*
%TO.C,C16*%
X23600000Y28595000D03*
X18600000Y28595000D03*
%TD*%
D24*
%TO.C,C29*%
X39350000Y-6600000D03*
D25*
X40850000Y-6600000D03*
%TD*%
D28*
%TO.C,RV8*%
X50000000Y13500000D03*
D29*
X45000000Y13500000D03*
X40000000Y13500000D03*
%TD*%
D40*
%TO.C,Q6*%
X49200000Y-11050000D03*
X49200000Y-9150000D03*
X46200000Y-10100000D03*
%TD*%
D15*
%TO.C,R24*%
X7900000Y24800000D03*
D16*
X12900000Y24800000D03*
%TD*%
D35*
%TO.C,R6*%
X-47100000Y-17100000D03*
X-49100000Y-17100000D03*
%TD*%
D19*
%TO.C,C5*%
X-50975000Y-11200000D03*
X-45975000Y-11200000D03*
%TD*%
D15*
%TO.C,R15*%
X-9200000Y-4000000D03*
D16*
X-14200000Y-4000000D03*
%TD*%
D18*
%TO.C,FB2*%
X-50875000Y35400000D03*
X-52925000Y35400000D03*
%TD*%
D20*
%TO.C,C2*%
X-21200000Y37550000D03*
D19*
X-21200000Y40050000D03*
%TD*%
D15*
%TO.C,R16*%
X-9200000Y-6400000D03*
D16*
X-14200000Y-6400000D03*
%TD*%
D15*
%TO.C,R31*%
X32500000Y-8200000D03*
D16*
X27500000Y-8200000D03*
%TD*%
D15*
%TO.C,R3*%
X-9000000Y25100000D03*
D16*
X-9000000Y30100000D03*
%TD*%
D15*
%TO.C,R19*%
X12900000Y22133333D03*
D16*
X7900000Y22133333D03*
%TD*%
D19*
%TO.C,C4*%
X-50975000Y-7000000D03*
X-45975000Y-7000000D03*
%TD*%
%TO.C,C21*%
X16100000Y-11100000D03*
X21100000Y-11100000D03*
%TD*%
D28*
%TO.C,RV2*%
X-40000000Y13500000D03*
D29*
X-45000000Y13500000D03*
X-50000000Y13500000D03*
%TD*%
D28*
%TO.C,RV9*%
X50000000Y-14500000D03*
D29*
X45000000Y-14500000D03*
X40000000Y-14500000D03*
%TD*%
D28*
%TO.C,RV3*%
X-10000000Y-14500000D03*
D29*
X-15000000Y-14500000D03*
X-20000000Y-14500000D03*
%TD*%
D15*
%TO.C,R29*%
X11000000Y1028571D03*
D16*
X6000000Y1028571D03*
%TD*%
D15*
%TO.C,R10*%
X-32500000Y14600000D03*
D16*
X-27500000Y14600000D03*
%TD*%
D15*
%TO.C,R25*%
X7900000Y27466667D03*
D16*
X12900000Y27466667D03*
%TD*%
D36*
%TO.C,C18*%
X19850000Y24790000D03*
X22350000Y24790000D03*
%TD*%
D15*
%TO.C,R8*%
X-41000000Y-8166667D03*
D16*
X-36000000Y-8166667D03*
%TD*%
D41*
%TO.C,R18*%
X-52500000Y23500000D03*
X-50500000Y23500000D03*
%TD*%
D15*
%TO.C,R4*%
X-27500000Y-11500000D03*
D16*
X-32500000Y-11500000D03*
%TD*%
D35*
%TO.C,R1*%
X-7400000Y40400000D03*
X-9400000Y40400000D03*
%TD*%
D42*
%TO.C,R43*%
X17200000Y39600000D03*
X17200000Y37600000D03*
%TD*%
D36*
%TO.C,C9*%
X-22850000Y6800000D03*
X-20350000Y6800000D03*
%TD*%
D15*
%TO.C,R34*%
X47500000Y10000000D03*
D16*
X52500000Y10000000D03*
%TD*%
D20*
%TO.C,C12*%
X-51500000Y29450000D03*
D19*
X-51500000Y31950000D03*
%TD*%
D43*
%TO.C,D1*%
X-9350000Y34500000D03*
X-6850000Y34500000D03*
%TD*%
D44*
%TO.C,SW1*%
X-30000000Y-2700000D03*
X-30000000Y2000000D03*
X-30000000Y6700000D03*
%TD*%
M02*
