%TF.GenerationSoftware,KiCad,Pcbnew,9.0.7*%
%TF.CreationDate,2026-04-13T23:47:59-02:30*%
%TF.ProjectId,chris-mang-custom,63687269-732d-46d6-916e-672d63757374,rev?*%
%TF.SameCoordinates,Original*%
%TF.FileFunction,Copper,L4,Bot*%
%TF.FilePolarity,Positive*%
%FSLAX46Y46*%
G04 Gerber Fmt 4.6, Leading zero omitted, Abs format (unit mm)*
G04 Created by KiCad (PCBNEW 9.0.7) date 2026-04-13 23:47:59*
%MOMM*%
%LPD*%
G01*
G04 APERTURE LIST*
%TA.AperFunction,ComponentPad*%
%ADD10O,4.000000X1.500000*%
%TD*%
%TA.AperFunction,ComponentPad*%
%ADD11O,1.500000X4.000000*%
%TD*%
%TA.AperFunction,ComponentPad*%
%ADD12C,2.540000*%
%TD*%
%TA.AperFunction,ComponentPad*%
%ADD13O,3.000000X1.400000*%
%TD*%
%TA.AperFunction,ComponentPad*%
%ADD14O,1.400000X3.000000*%
%TD*%
%TA.AperFunction,ComponentPad*%
%ADD15C,1.400000*%
%TD*%
%TA.AperFunction,ComponentPad*%
%ADD16O,1.400000X1.400000*%
%TD*%
%TA.AperFunction,ComponentPad*%
%ADD17C,1.600000*%
%TD*%
%TA.AperFunction,ComponentPad*%
%ADD18R,1.600000X1.600000*%
%TD*%
%TA.AperFunction,ComponentPad*%
%ADD19O,1.600000X1.600000*%
%TD*%
%TA.AperFunction,ComponentPad*%
%ADD20R,1.700000X1.700000*%
%TD*%
%TA.AperFunction,ComponentPad*%
%ADD21O,1.700000X1.700000*%
%TD*%
%TA.AperFunction,ComponentPad*%
%ADD22R,1.200000X1.200000*%
%TD*%
%TA.AperFunction,ComponentPad*%
%ADD23C,1.200000*%
%TD*%
%TA.AperFunction,ComponentPad*%
%ADD24R,2.000000X2.000000*%
%TD*%
%TA.AperFunction,ComponentPad*%
%ADD25C,2.000000*%
%TD*%
%TA.AperFunction,ComponentPad*%
%ADD26R,1.800000X1.800000*%
%TD*%
%TA.AperFunction,ComponentPad*%
%ADD27C,1.800000*%
%TD*%
%TA.AperFunction,ComponentPad*%
%ADD28O,3.600000X4.200000*%
%TD*%
%TA.AperFunction,ComponentPad*%
%ADD29C,1.500000*%
%TD*%
%TA.AperFunction,ComponentPad*%
%ADD30O,3.800000X2.400000*%
%TD*%
%TA.AperFunction,ViaPad*%
%ADD31C,0.800000*%
%TD*%
%TA.AperFunction,Conductor*%
%ADD32C,0.500000*%
%TD*%
%TA.AperFunction,Conductor*%
%ADD33C,0.250000*%
%TD*%
G04 APERTURE END LIST*
D10*
%TO.P,J1,1*%
%TO.N,Earth*%
X0Y29800000D03*
%TO.P,J1,2*%
%TO.N,Net-(Q1-D)*%
X0Y35800000D03*
D11*
%TO.P,J1,3*%
%TO.N,unconnected-(J1-Pad3)*%
X-4700000Y32800000D03*
%TD*%
D12*
%TO.P,J2,1,T*%
%TO.N,/input_jack*%
X-46250000Y23650000D03*
%TO.P,J2,2,R*%
%TO.N,Earth*%
X-46250000Y30000000D03*
%TO.P,J2,3,S*%
X-46250000Y36350000D03*
%TO.P,J2,4,TS*%
X-29750000Y23650000D03*
%TO.P,J2,5,RS*%
X-29750000Y30000000D03*
%TO.P,J2,6,SS*%
X-29750000Y36350000D03*
%TD*%
%TO.P,J3,1,T*%
%TO.N,/output_jack*%
X29750000Y23650000D03*
%TO.P,J3,2,R*%
%TO.N,Earth*%
X29750000Y30000000D03*
%TO.P,J3,3,S*%
X29750000Y36350000D03*
%TO.P,J3,4,TS*%
X46250000Y23650000D03*
%TO.P,J3,5,RS*%
X46250000Y30000000D03*
%TO.P,J3,6,SS*%
X46250000Y36350000D03*
%TD*%
D13*
%TO.P,G1,1*%
%TO.N,Earth*%
X49700000Y34500000D03*
D14*
X53000000Y30000000D03*
D13*
X49700000Y25500000D03*
%TD*%
D15*
%TO.P,R11,1*%
%TO.N,Net-(D4-A)*%
X-41000000Y-4600000D03*
D16*
%TO.P,R11,2*%
%TO.N,Net-(R11-Pad2)*%
X-36000000Y-4600000D03*
%TD*%
D17*
%TO.P,C25,1*%
%TO.N,Net-(C25-Pad1)*%
X37500000Y9600000D03*
%TO.P,C25,2*%
%TO.N,Net-(C25-Pad2)*%
X42500000Y9600000D03*
%TD*%
D18*
%TO.P,D8,1,K*%
%TO.N,Net-(D6-A)*%
X100000Y5020000D03*
D19*
%TO.P,D8,2,A*%
%TO.N,/bluesbreaker/sw4*%
X-4900000Y5020000D03*
%TD*%
D18*
%TO.P,D5,1,K*%
%TO.N,Net-(D5-K)*%
X100000Y10800000D03*
D19*
%TO.P,D5,2,A*%
%TO.N,Net-(D5-A)*%
X-4900000Y10800000D03*
%TD*%
D17*
%TO.P,C28,1*%
%TO.N,/bluesbreaker-send*%
X37600000Y-11100000D03*
%TO.P,C28,2*%
%TO.N,Net-(Q6-B)*%
X42600000Y-11100000D03*
%TD*%
%TO.P,C3,1*%
%TO.N,/zendrive_send*%
X-50975000Y-2800000D03*
%TO.P,C3,2*%
%TO.N,Net-(U2A-+)*%
X-45975000Y-2800000D03*
%TD*%
%TO.P,C20,1*%
%TO.N,/bluesbreaker/4.5V*%
X16100000Y-8100000D03*
%TO.P,C20,2*%
%TO.N,Net-(C20-Pad2)*%
X21100000Y-8100000D03*
%TD*%
D20*
%TO.P,J5,1,Pin_1*%
%TO.N,Earth*%
X23650000Y-17500000D03*
D21*
%TO.P,J5,2,Pin_2*%
%TO.N,unconnected-(J5-Pin_2-Pad2)*%
X26190000Y-17500000D03*
%TO.P,J5,3,Pin_3*%
%TO.N,/bluesbreaker-send*%
X28730000Y-17500000D03*
%TO.P,J5,4,Pin_4*%
%TO.N,/bluesbreaker-return*%
X31270000Y-17500000D03*
%TO.P,J5,5,Pin_5*%
%TO.N,/output_jack*%
X33810000Y-17500000D03*
%TO.P,J5,6,Pin_6*%
%TO.N,/V+1*%
X36350000Y-17500000D03*
%TD*%
D18*
%TO.P,D6,1,K*%
%TO.N,Net-(D5-A)*%
X100000Y2040000D03*
D19*
%TO.P,D6,2,A*%
%TO.N,Net-(D6-A)*%
X-4900000Y2040000D03*
%TD*%
D15*
%TO.P,R27,1*%
%TO.N,Net-(U3A--)*%
X11000000Y6942857D03*
D16*
%TO.P,R27,2*%
%TO.N,Net-(D5-A)*%
X6000000Y6942857D03*
%TD*%
D22*
%TO.P,C23,1*%
%TO.N,Net-(C22-Pad1)*%
X19530000Y1400000D03*
D23*
%TO.P,C23,2*%
%TO.N,Net-(Q5-B)*%
X21030000Y1400000D03*
%TD*%
D18*
%TO.P,C1,1*%
%TO.N,Net-(D1-K)*%
X-14300000Y37550000D03*
D17*
%TO.P,C1,2*%
%TO.N,Earth*%
X-14300000Y40050000D03*
%TD*%
D15*
%TO.P,R33,1*%
%TO.N,Earth*%
X23900000Y10600000D03*
D16*
%TO.P,R33,2*%
%TO.N,Net-(Q5-E)*%
X28900000Y10600000D03*
%TD*%
D17*
%TO.P,C10,1*%
%TO.N,Net-(C10-Pad1)*%
X-19000000Y-2199000D03*
%TO.P,C10,2*%
%TO.N,Net-(C10-Pad2)*%
X-24000000Y-2199000D03*
%TD*%
D15*
%TO.P,R12,1*%
%TO.N,Net-(C8-Pad2)*%
X-41100000Y-1500000D03*
D16*
%TO.P,R12,2*%
%TO.N,Net-(U2B--)*%
X-36100000Y-1500000D03*
%TD*%
D15*
%TO.P,R2,1*%
%TO.N,/V+0*%
X-11100000Y25100000D03*
D16*
%TO.P,R2,2*%
%TO.N,+9V*%
X-11100000Y30100000D03*
%TD*%
D15*
%TO.P,R13,1*%
%TO.N,Net-(U2B--)*%
X-24000000Y3942000D03*
D16*
%TO.P,R13,2*%
%TO.N,Net-(C10-Pad1)*%
X-19000000Y3942000D03*
%TD*%
D15*
%TO.P,R23,1*%
%TO.N,/bluesbreaker/4.5V*%
X7900000Y16800000D03*
D16*
%TO.P,R23,2*%
%TO.N,Net-(U3B-+)*%
X12900000Y16800000D03*
%TD*%
D18*
%TO.P,D2,1,K*%
%TO.N,Net-(D2-K)*%
X-46100000Y7700000D03*
D19*
%TO.P,D2,2,A*%
%TO.N,Net-(D2-A)*%
X-51100000Y7700000D03*
%TD*%
D15*
%TO.P,R22,1*%
%TO.N,Net-(C16-Pad2)*%
X12900000Y30133333D03*
D16*
%TO.P,R22,2*%
%TO.N,/bluesbreaker/sw7*%
X7900000Y30133333D03*
%TD*%
D17*
%TO.P,C7,1*%
%TO.N,Net-(U2B-+)*%
X-24000000Y-11200000D03*
%TO.P,C7,2*%
%TO.N,Earth*%
X-19000000Y-11200000D03*
%TD*%
D22*
%TO.P,C24,1*%
%TO.N,Net-(Q5-E)*%
X32730000Y11700000D03*
D23*
%TO.P,C24,2*%
%TO.N,Net-(C24-Pad2)*%
X34230000Y11700000D03*
%TD*%
D15*
%TO.P,R35,1*%
%TO.N,Net-(C25-Pad2)*%
X47500000Y7700000D03*
D16*
%TO.P,R35,2*%
%TO.N,Net-(U4B--)*%
X52500000Y7700000D03*
%TD*%
D15*
%TO.P,R28,1*%
%TO.N,Net-(U3A--)*%
X11000000Y3985714D03*
D16*
%TO.P,R28,2*%
%TO.N,/bluesbreaker/sw5*%
X6000000Y3985714D03*
%TD*%
D15*
%TO.P,R32,1*%
%TO.N,/bluesbreaker/4.5V*%
X24000000Y12800000D03*
D16*
%TO.P,R32,2*%
%TO.N,Net-(Q5-B)*%
X29000000Y12800000D03*
%TD*%
D15*
%TO.P,R21,1*%
%TO.N,Net-(C15-Pad2)*%
X12900000Y32800000D03*
D16*
%TO.P,R21,2*%
%TO.N,/bluesbreaker/sw7*%
X7900000Y32800000D03*
%TD*%
D24*
%TO.P,RV6,1,1*%
%TO.N,Net-(C20-Pad2)*%
X20000000Y-14500000D03*
D25*
%TO.P,RV6,2,2*%
%TO.N,Net-(R30-Pad1)*%
X15000000Y-14500000D03*
%TO.P,RV6,3,3*%
%TO.N,Net-(D10-A)*%
X10000000Y-14500000D03*
%TD*%
D17*
%TO.P,C17,1*%
%TO.N,Net-(C17-Pad1)*%
X18600000Y21045000D03*
%TO.P,C17,2*%
%TO.N,Net-(U3B-+)*%
X23600000Y21045000D03*
%TD*%
%TO.P,C19,1*%
%TO.N,Net-(C19-Pad1)*%
X18600000Y17300000D03*
%TO.P,C19,2*%
%TO.N,Net-(C19-Pad2)*%
X23600000Y17300000D03*
%TD*%
D18*
%TO.P,D7,1,K*%
%TO.N,/bluesbreaker/sw4*%
X100000Y8000000D03*
D19*
%TO.P,D7,2,A*%
%TO.N,Net-(D5-K)*%
X-4900000Y8000000D03*
%TD*%
D15*
%TO.P,R37,1*%
%TO.N,/bluesbreaker/4.5V*%
X11000000Y-1928571D03*
D16*
%TO.P,R37,2*%
%TO.N,Net-(C22-Pad1)*%
X6000000Y-1928571D03*
%TD*%
D17*
%TO.P,C15,1*%
%TO.N,Earth*%
X23600000Y32400000D03*
%TO.P,C15,2*%
%TO.N,Net-(C15-Pad2)*%
X18600000Y32400000D03*
%TD*%
D26*
%TO.P,RV7,1,1*%
%TO.N,Net-(C21-Pad2)*%
X32500000Y-5000000D03*
D27*
%TO.P,RV7,2,2*%
%TO.N,Net-(C22-Pad1)*%
X30000000Y-5000000D03*
%TO.P,RV7,3,3*%
X27500000Y-5000000D03*
D28*
%TO.P,RV7,4*%
%TO.N,N/C*%
X25600000Y2000000D03*
X34400000Y2000000D03*
%TD*%
D24*
%TO.P,RV5,1,1*%
%TO.N,Net-(R24-Pad2)*%
X20000000Y13500000D03*
D25*
%TO.P,RV5,2,2*%
%TO.N,Net-(C18-Pad2)*%
X15000000Y13500000D03*
%TO.P,RV5,3,3*%
%TO.N,Net-(C19-Pad1)*%
X10000000Y13500000D03*
%TD*%
D15*
%TO.P,R9,1*%
%TO.N,Net-(D3-A)*%
X-27500000Y11100000D03*
D16*
%TO.P,R9,2*%
%TO.N,Net-(R9-Pad2)*%
X-32500000Y11100000D03*
%TD*%
D15*
%TO.P,R36,1*%
%TO.N,Net-(U4B--)*%
X52500000Y5400000D03*
D16*
%TO.P,R36,2*%
%TO.N,Net-(C26-Pad2)*%
X47500000Y5400000D03*
%TD*%
D17*
%TO.P,C8,1*%
%TO.N,Earth*%
X-19000000Y-7077000D03*
%TO.P,C8,2*%
%TO.N,Net-(C8-Pad2)*%
X-24000000Y-7077000D03*
%TD*%
D18*
%TO.P,D4,1,K*%
%TO.N,Net-(D2-A)*%
X-46100000Y10600000D03*
D19*
%TO.P,D4,2,A*%
%TO.N,Net-(D4-A)*%
X-51100000Y10600000D03*
%TD*%
D29*
%TO.P,C26,1*%
%TO.N,Net-(U4B--)*%
X41250000Y6300000D03*
%TO.P,C26,2*%
%TO.N,Net-(C26-Pad2)*%
X38750000Y6300000D03*
%TD*%
D15*
%TO.P,R30,1*%
%TO.N,Net-(R30-Pad1)*%
X6000000Y-4885714D03*
D16*
%TO.P,R30,2*%
%TO.N,Net-(C22-Pad1)*%
X11000000Y-4885714D03*
%TD*%
D29*
%TO.P,C6,1*%
%TO.N,Net-(D3-A)*%
X-37250000Y10300000D03*
%TO.P,C6,2*%
%TO.N,Net-(D4-A)*%
X-39750000Y10300000D03*
%TD*%
D20*
%TO.P,J4,1,Pin_1*%
%TO.N,Earth*%
X-36350000Y-17500000D03*
D21*
%TO.P,J4,2,Pin_2*%
%TO.N,/input_jack*%
X-33810000Y-17500000D03*
%TO.P,J4,3,Pin_3*%
%TO.N,/zendrive_send*%
X-31270000Y-17500000D03*
%TO.P,J4,4,Pin_4*%
%TO.N,/zendrive_return*%
X-28730000Y-17500000D03*
%TO.P,J4,5,Pin_5*%
%TO.N,unconnected-(J4-Pin_5-Pad5)*%
X-26190000Y-17500000D03*
%TO.P,J4,6,Pin_6*%
%TO.N,/V+0*%
X-23650000Y-17500000D03*
%TD*%
D18*
%TO.P,D3,1,K*%
%TO.N,Net-(D3-K)*%
X-46100000Y4800000D03*
D19*
%TO.P,D3,2,A*%
%TO.N,Net-(D3-A)*%
X-51100000Y4800000D03*
%TD*%
D15*
%TO.P,R7,1*%
%TO.N,Net-(C4-Pad2)*%
X-36000000Y-11500000D03*
D16*
%TO.P,R7,2*%
%TO.N,Net-(R7-Pad2)*%
X-41000000Y-11500000D03*
%TD*%
D18*
%TO.P,C30,1*%
%TO.N,/bluesbreaker/9V*%
X10800000Y37450000D03*
D17*
%TO.P,C30,2*%
%TO.N,Earth*%
X10800000Y39950000D03*
%TD*%
D15*
%TO.P,R26,1*%
%TO.N,Net-(C19-Pad2)*%
X6000000Y9900000D03*
D16*
%TO.P,R26,2*%
%TO.N,Net-(U3A--)*%
X11000000Y9900000D03*
%TD*%
D29*
%TO.P,C34,1*%
%TO.N,Net-(U4A--)*%
X51250000Y1300000D03*
%TO.P,C34,2*%
%TO.N,Net-(C25-Pad1)*%
X48750000Y1300000D03*
%TD*%
D15*
%TO.P,R20,1*%
%TO.N,/bluesbreaker-send*%
X7900000Y19466667D03*
D16*
%TO.P,R20,2*%
%TO.N,Net-(C17-Pad1)*%
X12900000Y19466667D03*
%TD*%
D15*
%TO.P,R40,1*%
%TO.N,Earth*%
X52500000Y-5000000D03*
D16*
%TO.P,R40,2*%
%TO.N,Net-(Q6-E)*%
X47500000Y-5000000D03*
%TD*%
D15*
%TO.P,R41,1*%
%TO.N,Net-(C29-Pad2)*%
X47500000Y-2000000D03*
D16*
%TO.P,R41,2*%
%TO.N,Net-(U4A--)*%
X52500000Y-2000000D03*
%TD*%
D15*
%TO.P,R5,1*%
%TO.N,/Zendrive/4.5V*%
X-27500000Y-8200000D03*
D16*
%TO.P,R5,2*%
%TO.N,Net-(U2A-+)*%
X-32500000Y-8200000D03*
%TD*%
D18*
%TO.P,D9,1,K*%
%TO.N,Net-(D10-A)*%
X100000Y-940000D03*
D19*
%TO.P,D9,2,A*%
%TO.N,/bluesbreaker/sw3*%
X-4900000Y-940000D03*
%TD*%
D24*
%TO.P,RV4,1,1*%
%TO.N,Earth*%
X-10000000Y13500000D03*
D25*
%TO.P,RV4,2,2*%
%TO.N,/zendrive_return*%
X-15000000Y13500000D03*
%TO.P,RV4,3,3*%
%TO.N,Net-(R14-Pad2)*%
X-20000000Y13500000D03*
%TD*%
D15*
%TO.P,R39,1*%
%TO.N,/bluesbreaker/4.5V*%
X27500000Y-11200000D03*
D16*
%TO.P,R39,2*%
%TO.N,Net-(Q6-B)*%
X32500000Y-11200000D03*
%TD*%
D18*
%TO.P,C13,1*%
%TO.N,/Zendrive/4.5V*%
X-51500000Y17950000D03*
D17*
%TO.P,C13,2*%
%TO.N,Earth*%
X-51500000Y20450000D03*
%TD*%
D24*
%TO.P,RV1,1,1*%
%TO.N,Net-(C4-Pad2)*%
X-40000000Y-14500000D03*
D25*
%TO.P,RV1,2,2*%
X-45000000Y-14500000D03*
%TO.P,RV1,3,3*%
%TO.N,Net-(R7-Pad2)*%
X-50000000Y-14500000D03*
%TD*%
D17*
%TO.P,C22,1*%
%TO.N,Net-(C22-Pad1)*%
X16100000Y-3800000D03*
%TO.P,C22,2*%
%TO.N,Net-(Q5-B)*%
X21100000Y-3800000D03*
%TD*%
D22*
%TO.P,C27,1*%
%TO.N,Net-(C26-Pad2)*%
X50050000Y18400000D03*
D23*
%TO.P,C27,2*%
%TO.N,Net-(C27-Pad2)*%
X51550000Y18400000D03*
%TD*%
D18*
%TO.P,SW2,1,C*%
%TO.N,unconnected-(SW2A-C-Pad1)*%
X-3810000Y17690000D03*
D19*
%TO.P,SW2,2,D*%
%TO.N,/bluesbreaker/sw2*%
X-1270000Y17690000D03*
%TO.P,SW2,3,C*%
%TO.N,/bluesbreaker/sw3*%
X1270000Y17690000D03*
%TO.P,SW2,4,D*%
%TO.N,/bluesbreaker/sw4*%
X3810000Y17690000D03*
%TO.P,SW2,5,B*%
%TO.N,/bluesbreaker/sw5*%
X3810000Y25310000D03*
%TO.P,SW2,6,A*%
%TO.N,/bluesbreaker/4.5V*%
X1270000Y25310000D03*
%TO.P,SW2,7,B*%
%TO.N,/bluesbreaker/sw7*%
X-1270000Y25310000D03*
%TO.P,SW2,8,A*%
%TO.N,unconnected-(SW2A-A-Pad8)*%
X-3810000Y25310000D03*
%TD*%
D18*
%TO.P,D11,1,K*%
%TO.N,/bluesbreaker/sw3*%
X100000Y-6900000D03*
D19*
%TO.P,D11,2,A*%
%TO.N,Net-(D10-K)*%
X-4900000Y-6900000D03*
%TD*%
D18*
%TO.P,D10,1,K*%
%TO.N,Net-(D10-K)*%
X100000Y-3920000D03*
D19*
%TO.P,D10,2,A*%
%TO.N,Net-(D10-A)*%
X-4900000Y-3920000D03*
%TD*%
D18*
%TO.P,C31,1*%
%TO.N,/bluesbreaker/4.5V*%
X21700000Y37450000D03*
D17*
%TO.P,C31,2*%
%TO.N,Earth*%
X21700000Y39950000D03*
%TD*%
D15*
%TO.P,R14,1*%
%TO.N,Net-(C10-Pad2)*%
X-24000000Y1474000D03*
D16*
%TO.P,R14,2*%
%TO.N,Net-(R14-Pad2)*%
X-19000000Y1474000D03*
%TD*%
D17*
%TO.P,C16,1*%
%TO.N,Net-(C15-Pad2)*%
X23600000Y28595000D03*
%TO.P,C16,2*%
%TO.N,Net-(C16-Pad2)*%
X18600000Y28595000D03*
%TD*%
D22*
%TO.P,C29,1*%
%TO.N,Net-(Q6-E)*%
X39350000Y-6600000D03*
D23*
%TO.P,C29,2*%
%TO.N,Net-(C29-Pad2)*%
X40850000Y-6600000D03*
%TD*%
D24*
%TO.P,RV8,1,1*%
%TO.N,Earth*%
X50000000Y13500000D03*
D25*
%TO.P,RV8,2,2*%
%TO.N,/bluesbreaker-return*%
X45000000Y13500000D03*
%TO.P,RV8,3,3*%
%TO.N,Net-(C27-Pad2)*%
X40000000Y13500000D03*
%TD*%
D15*
%TO.P,R24,1*%
%TO.N,/bluesbreaker/sw2*%
X7900000Y24800000D03*
D16*
%TO.P,R24,2*%
%TO.N,Net-(R24-Pad2)*%
X12900000Y24800000D03*
%TD*%
D17*
%TO.P,C5,1*%
%TO.N,Earth*%
X-50975000Y-11200000D03*
%TO.P,C5,2*%
%TO.N,Net-(C4-Pad1)*%
X-45975000Y-11200000D03*
%TD*%
D15*
%TO.P,R15,1*%
%TO.N,/Zendrive/Q1G*%
X-9200000Y-4000000D03*
D16*
%TO.P,R15,2*%
%TO.N,/Zendrive/9V*%
X-14200000Y-4000000D03*
%TD*%
D18*
%TO.P,C2,1*%
%TO.N,+9V*%
X-21200000Y37550000D03*
D17*
%TO.P,C2,2*%
%TO.N,Earth*%
X-21200000Y40050000D03*
%TD*%
D15*
%TO.P,R16,1*%
%TO.N,/Zendrive/Q1D*%
X-9200000Y-6400000D03*
D16*
%TO.P,R16,2*%
%TO.N,/Zendrive/9V*%
X-14200000Y-6400000D03*
%TD*%
D15*
%TO.P,R31,1*%
%TO.N,Net-(C21-Pad2)*%
X32500000Y-8200000D03*
D16*
%TO.P,R31,2*%
%TO.N,Net-(C22-Pad1)*%
X27500000Y-8200000D03*
%TD*%
D15*
%TO.P,R3,1*%
%TO.N,/V+1*%
X-9000000Y25100000D03*
D16*
%TO.P,R3,2*%
%TO.N,+9V*%
X-9000000Y30100000D03*
%TD*%
D15*
%TO.P,R19,1*%
%TO.N,Earth*%
X12900000Y22133333D03*
D16*
%TO.P,R19,2*%
%TO.N,/bluesbreaker-send*%
X7900000Y22133333D03*
%TD*%
D17*
%TO.P,C4,1*%
%TO.N,Net-(C4-Pad1)*%
X-50975000Y-7000000D03*
%TO.P,C4,2*%
%TO.N,Net-(C4-Pad2)*%
X-45975000Y-7000000D03*
%TD*%
%TO.P,C21,1*%
%TO.N,/bluesbreaker/4.5V*%
X16100000Y-11100000D03*
%TO.P,C21,2*%
%TO.N,Net-(C21-Pad2)*%
X21100000Y-11100000D03*
%TD*%
D24*
%TO.P,RV2,1,1*%
%TO.N,Net-(D3-A)*%
X-40000000Y13500000D03*
D25*
%TO.P,RV2,2,2*%
%TO.N,Net-(R10-Pad1)*%
X-45000000Y13500000D03*
%TO.P,RV2,3,3*%
%TO.N,Net-(D4-A)*%
X-50000000Y13500000D03*
%TD*%
D24*
%TO.P,RV9,1,1*%
%TO.N,Net-(U4A--)*%
X50000000Y-14500000D03*
D25*
%TO.P,RV9,2,2*%
%TO.N,Net-(C25-Pad1)*%
X45000000Y-14500000D03*
%TO.P,RV9,3,3*%
X40000000Y-14500000D03*
%TD*%
D24*
%TO.P,RV3,1,1*%
%TO.N,Net-(R11-Pad2)*%
X-10000000Y-14500000D03*
D25*
%TO.P,RV3,2,2*%
X-15000000Y-14500000D03*
%TO.P,RV3,3,3*%
%TO.N,Net-(U2B-+)*%
X-20000000Y-14500000D03*
%TD*%
D15*
%TO.P,R29,1*%
%TO.N,/bluesbreaker/sw5*%
X11000000Y1028571D03*
D16*
%TO.P,R29,2*%
%TO.N,Net-(D10-A)*%
X6000000Y1028571D03*
%TD*%
D15*
%TO.P,R10,1*%
%TO.N,Net-(R10-Pad1)*%
X-32500000Y14600000D03*
D16*
%TO.P,R10,2*%
%TO.N,Net-(D4-A)*%
X-27500000Y14600000D03*
%TD*%
D15*
%TO.P,R25,1*%
%TO.N,/bluesbreaker/sw7*%
X7900000Y27466667D03*
D16*
%TO.P,R25,2*%
%TO.N,Net-(R24-Pad2)*%
X12900000Y27466667D03*
%TD*%
D29*
%TO.P,C18,1*%
%TO.N,/bluesbreaker/sw7*%
X19850000Y24790000D03*
%TO.P,C18,2*%
%TO.N,Net-(C18-Pad2)*%
X22350000Y24790000D03*
%TD*%
D15*
%TO.P,R8,1*%
%TO.N,Net-(R7-Pad2)*%
X-41000000Y-8166667D03*
D16*
%TO.P,R8,2*%
%TO.N,Net-(D3-A)*%
X-36000000Y-8166667D03*
%TD*%
D15*
%TO.P,R4,1*%
%TO.N,Earth*%
X-27500000Y-11500000D03*
D16*
%TO.P,R4,2*%
%TO.N,/zendrive_send*%
X-32500000Y-11500000D03*
%TD*%
D29*
%TO.P,C9,1*%
%TO.N,Net-(U2B--)*%
X-22850000Y6800000D03*
%TO.P,C9,2*%
%TO.N,Net-(C10-Pad1)*%
X-20350000Y6800000D03*
%TD*%
D15*
%TO.P,R34,1*%
%TO.N,Net-(C24-Pad2)*%
X47500000Y10000000D03*
D16*
%TO.P,R34,2*%
%TO.N,Net-(U4B--)*%
X52500000Y10000000D03*
%TD*%
D18*
%TO.P,C12,1*%
%TO.N,/Zendrive/9V*%
X-51500000Y29450000D03*
D17*
%TO.P,C12,2*%
%TO.N,Earth*%
X-51500000Y31950000D03*
%TD*%
D30*
%TO.P,SW1,1,A*%
%TO.N,Earth*%
X-30000000Y-2700000D03*
%TO.P,SW1,2,B*%
%TO.N,/Zendrive/Q1G*%
X-30000000Y2000000D03*
%TO.P,SW1,3,C*%
%TO.N,unconnected-(SW1-C-Pad3)*%
X-30000000Y6700000D03*
%TD*%
D31*
%TO.N,Earth*%
X-16800000Y24200000D03*
X-17300000Y20300000D03*
X17200000Y40600000D03*
X-19900000Y18200000D03*
X38300000Y-100000D03*
X-18600000Y18200000D03*
X-46100000Y-17100000D03*
X20500000Y6600000D03*
X-53500000Y23500000D03*
X43900000Y-3400000D03*
X-39800000Y2100000D03*
X-38900000Y7700000D03*
X-6500000Y40400000D03*
X-14500000Y-10800000D03*
X14600000Y7100000D03*
%TO.N,Net-(C4-Pad1)*%
X-53200000Y14100000D03*
%TO.N,Net-(D4-A)*%
X-48400000Y2400000D03*
X-48363603Y9163603D03*
%TO.N,/Zendrive/9V*%
X-20900000Y24200000D03*
X-34700000Y7700000D03*
%TO.N,/bluesbreaker/4.5V*%
X19200000Y3700000D03*
X42600000Y-3400000D03*
X43900000Y1500000D03*
%TO.N,Net-(D3-K)*%
X-45700000Y500000D03*
%TO.N,/Zendrive/Q1D*%
X-23600000Y20200000D03*
X-14700000Y20400000D03*
%TO.N,/Zendrive/Q1G*%
X-23700000Y18300000D03*
%TO.N,/bluesbreaker/9V*%
X30600000Y6900000D03*
X46200000Y-9300000D03*
X14600000Y11200000D03*
X38300000Y4000000D03*
%TD*%
D32*
%TO.N,/bluesbreaker/sw3*%
X1270000Y13370000D02*
X1270000Y17690000D01*
X600000Y12700000D02*
X1270000Y13370000D01*
X-2600000Y12000000D02*
X-1900000Y12700000D01*
X-2600000Y-380000D02*
X-2600000Y12000000D01*
X-3160000Y-940000D02*
X-2600000Y-380000D01*
X-1900000Y12700000D02*
X600000Y12700000D01*
%TO.N,/bluesbreaker/sw4*%
X3810000Y9010000D02*
X3810000Y17690000D01*
X2800000Y8000000D02*
X3810000Y9010000D01*
X100000Y8000000D02*
X2800000Y8000000D01*
%TO.N,/input_jack*%
X-54100000Y-17000000D02*
X-51900000Y-19200000D01*
X-51900000Y-19200000D02*
X-35510000Y-19200000D01*
X-51850000Y23650000D02*
X-54100000Y21400000D01*
X-35510000Y-19200000D02*
X-33810000Y-17500000D01*
X-54100000Y21400000D02*
X-54100000Y-17000000D01*
X-46250000Y23650000D02*
X-51850000Y23650000D01*
%TO.N,Net-(C4-Pad1)*%
X-53200000Y-4775000D02*
X-50975000Y-7000000D01*
X-53200000Y14100000D02*
X-53200000Y-4775000D01*
%TO.N,Net-(D4-A)*%
X-49400000Y10600000D02*
X-51100000Y10600000D01*
X-48400000Y9600000D02*
X-49400000Y10600000D01*
X-50000000Y13500000D02*
X-49000000Y12500000D01*
X-48400000Y9600000D02*
X-48400000Y9200000D01*
X-48363603Y9163603D02*
X-48363603Y2436397D01*
X-49000000Y11000000D02*
X-49400000Y10600000D01*
X-48400000Y9200000D02*
X-48363603Y9163603D01*
X-49000000Y12500000D02*
X-49000000Y11000000D01*
X-48363603Y2436397D02*
X-48400000Y2400000D01*
%TO.N,Net-(C19-Pad2)*%
X10600000Y11500000D02*
X14500000Y15400000D01*
X6000000Y9900000D02*
X7600000Y11500000D01*
X14500000Y15400000D02*
X21700000Y15400000D01*
X7600000Y11500000D02*
X10600000Y11500000D01*
X21700000Y15400000D02*
X23600000Y17300000D01*
%TO.N,/bluesbreaker/sw2*%
X-1270000Y21430000D02*
X-1270000Y17690000D01*
X4800000Y22800000D02*
X100000Y22800000D01*
X6800000Y24800000D02*
X4800000Y22800000D01*
X100000Y22800000D02*
X-1270000Y21430000D01*
X7900000Y24800000D02*
X6800000Y24800000D01*
%TO.N,Net-(C19-Pad1)*%
X10000000Y13500000D02*
X11500000Y13500000D01*
X15300000Y17300000D02*
X18600000Y17300000D01*
X11500000Y13500000D02*
X15300000Y17300000D01*
%TO.N,Net-(D3-K)*%
X-46100000Y4800000D02*
X-46100000Y900000D01*
X-46100000Y900000D02*
X-45700000Y500000D01*
%TO.N,/V+0*%
X-7400000Y-16400000D02*
X-8500000Y-17500000D01*
X-11100000Y25100000D02*
X-13300000Y22900000D01*
X-8500000Y-17500000D02*
X-23650000Y-17500000D01*
X-13300000Y22900000D02*
X-13300000Y9900000D01*
X-13300000Y9900000D02*
X-7400000Y4000000D01*
X-7400000Y4000000D02*
X-7400000Y-16400000D01*
%TO.N,/V+1*%
X-6649000Y-16451000D02*
X-3851000Y-19249000D01*
X-9000000Y25100000D02*
X-12500000Y21600000D01*
X-12500000Y10162074D02*
X-6649000Y4311074D01*
X-6649000Y4311074D02*
X-6649000Y-16451000D01*
X-12500000Y21600000D02*
X-12500000Y10162074D01*
X-3851000Y-19249000D02*
X34601000Y-19249000D01*
X34601000Y-19249000D02*
X36350000Y-17500000D01*
D33*
%TO.N,/Zendrive/Q1D*%
X-9200000Y-6400000D02*
X-8100000Y-5300000D01*
X-15400000Y19000000D02*
X-14700000Y19700000D01*
X-8100000Y-5300000D02*
X-8100000Y2008521D01*
X-23600000Y20200000D02*
X-22800000Y20200000D01*
X-23000000Y17600000D02*
X-21600000Y19000000D01*
X-22800000Y20200000D02*
X-21600000Y19000000D01*
X-21400000Y10000000D02*
X-23000000Y11600000D01*
X-21600000Y19000000D02*
X-15400000Y19000000D01*
X-23000000Y11600000D02*
X-23000000Y17600000D01*
X-8100000Y2008521D02*
X-16091479Y10000000D01*
X-14700000Y19700000D02*
X-14700000Y20400000D01*
X-16091479Y10000000D02*
X-21400000Y10000000D01*
%TO.N,/Zendrive/Q1G*%
X-16200000Y9400000D02*
X-9200000Y2400000D01*
X-22900000Y9400000D02*
X-16200000Y9400000D01*
X-23700000Y18300000D02*
X-25000000Y17000000D01*
X-9200000Y2400000D02*
X-9200000Y-4000000D01*
X-25000000Y11500000D02*
X-22900000Y9400000D01*
X-25000000Y17000000D02*
X-25000000Y11500000D01*
D32*
%TO.N,Net-(R7-Pad2)*%
X-41000000Y-8166667D02*
X-41000000Y-11500000D01*
X-42000000Y-11500000D02*
X-41000000Y-11500000D01*
X-50000000Y-14500000D02*
X-47499000Y-14500000D01*
X-45998000Y-16001000D02*
X-43501000Y-16001000D01*
X-43501000Y-16001000D02*
X-42400000Y-14900000D01*
X-47499000Y-14500000D02*
X-45998000Y-16001000D01*
X-42400000Y-11900000D02*
X-42000000Y-11500000D01*
X-42400000Y-14900000D02*
X-42400000Y-11900000D01*
%TO.N,/bluesbreaker/sw3*%
X-3160000Y-940000D02*
X-4900000Y-940000D01*
X-1600000Y-6900000D02*
X-2600000Y-5900000D01*
X-2600000Y-5900000D02*
X-2600000Y-1500000D01*
X100000Y-6900000D02*
X-1600000Y-6900000D01*
X-2600000Y-1500000D02*
X-3160000Y-940000D01*
%TO.N,/bluesbreaker-return*%
X45000000Y13500000D02*
X46900000Y15400000D01*
X46900000Y15400000D02*
X51400000Y15400000D01*
X51400000Y15400000D02*
X54200000Y12600000D01*
X39700000Y-17400000D02*
X37800000Y-15500000D01*
X37800000Y-15500000D02*
X33270000Y-15500000D01*
X54200000Y12600000D02*
X54200000Y-14900000D01*
X51700000Y-17400000D02*
X39700000Y-17400000D01*
X33270000Y-15500000D02*
X31270000Y-17500000D01*
X54200000Y-14900000D02*
X51700000Y-17400000D01*
%TO.N,Net-(R24-Pad2)*%
X12900000Y27466667D02*
X12900000Y24800000D01*
%TD*%
M02*
