%TF.GenerationSoftware,KiCad,Pcbnew,9.0.7*%
%TF.CreationDate,2026-04-13T23:47:59-02:30*%
%TF.ProjectId,chris-mang-custom,63687269-732d-46d6-916e-672d63757374,rev?*%
%TF.SameCoordinates,Original*%
%TF.FileFunction,Soldermask,Bot*%
%TF.FilePolarity,Negative*%
%FSLAX46Y46*%
G04 Gerber Fmt 4.6, Leading zero omitted, Abs format (unit mm)*
G04 Created by KiCad (PCBNEW 9.0.7) date 2026-04-13 23:47:59*
%MOMM*%
%LPD*%
G01*
G04 APERTURE LIST*
%ADD10O,4.000000X1.500000*%
%ADD11O,1.500000X4.000000*%
%ADD12C,2.540000*%
%ADD13O,3.000000X1.400000*%
%ADD14O,1.400000X3.000000*%
%ADD15C,1.400000*%
%ADD16O,1.400000X1.400000*%
%ADD17C,1.600000*%
%ADD18R,1.600000X1.600000*%
%ADD19O,1.600000X1.600000*%
%ADD20R,1.700000X1.700000*%
%ADD21O,1.700000X1.700000*%
%ADD22R,1.200000X1.200000*%
%ADD23C,1.200000*%
%ADD24R,2.000000X2.000000*%
%ADD25C,2.000000*%
%ADD26R,1.800000X1.800000*%
%ADD27C,1.800000*%
%ADD28O,3.600000X4.200000*%
%ADD29C,1.500000*%
%ADD30O,3.800000X2.400000*%
G04 APERTURE END LIST*
D10*
%TO.C,J1*%
X0Y29800000D03*
X0Y35800000D03*
D11*
X-4700000Y32800000D03*
%TD*%
D12*
%TO.C,J2*%
X-46250000Y23650000D03*
X-46250000Y30000000D03*
X-46250000Y36350000D03*
X-29750000Y23650000D03*
X-29750000Y30000000D03*
X-29750000Y36350000D03*
%TD*%
%TO.C,J3*%
X29750000Y23650000D03*
X29750000Y30000000D03*
X29750000Y36350000D03*
X46250000Y23650000D03*
X46250000Y30000000D03*
X46250000Y36350000D03*
%TD*%
D13*
%TO.C,G1*%
X49700000Y34500000D03*
D14*
X53000000Y30000000D03*
D13*
X49700000Y25500000D03*
%TD*%
D15*
%TO.C,R11*%
X-41000000Y-4600000D03*
D16*
X-36000000Y-4600000D03*
%TD*%
D17*
%TO.C,C25*%
X37500000Y9600000D03*
X42500000Y9600000D03*
%TD*%
D18*
%TO.C,D8*%
X100000Y5020000D03*
D19*
X-4900000Y5020000D03*
%TD*%
D18*
%TO.C,D5*%
X100000Y10800000D03*
D19*
X-4900000Y10800000D03*
%TD*%
D17*
%TO.C,C28*%
X37600000Y-11100000D03*
X42600000Y-11100000D03*
%TD*%
%TO.C,C3*%
X-50975000Y-2800000D03*
X-45975000Y-2800000D03*
%TD*%
%TO.C,C20*%
X16100000Y-8100000D03*
X21100000Y-8100000D03*
%TD*%
D20*
%TO.C,J5*%
X23650000Y-17500000D03*
D21*
X26190000Y-17500000D03*
X28730000Y-17500000D03*
X31270000Y-17500000D03*
X33810000Y-17500000D03*
X36350000Y-17500000D03*
%TD*%
D18*
%TO.C,D6*%
X100000Y2040000D03*
D19*
X-4900000Y2040000D03*
%TD*%
D15*
%TO.C,R27*%
X11000000Y6942857D03*
D16*
X6000000Y6942857D03*
%TD*%
D22*
%TO.C,C23*%
X19530000Y1400000D03*
D23*
X21030000Y1400000D03*
%TD*%
D18*
%TO.C,C1*%
X-14300000Y37550000D03*
D17*
X-14300000Y40050000D03*
%TD*%
D15*
%TO.C,R33*%
X23900000Y10600000D03*
D16*
X28900000Y10600000D03*
%TD*%
D17*
%TO.C,C10*%
X-19000000Y-2199000D03*
X-24000000Y-2199000D03*
%TD*%
D15*
%TO.C,R12*%
X-41100000Y-1500000D03*
D16*
X-36100000Y-1500000D03*
%TD*%
D15*
%TO.C,R2*%
X-11100000Y25100000D03*
D16*
X-11100000Y30100000D03*
%TD*%
D15*
%TO.C,R13*%
X-24000000Y3942000D03*
D16*
X-19000000Y3942000D03*
%TD*%
D15*
%TO.C,R23*%
X7900000Y16800000D03*
D16*
X12900000Y16800000D03*
%TD*%
D18*
%TO.C,D2*%
X-46100000Y7700000D03*
D19*
X-51100000Y7700000D03*
%TD*%
D15*
%TO.C,R22*%
X12900000Y30133333D03*
D16*
X7900000Y30133333D03*
%TD*%
D17*
%TO.C,C7*%
X-24000000Y-11200000D03*
X-19000000Y-11200000D03*
%TD*%
D22*
%TO.C,C24*%
X32730000Y11700000D03*
D23*
X34230000Y11700000D03*
%TD*%
D15*
%TO.C,R35*%
X47500000Y7700000D03*
D16*
X52500000Y7700000D03*
%TD*%
D15*
%TO.C,R28*%
X11000000Y3985714D03*
D16*
X6000000Y3985714D03*
%TD*%
D15*
%TO.C,R32*%
X24000000Y12800000D03*
D16*
X29000000Y12800000D03*
%TD*%
D15*
%TO.C,R21*%
X12900000Y32800000D03*
D16*
X7900000Y32800000D03*
%TD*%
D24*
%TO.C,RV6*%
X20000000Y-14500000D03*
D25*
X15000000Y-14500000D03*
X10000000Y-14500000D03*
%TD*%
D17*
%TO.C,C17*%
X18600000Y21045000D03*
X23600000Y21045000D03*
%TD*%
%TO.C,C19*%
X18600000Y17300000D03*
X23600000Y17300000D03*
%TD*%
D18*
%TO.C,D7*%
X100000Y8000000D03*
D19*
X-4900000Y8000000D03*
%TD*%
D15*
%TO.C,R37*%
X11000000Y-1928571D03*
D16*
X6000000Y-1928571D03*
%TD*%
D17*
%TO.C,C15*%
X23600000Y32400000D03*
X18600000Y32400000D03*
%TD*%
D26*
%TO.C,RV7*%
X32500000Y-5000000D03*
D27*
X30000000Y-5000000D03*
X27500000Y-5000000D03*
D28*
X25600000Y2000000D03*
X34400000Y2000000D03*
%TD*%
D24*
%TO.C,RV5*%
X20000000Y13500000D03*
D25*
X15000000Y13500000D03*
X10000000Y13500000D03*
%TD*%
D15*
%TO.C,R9*%
X-27500000Y11100000D03*
D16*
X-32500000Y11100000D03*
%TD*%
D15*
%TO.C,R36*%
X52500000Y5400000D03*
D16*
X47500000Y5400000D03*
%TD*%
D17*
%TO.C,C8*%
X-19000000Y-7077000D03*
X-24000000Y-7077000D03*
%TD*%
D18*
%TO.C,D4*%
X-46100000Y10600000D03*
D19*
X-51100000Y10600000D03*
%TD*%
D29*
%TO.C,C26*%
X41250000Y6300000D03*
X38750000Y6300000D03*
%TD*%
D15*
%TO.C,R30*%
X6000000Y-4885714D03*
D16*
X11000000Y-4885714D03*
%TD*%
D29*
%TO.C,C6*%
X-37250000Y10300000D03*
X-39750000Y10300000D03*
%TD*%
D20*
%TO.C,J4*%
X-36350000Y-17500000D03*
D21*
X-33810000Y-17500000D03*
X-31270000Y-17500000D03*
X-28730000Y-17500000D03*
X-26190000Y-17500000D03*
X-23650000Y-17500000D03*
%TD*%
D18*
%TO.C,D3*%
X-46100000Y4800000D03*
D19*
X-51100000Y4800000D03*
%TD*%
D15*
%TO.C,R7*%
X-36000000Y-11500000D03*
D16*
X-41000000Y-11500000D03*
%TD*%
D18*
%TO.C,C30*%
X10800000Y37450000D03*
D17*
X10800000Y39950000D03*
%TD*%
D15*
%TO.C,R26*%
X6000000Y9900000D03*
D16*
X11000000Y9900000D03*
%TD*%
D29*
%TO.C,C34*%
X51250000Y1300000D03*
X48750000Y1300000D03*
%TD*%
D15*
%TO.C,R20*%
X7900000Y19466667D03*
D16*
X12900000Y19466667D03*
%TD*%
D15*
%TO.C,R40*%
X52500000Y-5000000D03*
D16*
X47500000Y-5000000D03*
%TD*%
D15*
%TO.C,R41*%
X47500000Y-2000000D03*
D16*
X52500000Y-2000000D03*
%TD*%
D15*
%TO.C,R5*%
X-27500000Y-8200000D03*
D16*
X-32500000Y-8200000D03*
%TD*%
D18*
%TO.C,D9*%
X100000Y-940000D03*
D19*
X-4900000Y-940000D03*
%TD*%
D24*
%TO.C,RV4*%
X-10000000Y13500000D03*
D25*
X-15000000Y13500000D03*
X-20000000Y13500000D03*
%TD*%
D15*
%TO.C,R39*%
X27500000Y-11200000D03*
D16*
X32500000Y-11200000D03*
%TD*%
D18*
%TO.C,C13*%
X-51500000Y17950000D03*
D17*
X-51500000Y20450000D03*
%TD*%
D24*
%TO.C,RV1*%
X-40000000Y-14500000D03*
D25*
X-45000000Y-14500000D03*
X-50000000Y-14500000D03*
%TD*%
D17*
%TO.C,C22*%
X16100000Y-3800000D03*
X21100000Y-3800000D03*
%TD*%
D22*
%TO.C,C27*%
X50050000Y18400000D03*
D23*
X51550000Y18400000D03*
%TD*%
D18*
%TO.C,SW2*%
X-3810000Y17690000D03*
D19*
X-1270000Y17690000D03*
X1270000Y17690000D03*
X3810000Y17690000D03*
X3810000Y25310000D03*
X1270000Y25310000D03*
X-1270000Y25310000D03*
X-3810000Y25310000D03*
%TD*%
D18*
%TO.C,D11*%
X100000Y-6900000D03*
D19*
X-4900000Y-6900000D03*
%TD*%
D18*
%TO.C,D10*%
X100000Y-3920000D03*
D19*
X-4900000Y-3920000D03*
%TD*%
D18*
%TO.C,C31*%
X21700000Y37450000D03*
D17*
X21700000Y39950000D03*
%TD*%
D15*
%TO.C,R14*%
X-24000000Y1474000D03*
D16*
X-19000000Y1474000D03*
%TD*%
D17*
%TO.C,C16*%
X23600000Y28595000D03*
X18600000Y28595000D03*
%TD*%
D22*
%TO.C,C29*%
X39350000Y-6600000D03*
D23*
X40850000Y-6600000D03*
%TD*%
D24*
%TO.C,RV8*%
X50000000Y13500000D03*
D25*
X45000000Y13500000D03*
X40000000Y13500000D03*
%TD*%
D15*
%TO.C,R24*%
X7900000Y24800000D03*
D16*
X12900000Y24800000D03*
%TD*%
D17*
%TO.C,C5*%
X-50975000Y-11200000D03*
X-45975000Y-11200000D03*
%TD*%
D15*
%TO.C,R15*%
X-9200000Y-4000000D03*
D16*
X-14200000Y-4000000D03*
%TD*%
D18*
%TO.C,C2*%
X-21200000Y37550000D03*
D17*
X-21200000Y40050000D03*
%TD*%
D15*
%TO.C,R16*%
X-9200000Y-6400000D03*
D16*
X-14200000Y-6400000D03*
%TD*%
D15*
%TO.C,R31*%
X32500000Y-8200000D03*
D16*
X27500000Y-8200000D03*
%TD*%
D15*
%TO.C,R3*%
X-9000000Y25100000D03*
D16*
X-9000000Y30100000D03*
%TD*%
D15*
%TO.C,R19*%
X12900000Y22133333D03*
D16*
X7900000Y22133333D03*
%TD*%
D17*
%TO.C,C4*%
X-50975000Y-7000000D03*
X-45975000Y-7000000D03*
%TD*%
%TO.C,C21*%
X16100000Y-11100000D03*
X21100000Y-11100000D03*
%TD*%
D24*
%TO.C,RV2*%
X-40000000Y13500000D03*
D25*
X-45000000Y13500000D03*
X-50000000Y13500000D03*
%TD*%
D24*
%TO.C,RV9*%
X50000000Y-14500000D03*
D25*
X45000000Y-14500000D03*
X40000000Y-14500000D03*
%TD*%
D24*
%TO.C,RV3*%
X-10000000Y-14500000D03*
D25*
X-15000000Y-14500000D03*
X-20000000Y-14500000D03*
%TD*%
D15*
%TO.C,R29*%
X11000000Y1028571D03*
D16*
X6000000Y1028571D03*
%TD*%
D15*
%TO.C,R10*%
X-32500000Y14600000D03*
D16*
X-27500000Y14600000D03*
%TD*%
D15*
%TO.C,R25*%
X7900000Y27466667D03*
D16*
X12900000Y27466667D03*
%TD*%
D29*
%TO.C,C18*%
X19850000Y24790000D03*
X22350000Y24790000D03*
%TD*%
D15*
%TO.C,R8*%
X-41000000Y-8166667D03*
D16*
X-36000000Y-8166667D03*
%TD*%
D15*
%TO.C,R4*%
X-27500000Y-11500000D03*
D16*
X-32500000Y-11500000D03*
%TD*%
D29*
%TO.C,C9*%
X-22850000Y6800000D03*
X-20350000Y6800000D03*
%TD*%
D15*
%TO.C,R34*%
X47500000Y10000000D03*
D16*
X52500000Y10000000D03*
%TD*%
D18*
%TO.C,C12*%
X-51500000Y29450000D03*
D17*
X-51500000Y31950000D03*
%TD*%
D30*
%TO.C,SW1*%
X-30000000Y-2700000D03*
X-30000000Y2000000D03*
X-30000000Y6700000D03*
%TD*%
M02*
