%TF.GenerationSoftware,KiCad,Pcbnew,9.0.7*%
%TF.CreationDate,2026-04-13T23:47:59-02:30*%
%TF.ProjectId,chris-mang-custom,63687269-732d-46d6-916e-672d63757374,rev?*%
%TF.SameCoordinates,Original*%
%TF.FileFunction,Legend,Bot*%
%TF.FilePolarity,Positive*%
%FSLAX46Y46*%
G04 Gerber Fmt 4.6, Leading zero omitted, Abs format (unit mm)*
G04 Created by KiCad (PCBNEW 9.0.7) date 2026-04-13 23:47:59*
%MOMM*%
%LPD*%
G01*
G04 APERTURE LIST*
%ADD10C,0.150000*%
%ADD11C,0.120000*%
%ADD12O,4.000000X1.500000*%
%ADD13O,1.500000X4.000000*%
%ADD14C,2.540000*%
%ADD15O,3.000000X1.400000*%
%ADD16O,1.400000X3.000000*%
%ADD17C,1.400000*%
%ADD18O,1.400000X1.400000*%
%ADD19C,1.600000*%
%ADD20R,1.600000X1.600000*%
%ADD21O,1.600000X1.600000*%
%ADD22R,1.700000X1.700000*%
%ADD23O,1.700000X1.700000*%
%ADD24R,1.200000X1.200000*%
%ADD25C,1.200000*%
%ADD26R,2.000000X2.000000*%
%ADD27C,2.000000*%
%ADD28R,1.800000X1.800000*%
%ADD29C,1.800000*%
%ADD30O,3.600000X4.200000*%
%ADD31C,1.500000*%
%ADD32O,3.800000X2.400000*%
G04 APERTURE END LIST*
D10*
X15595238Y1545180D02*
X15928571Y2021371D01*
X16166666Y1545180D02*
X16166666Y2545180D01*
X16166666Y2545180D02*
X15785714Y2545180D01*
X15785714Y2545180D02*
X15690476Y2497561D01*
X15690476Y2497561D02*
X15642857Y2449942D01*
X15642857Y2449942D02*
X15595238Y2354704D01*
X15595238Y2354704D02*
X15595238Y2211847D01*
X15595238Y2211847D02*
X15642857Y2116609D01*
X15642857Y2116609D02*
X15690476Y2068990D01*
X15690476Y2068990D02*
X15785714Y2021371D01*
X15785714Y2021371D02*
X16166666Y2021371D01*
X15309523Y2545180D02*
X14976190Y1545180D01*
X14976190Y1545180D02*
X14642857Y2545180D01*
X13880952Y2545180D02*
X14071428Y2545180D01*
X14071428Y2545180D02*
X14166666Y2497561D01*
X14166666Y2497561D02*
X14214285Y2449942D01*
X14214285Y2449942D02*
X14309523Y2307085D01*
X14309523Y2307085D02*
X14357142Y2116609D01*
X14357142Y2116609D02*
X14357142Y1735657D01*
X14357142Y1735657D02*
X14309523Y1640419D01*
X14309523Y1640419D02*
X14261904Y1592800D01*
X14261904Y1592800D02*
X14166666Y1545180D01*
X14166666Y1545180D02*
X13976190Y1545180D01*
X13976190Y1545180D02*
X13880952Y1592800D01*
X13880952Y1592800D02*
X13833333Y1640419D01*
X13833333Y1640419D02*
X13785714Y1735657D01*
X13785714Y1735657D02*
X13785714Y1973752D01*
X13785714Y1973752D02*
X13833333Y2068990D01*
X13833333Y2068990D02*
X13880952Y2116609D01*
X13880952Y2116609D02*
X13976190Y2164228D01*
X13976190Y2164228D02*
X14166666Y2164228D01*
X14166666Y2164228D02*
X14261904Y2116609D01*
X14261904Y2116609D02*
X14309523Y2068990D01*
X14309523Y2068990D02*
X14357142Y1973752D01*
X16666666Y-2550057D02*
X16619047Y-2502438D01*
X16619047Y-2502438D02*
X16523809Y-2454819D01*
X16523809Y-2454819D02*
X16285714Y-2454819D01*
X16285714Y-2454819D02*
X16190476Y-2502438D01*
X16190476Y-2502438D02*
X16142857Y-2550057D01*
X16142857Y-2550057D02*
X16095238Y-2645295D01*
X16095238Y-2645295D02*
X16095238Y-2740533D01*
X16095238Y-2740533D02*
X16142857Y-2883390D01*
X16142857Y-2883390D02*
X16714285Y-3454819D01*
X16714285Y-3454819D02*
X16095238Y-3454819D01*
X15190476Y-2454819D02*
X15666666Y-2454819D01*
X15666666Y-2454819D02*
X15714285Y-2931009D01*
X15714285Y-2931009D02*
X15666666Y-2883390D01*
X15666666Y-2883390D02*
X15571428Y-2835771D01*
X15571428Y-2835771D02*
X15333333Y-2835771D01*
X15333333Y-2835771D02*
X15238095Y-2883390D01*
X15238095Y-2883390D02*
X15190476Y-2931009D01*
X15190476Y-2931009D02*
X15142857Y-3026247D01*
X15142857Y-3026247D02*
X15142857Y-3264342D01*
X15142857Y-3264342D02*
X15190476Y-3359580D01*
X15190476Y-3359580D02*
X15238095Y-3407200D01*
X15238095Y-3407200D02*
X15333333Y-3454819D01*
X15333333Y-3454819D02*
X15571428Y-3454819D01*
X15571428Y-3454819D02*
X15666666Y-3407200D01*
X15666666Y-3407200D02*
X15714285Y-3359580D01*
X14714285Y-3454819D02*
X14714285Y-2454819D01*
X14619047Y-3073866D02*
X14333333Y-3454819D01*
X14333333Y-2788152D02*
X14714285Y-3169104D01*
X13571428Y-2931009D02*
X13428571Y-2978628D01*
X13428571Y-2978628D02*
X13380952Y-3026247D01*
X13380952Y-3026247D02*
X13333333Y-3121485D01*
X13333333Y-3121485D02*
X13333333Y-3264342D01*
X13333333Y-3264342D02*
X13380952Y-3359580D01*
X13380952Y-3359580D02*
X13428571Y-3407200D01*
X13428571Y-3407200D02*
X13523809Y-3454819D01*
X13523809Y-3454819D02*
X13904761Y-3454819D01*
X13904761Y-3454819D02*
X13904761Y-2454819D01*
X13904761Y-2454819D02*
X13571428Y-2454819D01*
X13571428Y-2454819D02*
X13476190Y-2502438D01*
X13476190Y-2502438D02*
X13428571Y-2550057D01*
X13428571Y-2550057D02*
X13380952Y-2645295D01*
X13380952Y-2645295D02*
X13380952Y-2740533D01*
X13380952Y-2740533D02*
X13428571Y-2835771D01*
X13428571Y-2835771D02*
X13476190Y-2883390D01*
X13476190Y-2883390D02*
X13571428Y-2931009D01*
X13571428Y-2931009D02*
X13904761Y-2931009D01*
X30595238Y1545180D02*
X30928571Y2021371D01*
X31166666Y1545180D02*
X31166666Y2545180D01*
X31166666Y2545180D02*
X30785714Y2545180D01*
X30785714Y2545180D02*
X30690476Y2497561D01*
X30690476Y2497561D02*
X30642857Y2449942D01*
X30642857Y2449942D02*
X30595238Y2354704D01*
X30595238Y2354704D02*
X30595238Y2211847D01*
X30595238Y2211847D02*
X30642857Y2116609D01*
X30642857Y2116609D02*
X30690476Y2068990D01*
X30690476Y2068990D02*
X30785714Y2021371D01*
X30785714Y2021371D02*
X31166666Y2021371D01*
X30309523Y2545180D02*
X29976190Y1545180D01*
X29976190Y1545180D02*
X29642857Y2545180D01*
X29404761Y2545180D02*
X28738095Y2545180D01*
X28738095Y2545180D02*
X29166666Y1545180D01*
X31500000Y-2354819D02*
X32071428Y-2354819D01*
X31785714Y-2354819D02*
X31785714Y-1354819D01*
X31785714Y-1354819D02*
X31880952Y-1497676D01*
X31880952Y-1497676D02*
X31976190Y-1592914D01*
X31976190Y-1592914D02*
X32071428Y-1640533D01*
X30880952Y-1354819D02*
X30785714Y-1354819D01*
X30785714Y-1354819D02*
X30690476Y-1402438D01*
X30690476Y-1402438D02*
X30642857Y-1450057D01*
X30642857Y-1450057D02*
X30595238Y-1545295D01*
X30595238Y-1545295D02*
X30547619Y-1735771D01*
X30547619Y-1735771D02*
X30547619Y-1973866D01*
X30547619Y-1973866D02*
X30595238Y-2164342D01*
X30595238Y-2164342D02*
X30642857Y-2259580D01*
X30642857Y-2259580D02*
X30690476Y-2307200D01*
X30690476Y-2307200D02*
X30785714Y-2354819D01*
X30785714Y-2354819D02*
X30880952Y-2354819D01*
X30880952Y-2354819D02*
X30976190Y-2307200D01*
X30976190Y-2307200D02*
X31023809Y-2259580D01*
X31023809Y-2259580D02*
X31071428Y-2164342D01*
X31071428Y-2164342D02*
X31119047Y-1973866D01*
X31119047Y-1973866D02*
X31119047Y-1735771D01*
X31119047Y-1735771D02*
X31071428Y-1545295D01*
X31071428Y-1545295D02*
X31023809Y-1450057D01*
X31023809Y-1450057D02*
X30976190Y-1402438D01*
X30976190Y-1402438D02*
X30880952Y-1354819D01*
X29928571Y-1354819D02*
X29833333Y-1354819D01*
X29833333Y-1354819D02*
X29738095Y-1402438D01*
X29738095Y-1402438D02*
X29690476Y-1450057D01*
X29690476Y-1450057D02*
X29642857Y-1545295D01*
X29642857Y-1545295D02*
X29595238Y-1735771D01*
X29595238Y-1735771D02*
X29595238Y-1973866D01*
X29595238Y-1973866D02*
X29642857Y-2164342D01*
X29642857Y-2164342D02*
X29690476Y-2259580D01*
X29690476Y-2259580D02*
X29738095Y-2307200D01*
X29738095Y-2307200D02*
X29833333Y-2354819D01*
X29833333Y-2354819D02*
X29928571Y-2354819D01*
X29928571Y-2354819D02*
X30023809Y-2307200D01*
X30023809Y-2307200D02*
X30071428Y-2259580D01*
X30071428Y-2259580D02*
X30119047Y-2164342D01*
X30119047Y-2164342D02*
X30166666Y-1973866D01*
X30166666Y-1973866D02*
X30166666Y-1735771D01*
X30166666Y-1735771D02*
X30119047Y-1545295D01*
X30119047Y-1545295D02*
X30071428Y-1450057D01*
X30071428Y-1450057D02*
X30023809Y-1402438D01*
X30023809Y-1402438D02*
X29928571Y-1354819D01*
X29166666Y-2354819D02*
X29166666Y-1354819D01*
X29071428Y-1973866D02*
X28785714Y-2354819D01*
X28785714Y-1688152D02*
X29166666Y-2069104D01*
X28404761Y-2069104D02*
X27928571Y-2069104D01*
X28499999Y-2354819D02*
X28166666Y-1354819D01*
X28166666Y-1354819D02*
X27833333Y-2354819D01*
X15595238Y29545180D02*
X15928571Y30021371D01*
X16166666Y29545180D02*
X16166666Y30545180D01*
X16166666Y30545180D02*
X15785714Y30545180D01*
X15785714Y30545180D02*
X15690476Y30497561D01*
X15690476Y30497561D02*
X15642857Y30449942D01*
X15642857Y30449942D02*
X15595238Y30354704D01*
X15595238Y30354704D02*
X15595238Y30211847D01*
X15595238Y30211847D02*
X15642857Y30116609D01*
X15642857Y30116609D02*
X15690476Y30068990D01*
X15690476Y30068990D02*
X15785714Y30021371D01*
X15785714Y30021371D02*
X16166666Y30021371D01*
X15309523Y30545180D02*
X14976190Y29545180D01*
X14976190Y29545180D02*
X14642857Y30545180D01*
X13833333Y30545180D02*
X14309523Y30545180D01*
X14309523Y30545180D02*
X14357142Y30068990D01*
X14357142Y30068990D02*
X14309523Y30116609D01*
X14309523Y30116609D02*
X14214285Y30164228D01*
X14214285Y30164228D02*
X13976190Y30164228D01*
X13976190Y30164228D02*
X13880952Y30116609D01*
X13880952Y30116609D02*
X13833333Y30068990D01*
X13833333Y30068990D02*
X13785714Y29973752D01*
X13785714Y29973752D02*
X13785714Y29735657D01*
X13785714Y29735657D02*
X13833333Y29640419D01*
X13833333Y29640419D02*
X13880952Y29592800D01*
X13880952Y29592800D02*
X13976190Y29545180D01*
X13976190Y29545180D02*
X14214285Y29545180D01*
X14214285Y29545180D02*
X14309523Y29592800D01*
X14309523Y29592800D02*
X14357142Y29640419D01*
X16571428Y24545180D02*
X17142856Y24545180D01*
X16857142Y24545180D02*
X16857142Y25545180D01*
X16857142Y25545180D02*
X16952380Y25402323D01*
X16952380Y25402323D02*
X17047618Y25307085D01*
X17047618Y25307085D02*
X17142856Y25259466D01*
X15952380Y25545180D02*
X15857142Y25545180D01*
X15857142Y25545180D02*
X15761904Y25497561D01*
X15761904Y25497561D02*
X15714285Y25449942D01*
X15714285Y25449942D02*
X15666666Y25354704D01*
X15666666Y25354704D02*
X15619047Y25164228D01*
X15619047Y25164228D02*
X15619047Y24926133D01*
X15619047Y24926133D02*
X15666666Y24735657D01*
X15666666Y24735657D02*
X15714285Y24640419D01*
X15714285Y24640419D02*
X15761904Y24592800D01*
X15761904Y24592800D02*
X15857142Y24545180D01*
X15857142Y24545180D02*
X15952380Y24545180D01*
X15952380Y24545180D02*
X16047618Y24592800D01*
X16047618Y24592800D02*
X16095237Y24640419D01*
X16095237Y24640419D02*
X16142856Y24735657D01*
X16142856Y24735657D02*
X16190475Y24926133D01*
X16190475Y24926133D02*
X16190475Y25164228D01*
X16190475Y25164228D02*
X16142856Y25354704D01*
X16142856Y25354704D02*
X16095237Y25449942D01*
X16095237Y25449942D02*
X16047618Y25497561D01*
X16047618Y25497561D02*
X15952380Y25545180D01*
X14999999Y25545180D02*
X14904761Y25545180D01*
X14904761Y25545180D02*
X14809523Y25497561D01*
X14809523Y25497561D02*
X14761904Y25449942D01*
X14761904Y25449942D02*
X14714285Y25354704D01*
X14714285Y25354704D02*
X14666666Y25164228D01*
X14666666Y25164228D02*
X14666666Y24926133D01*
X14666666Y24926133D02*
X14714285Y24735657D01*
X14714285Y24735657D02*
X14761904Y24640419D01*
X14761904Y24640419D02*
X14809523Y24592800D01*
X14809523Y24592800D02*
X14904761Y24545180D01*
X14904761Y24545180D02*
X14999999Y24545180D01*
X14999999Y24545180D02*
X15095237Y24592800D01*
X15095237Y24592800D02*
X15142856Y24640419D01*
X15142856Y24640419D02*
X15190475Y24735657D01*
X15190475Y24735657D02*
X15238094Y24926133D01*
X15238094Y24926133D02*
X15238094Y25164228D01*
X15238094Y25164228D02*
X15190475Y25354704D01*
X15190475Y25354704D02*
X15142856Y25449942D01*
X15142856Y25449942D02*
X15095237Y25497561D01*
X15095237Y25497561D02*
X14999999Y25545180D01*
X14238094Y24545180D02*
X14238094Y25545180D01*
X14142856Y24926133D02*
X13857142Y24545180D01*
X13857142Y25211847D02*
X14238094Y24830895D01*
X13095237Y25068990D02*
X12952380Y25021371D01*
X12952380Y25021371D02*
X12904761Y24973752D01*
X12904761Y24973752D02*
X12857142Y24878514D01*
X12857142Y24878514D02*
X12857142Y24735657D01*
X12857142Y24735657D02*
X12904761Y24640419D01*
X12904761Y24640419D02*
X12952380Y24592800D01*
X12952380Y24592800D02*
X13047618Y24545180D01*
X13047618Y24545180D02*
X13428570Y24545180D01*
X13428570Y24545180D02*
X13428570Y25545180D01*
X13428570Y25545180D02*
X13095237Y25545180D01*
X13095237Y25545180D02*
X12999999Y25497561D01*
X12999999Y25497561D02*
X12952380Y25449942D01*
X12952380Y25449942D02*
X12904761Y25354704D01*
X12904761Y25354704D02*
X12904761Y25259466D01*
X12904761Y25259466D02*
X12952380Y25164228D01*
X12952380Y25164228D02*
X12999999Y25116609D01*
X12999999Y25116609D02*
X13095237Y25068990D01*
X13095237Y25068990D02*
X13428570Y25068990D01*
X-14404761Y29545180D02*
X-14071428Y30021371D01*
X-13833333Y29545180D02*
X-13833333Y30545180D01*
X-13833333Y30545180D02*
X-14214285Y30545180D01*
X-14214285Y30545180D02*
X-14309523Y30497561D01*
X-14309523Y30497561D02*
X-14357142Y30449942D01*
X-14357142Y30449942D02*
X-14404761Y30354704D01*
X-14404761Y30354704D02*
X-14404761Y30211847D01*
X-14404761Y30211847D02*
X-14357142Y30116609D01*
X-14357142Y30116609D02*
X-14309523Y30068990D01*
X-14309523Y30068990D02*
X-14214285Y30021371D01*
X-14214285Y30021371D02*
X-13833333Y30021371D01*
X-14690476Y30545180D02*
X-15023809Y29545180D01*
X-15023809Y29545180D02*
X-15357142Y30545180D01*
X-16119047Y30211847D02*
X-16119047Y29545180D01*
X-15880952Y30592800D02*
X-15642857Y29878514D01*
X-15642857Y29878514D02*
X-16261904Y29878514D01*
X-13499999Y24545180D02*
X-12928571Y24545180D01*
X-13214285Y24545180D02*
X-13214285Y25545180D01*
X-13214285Y25545180D02*
X-13119047Y25402323D01*
X-13119047Y25402323D02*
X-13023809Y25307085D01*
X-13023809Y25307085D02*
X-12928571Y25259466D01*
X-14119047Y25545180D02*
X-14214285Y25545180D01*
X-14214285Y25545180D02*
X-14309523Y25497561D01*
X-14309523Y25497561D02*
X-14357142Y25449942D01*
X-14357142Y25449942D02*
X-14404761Y25354704D01*
X-14404761Y25354704D02*
X-14452380Y25164228D01*
X-14452380Y25164228D02*
X-14452380Y24926133D01*
X-14452380Y24926133D02*
X-14404761Y24735657D01*
X-14404761Y24735657D02*
X-14357142Y24640419D01*
X-14357142Y24640419D02*
X-14309523Y24592800D01*
X-14309523Y24592800D02*
X-14214285Y24545180D01*
X-14214285Y24545180D02*
X-14119047Y24545180D01*
X-14119047Y24545180D02*
X-14023809Y24592800D01*
X-14023809Y24592800D02*
X-13976190Y24640419D01*
X-13976190Y24640419D02*
X-13928571Y24735657D01*
X-13928571Y24735657D02*
X-13880952Y24926133D01*
X-13880952Y24926133D02*
X-13880952Y25164228D01*
X-13880952Y25164228D02*
X-13928571Y25354704D01*
X-13928571Y25354704D02*
X-13976190Y25449942D01*
X-13976190Y25449942D02*
X-14023809Y25497561D01*
X-14023809Y25497561D02*
X-14119047Y25545180D01*
X-15071428Y25545180D02*
X-15166666Y25545180D01*
X-15166666Y25545180D02*
X-15261904Y25497561D01*
X-15261904Y25497561D02*
X-15309523Y25449942D01*
X-15309523Y25449942D02*
X-15357142Y25354704D01*
X-15357142Y25354704D02*
X-15404761Y25164228D01*
X-15404761Y25164228D02*
X-15404761Y24926133D01*
X-15404761Y24926133D02*
X-15357142Y24735657D01*
X-15357142Y24735657D02*
X-15309523Y24640419D01*
X-15309523Y24640419D02*
X-15261904Y24592800D01*
X-15261904Y24592800D02*
X-15166666Y24545180D01*
X-15166666Y24545180D02*
X-15071428Y24545180D01*
X-15071428Y24545180D02*
X-14976190Y24592800D01*
X-14976190Y24592800D02*
X-14928571Y24640419D01*
X-14928571Y24640419D02*
X-14880952Y24735657D01*
X-14880952Y24735657D02*
X-14833333Y24926133D01*
X-14833333Y24926133D02*
X-14833333Y25164228D01*
X-14833333Y25164228D02*
X-14880952Y25354704D01*
X-14880952Y25354704D02*
X-14928571Y25449942D01*
X-14928571Y25449942D02*
X-14976190Y25497561D01*
X-14976190Y25497561D02*
X-15071428Y25545180D01*
X-15833333Y24545180D02*
X-15833333Y25545180D01*
X-15928571Y24926133D02*
X-16214285Y24545180D01*
X-16214285Y25211847D02*
X-15833333Y24830895D01*
X-16595238Y24830895D02*
X-17071428Y24830895D01*
X-16500000Y24545180D02*
X-16833333Y25545180D01*
X-16833333Y25545180D02*
X-17166666Y24545180D01*
X-44404761Y1545180D02*
X-44071428Y2021371D01*
X-43833333Y1545180D02*
X-43833333Y2545180D01*
X-43833333Y2545180D02*
X-44214285Y2545180D01*
X-44214285Y2545180D02*
X-44309523Y2497561D01*
X-44309523Y2497561D02*
X-44357142Y2449942D01*
X-44357142Y2449942D02*
X-44404761Y2354704D01*
X-44404761Y2354704D02*
X-44404761Y2211847D01*
X-44404761Y2211847D02*
X-44357142Y2116609D01*
X-44357142Y2116609D02*
X-44309523Y2068990D01*
X-44309523Y2068990D02*
X-44214285Y2021371D01*
X-44214285Y2021371D02*
X-43833333Y2021371D01*
X-44690476Y2545180D02*
X-45023809Y1545180D01*
X-45023809Y1545180D02*
X-45357142Y2545180D01*
X-46214285Y1545180D02*
X-45642857Y1545180D01*
X-45928571Y1545180D02*
X-45928571Y2545180D01*
X-45928571Y2545180D02*
X-45833333Y2402323D01*
X-45833333Y2402323D02*
X-45738095Y2307085D01*
X-45738095Y2307085D02*
X-45642857Y2259466D01*
X-43904761Y-3454819D02*
X-43333333Y-3454819D01*
X-43619047Y-3454819D02*
X-43619047Y-2454819D01*
X-43619047Y-2454819D02*
X-43523809Y-2597676D01*
X-43523809Y-2597676D02*
X-43428571Y-2692914D01*
X-43428571Y-2692914D02*
X-43333333Y-2740533D01*
X-44523809Y-2454819D02*
X-44619047Y-2454819D01*
X-44619047Y-2454819D02*
X-44714285Y-2502438D01*
X-44714285Y-2502438D02*
X-44761904Y-2550057D01*
X-44761904Y-2550057D02*
X-44809523Y-2645295D01*
X-44809523Y-2645295D02*
X-44857142Y-2835771D01*
X-44857142Y-2835771D02*
X-44857142Y-3073866D01*
X-44857142Y-3073866D02*
X-44809523Y-3264342D01*
X-44809523Y-3264342D02*
X-44761904Y-3359580D01*
X-44761904Y-3359580D02*
X-44714285Y-3407200D01*
X-44714285Y-3407200D02*
X-44619047Y-3454819D01*
X-44619047Y-3454819D02*
X-44523809Y-3454819D01*
X-44523809Y-3454819D02*
X-44428571Y-3407200D01*
X-44428571Y-3407200D02*
X-44380952Y-3359580D01*
X-44380952Y-3359580D02*
X-44333333Y-3264342D01*
X-44333333Y-3264342D02*
X-44285714Y-3073866D01*
X-44285714Y-3073866D02*
X-44285714Y-2835771D01*
X-44285714Y-2835771D02*
X-44333333Y-2645295D01*
X-44333333Y-2645295D02*
X-44380952Y-2550057D01*
X-44380952Y-2550057D02*
X-44428571Y-2502438D01*
X-44428571Y-2502438D02*
X-44523809Y-2454819D01*
X-45285714Y-3454819D02*
X-45285714Y-2454819D01*
X-45380952Y-3073866D02*
X-45666666Y-3454819D01*
X-45666666Y-2788152D02*
X-45285714Y-3169104D01*
X-46666666Y-3359580D02*
X-46619047Y-3407200D01*
X-46619047Y-3407200D02*
X-46476190Y-3454819D01*
X-46476190Y-3454819D02*
X-46380952Y-3454819D01*
X-46380952Y-3454819D02*
X-46238095Y-3407200D01*
X-46238095Y-3407200D02*
X-46142857Y-3311961D01*
X-46142857Y-3311961D02*
X-46095238Y-3216723D01*
X-46095238Y-3216723D02*
X-46047619Y-3026247D01*
X-46047619Y-3026247D02*
X-46047619Y-2883390D01*
X-46047619Y-2883390D02*
X-46095238Y-2692914D01*
X-46095238Y-2692914D02*
X-46142857Y-2597676D01*
X-46142857Y-2597676D02*
X-46238095Y-2502438D01*
X-46238095Y-2502438D02*
X-46380952Y-2454819D01*
X-46380952Y-2454819D02*
X-46476190Y-2454819D01*
X-46476190Y-2454819D02*
X-46619047Y-2502438D01*
X-46619047Y-2502438D02*
X-46666666Y-2550057D01*
X45595238Y29545180D02*
X45928571Y30021371D01*
X46166666Y29545180D02*
X46166666Y30545180D01*
X46166666Y30545180D02*
X45785714Y30545180D01*
X45785714Y30545180D02*
X45690476Y30497561D01*
X45690476Y30497561D02*
X45642857Y30449942D01*
X45642857Y30449942D02*
X45595238Y30354704D01*
X45595238Y30354704D02*
X45595238Y30211847D01*
X45595238Y30211847D02*
X45642857Y30116609D01*
X45642857Y30116609D02*
X45690476Y30068990D01*
X45690476Y30068990D02*
X45785714Y30021371D01*
X45785714Y30021371D02*
X46166666Y30021371D01*
X45309523Y30545180D02*
X44976190Y29545180D01*
X44976190Y29545180D02*
X44642857Y30545180D01*
X44166666Y30116609D02*
X44261904Y30164228D01*
X44261904Y30164228D02*
X44309523Y30211847D01*
X44309523Y30211847D02*
X44357142Y30307085D01*
X44357142Y30307085D02*
X44357142Y30354704D01*
X44357142Y30354704D02*
X44309523Y30449942D01*
X44309523Y30449942D02*
X44261904Y30497561D01*
X44261904Y30497561D02*
X44166666Y30545180D01*
X44166666Y30545180D02*
X43976190Y30545180D01*
X43976190Y30545180D02*
X43880952Y30497561D01*
X43880952Y30497561D02*
X43833333Y30449942D01*
X43833333Y30449942D02*
X43785714Y30354704D01*
X43785714Y30354704D02*
X43785714Y30307085D01*
X43785714Y30307085D02*
X43833333Y30211847D01*
X43833333Y30211847D02*
X43880952Y30164228D01*
X43880952Y30164228D02*
X43976190Y30116609D01*
X43976190Y30116609D02*
X44166666Y30116609D01*
X44166666Y30116609D02*
X44261904Y30068990D01*
X44261904Y30068990D02*
X44309523Y30021371D01*
X44309523Y30021371D02*
X44357142Y29926133D01*
X44357142Y29926133D02*
X44357142Y29735657D01*
X44357142Y29735657D02*
X44309523Y29640419D01*
X44309523Y29640419D02*
X44261904Y29592800D01*
X44261904Y29592800D02*
X44166666Y29545180D01*
X44166666Y29545180D02*
X43976190Y29545180D01*
X43976190Y29545180D02*
X43880952Y29592800D01*
X43880952Y29592800D02*
X43833333Y29640419D01*
X43833333Y29640419D02*
X43785714Y29735657D01*
X43785714Y29735657D02*
X43785714Y29926133D01*
X43785714Y29926133D02*
X43833333Y30021371D01*
X43833333Y30021371D02*
X43880952Y30068990D01*
X43880952Y30068990D02*
X43976190Y30116609D01*
X46500000Y24545180D02*
X47071428Y24545180D01*
X46785714Y24545180D02*
X46785714Y25545180D01*
X46785714Y25545180D02*
X46880952Y25402323D01*
X46880952Y25402323D02*
X46976190Y25307085D01*
X46976190Y25307085D02*
X47071428Y25259466D01*
X45880952Y25545180D02*
X45785714Y25545180D01*
X45785714Y25545180D02*
X45690476Y25497561D01*
X45690476Y25497561D02*
X45642857Y25449942D01*
X45642857Y25449942D02*
X45595238Y25354704D01*
X45595238Y25354704D02*
X45547619Y25164228D01*
X45547619Y25164228D02*
X45547619Y24926133D01*
X45547619Y24926133D02*
X45595238Y24735657D01*
X45595238Y24735657D02*
X45642857Y24640419D01*
X45642857Y24640419D02*
X45690476Y24592800D01*
X45690476Y24592800D02*
X45785714Y24545180D01*
X45785714Y24545180D02*
X45880952Y24545180D01*
X45880952Y24545180D02*
X45976190Y24592800D01*
X45976190Y24592800D02*
X46023809Y24640419D01*
X46023809Y24640419D02*
X46071428Y24735657D01*
X46071428Y24735657D02*
X46119047Y24926133D01*
X46119047Y24926133D02*
X46119047Y25164228D01*
X46119047Y25164228D02*
X46071428Y25354704D01*
X46071428Y25354704D02*
X46023809Y25449942D01*
X46023809Y25449942D02*
X45976190Y25497561D01*
X45976190Y25497561D02*
X45880952Y25545180D01*
X44928571Y25545180D02*
X44833333Y25545180D01*
X44833333Y25545180D02*
X44738095Y25497561D01*
X44738095Y25497561D02*
X44690476Y25449942D01*
X44690476Y25449942D02*
X44642857Y25354704D01*
X44642857Y25354704D02*
X44595238Y25164228D01*
X44595238Y25164228D02*
X44595238Y24926133D01*
X44595238Y24926133D02*
X44642857Y24735657D01*
X44642857Y24735657D02*
X44690476Y24640419D01*
X44690476Y24640419D02*
X44738095Y24592800D01*
X44738095Y24592800D02*
X44833333Y24545180D01*
X44833333Y24545180D02*
X44928571Y24545180D01*
X44928571Y24545180D02*
X45023809Y24592800D01*
X45023809Y24592800D02*
X45071428Y24640419D01*
X45071428Y24640419D02*
X45119047Y24735657D01*
X45119047Y24735657D02*
X45166666Y24926133D01*
X45166666Y24926133D02*
X45166666Y25164228D01*
X45166666Y25164228D02*
X45119047Y25354704D01*
X45119047Y25354704D02*
X45071428Y25449942D01*
X45071428Y25449942D02*
X45023809Y25497561D01*
X45023809Y25497561D02*
X44928571Y25545180D01*
X44166666Y24545180D02*
X44166666Y25545180D01*
X44071428Y24926133D02*
X43785714Y24545180D01*
X43785714Y25211847D02*
X44166666Y24830895D01*
X43404761Y24830895D02*
X42928571Y24830895D01*
X43499999Y24545180D02*
X43166666Y25545180D01*
X43166666Y25545180D02*
X42833333Y24545180D01*
X-44404761Y29545180D02*
X-44071428Y30021371D01*
X-43833333Y29545180D02*
X-43833333Y30545180D01*
X-43833333Y30545180D02*
X-44214285Y30545180D01*
X-44214285Y30545180D02*
X-44309523Y30497561D01*
X-44309523Y30497561D02*
X-44357142Y30449942D01*
X-44357142Y30449942D02*
X-44404761Y30354704D01*
X-44404761Y30354704D02*
X-44404761Y30211847D01*
X-44404761Y30211847D02*
X-44357142Y30116609D01*
X-44357142Y30116609D02*
X-44309523Y30068990D01*
X-44309523Y30068990D02*
X-44214285Y30021371D01*
X-44214285Y30021371D02*
X-43833333Y30021371D01*
X-44690476Y30545180D02*
X-45023809Y29545180D01*
X-45023809Y29545180D02*
X-45357142Y30545180D01*
X-45642857Y30449942D02*
X-45690476Y30497561D01*
X-45690476Y30497561D02*
X-45785714Y30545180D01*
X-45785714Y30545180D02*
X-46023809Y30545180D01*
X-46023809Y30545180D02*
X-46119047Y30497561D01*
X-46119047Y30497561D02*
X-46166666Y30449942D01*
X-46166666Y30449942D02*
X-46214285Y30354704D01*
X-46214285Y30354704D02*
X-46214285Y30259466D01*
X-46214285Y30259466D02*
X-46166666Y30116609D01*
X-46166666Y30116609D02*
X-45595238Y29545180D01*
X-45595238Y29545180D02*
X-46214285Y29545180D01*
X-44285714Y24545180D02*
X-43714286Y24545180D01*
X-44000000Y24545180D02*
X-44000000Y25545180D01*
X-44000000Y25545180D02*
X-43904762Y25402323D01*
X-43904762Y25402323D02*
X-43809524Y25307085D01*
X-43809524Y25307085D02*
X-43714286Y25259466D01*
X-44714286Y24545180D02*
X-44714286Y25545180D01*
X-44714286Y25545180D02*
X-45047619Y24830895D01*
X-45047619Y24830895D02*
X-45380952Y25545180D01*
X-45380952Y25545180D02*
X-45380952Y24545180D01*
X-45809524Y24830895D02*
X-46285714Y24830895D01*
X-45714286Y24545180D02*
X-46047619Y25545180D01*
X-46047619Y25545180D02*
X-46380952Y24545180D01*
X45595238Y1545180D02*
X45928571Y2021371D01*
X46166666Y1545180D02*
X46166666Y2545180D01*
X46166666Y2545180D02*
X45785714Y2545180D01*
X45785714Y2545180D02*
X45690476Y2497561D01*
X45690476Y2497561D02*
X45642857Y2449942D01*
X45642857Y2449942D02*
X45595238Y2354704D01*
X45595238Y2354704D02*
X45595238Y2211847D01*
X45595238Y2211847D02*
X45642857Y2116609D01*
X45642857Y2116609D02*
X45690476Y2068990D01*
X45690476Y2068990D02*
X45785714Y2021371D01*
X45785714Y2021371D02*
X46166666Y2021371D01*
X45309523Y2545180D02*
X44976190Y1545180D01*
X44976190Y1545180D02*
X44642857Y2545180D01*
X44261904Y1545180D02*
X44071428Y1545180D01*
X44071428Y1545180D02*
X43976190Y1592800D01*
X43976190Y1592800D02*
X43928571Y1640419D01*
X43928571Y1640419D02*
X43833333Y1783276D01*
X43833333Y1783276D02*
X43785714Y1973752D01*
X43785714Y1973752D02*
X43785714Y2354704D01*
X43785714Y2354704D02*
X43833333Y2449942D01*
X43833333Y2449942D02*
X43880952Y2497561D01*
X43880952Y2497561D02*
X43976190Y2545180D01*
X43976190Y2545180D02*
X44166666Y2545180D01*
X44166666Y2545180D02*
X44261904Y2497561D01*
X44261904Y2497561D02*
X44309523Y2449942D01*
X44309523Y2449942D02*
X44357142Y2354704D01*
X44357142Y2354704D02*
X44357142Y2116609D01*
X44357142Y2116609D02*
X44309523Y2021371D01*
X44309523Y2021371D02*
X44261904Y1973752D01*
X44261904Y1973752D02*
X44166666Y1926133D01*
X44166666Y1926133D02*
X43976190Y1926133D01*
X43976190Y1926133D02*
X43880952Y1973752D01*
X43880952Y1973752D02*
X43833333Y2021371D01*
X43833333Y2021371D02*
X43785714Y2116609D01*
X46500000Y-3454819D02*
X47071428Y-3454819D01*
X46785714Y-3454819D02*
X46785714Y-2454819D01*
X46785714Y-2454819D02*
X46880952Y-2597676D01*
X46880952Y-2597676D02*
X46976190Y-2692914D01*
X46976190Y-2692914D02*
X47071428Y-2740533D01*
X45880952Y-2454819D02*
X45785714Y-2454819D01*
X45785714Y-2454819D02*
X45690476Y-2502438D01*
X45690476Y-2502438D02*
X45642857Y-2550057D01*
X45642857Y-2550057D02*
X45595238Y-2645295D01*
X45595238Y-2645295D02*
X45547619Y-2835771D01*
X45547619Y-2835771D02*
X45547619Y-3073866D01*
X45547619Y-3073866D02*
X45595238Y-3264342D01*
X45595238Y-3264342D02*
X45642857Y-3359580D01*
X45642857Y-3359580D02*
X45690476Y-3407200D01*
X45690476Y-3407200D02*
X45785714Y-3454819D01*
X45785714Y-3454819D02*
X45880952Y-3454819D01*
X45880952Y-3454819D02*
X45976190Y-3407200D01*
X45976190Y-3407200D02*
X46023809Y-3359580D01*
X46023809Y-3359580D02*
X46071428Y-3264342D01*
X46071428Y-3264342D02*
X46119047Y-3073866D01*
X46119047Y-3073866D02*
X46119047Y-2835771D01*
X46119047Y-2835771D02*
X46071428Y-2645295D01*
X46071428Y-2645295D02*
X46023809Y-2550057D01*
X46023809Y-2550057D02*
X45976190Y-2502438D01*
X45976190Y-2502438D02*
X45880952Y-2454819D01*
X44928571Y-2454819D02*
X44833333Y-2454819D01*
X44833333Y-2454819D02*
X44738095Y-2502438D01*
X44738095Y-2502438D02*
X44690476Y-2550057D01*
X44690476Y-2550057D02*
X44642857Y-2645295D01*
X44642857Y-2645295D02*
X44595238Y-2835771D01*
X44595238Y-2835771D02*
X44595238Y-3073866D01*
X44595238Y-3073866D02*
X44642857Y-3264342D01*
X44642857Y-3264342D02*
X44690476Y-3359580D01*
X44690476Y-3359580D02*
X44738095Y-3407200D01*
X44738095Y-3407200D02*
X44833333Y-3454819D01*
X44833333Y-3454819D02*
X44928571Y-3454819D01*
X44928571Y-3454819D02*
X45023809Y-3407200D01*
X45023809Y-3407200D02*
X45071428Y-3359580D01*
X45071428Y-3359580D02*
X45119047Y-3264342D01*
X45119047Y-3264342D02*
X45166666Y-3073866D01*
X45166666Y-3073866D02*
X45166666Y-2835771D01*
X45166666Y-2835771D02*
X45119047Y-2645295D01*
X45119047Y-2645295D02*
X45071428Y-2550057D01*
X45071428Y-2550057D02*
X45023809Y-2502438D01*
X45023809Y-2502438D02*
X44928571Y-2454819D01*
X44166666Y-3454819D02*
X44166666Y-2454819D01*
X44071428Y-3073866D02*
X43785714Y-3454819D01*
X43785714Y-2788152D02*
X44166666Y-3169104D01*
X43404761Y-3169104D02*
X42928571Y-3169104D01*
X43499999Y-3454819D02*
X43166666Y-2454819D01*
X43166666Y-2454819D02*
X42833333Y-3454819D01*
X-14404761Y1545180D02*
X-14071428Y2021371D01*
X-13833333Y1545180D02*
X-13833333Y2545180D01*
X-13833333Y2545180D02*
X-14214285Y2545180D01*
X-14214285Y2545180D02*
X-14309523Y2497561D01*
X-14309523Y2497561D02*
X-14357142Y2449942D01*
X-14357142Y2449942D02*
X-14404761Y2354704D01*
X-14404761Y2354704D02*
X-14404761Y2211847D01*
X-14404761Y2211847D02*
X-14357142Y2116609D01*
X-14357142Y2116609D02*
X-14309523Y2068990D01*
X-14309523Y2068990D02*
X-14214285Y2021371D01*
X-14214285Y2021371D02*
X-13833333Y2021371D01*
X-14690476Y2545180D02*
X-15023809Y1545180D01*
X-15023809Y1545180D02*
X-15357142Y2545180D01*
X-15595238Y2545180D02*
X-16214285Y2545180D01*
X-16214285Y2545180D02*
X-15880952Y2164228D01*
X-15880952Y2164228D02*
X-16023809Y2164228D01*
X-16023809Y2164228D02*
X-16119047Y2116609D01*
X-16119047Y2116609D02*
X-16166666Y2068990D01*
X-16166666Y2068990D02*
X-16214285Y1973752D01*
X-16214285Y1973752D02*
X-16214285Y1735657D01*
X-16214285Y1735657D02*
X-16166666Y1640419D01*
X-16166666Y1640419D02*
X-16119047Y1592800D01*
X-16119047Y1592800D02*
X-16023809Y1545180D01*
X-16023809Y1545180D02*
X-15738095Y1545180D01*
X-15738095Y1545180D02*
X-15642857Y1592800D01*
X-15642857Y1592800D02*
X-15595238Y1640419D01*
X-13857142Y-2454819D02*
X-13380952Y-2454819D01*
X-13380952Y-2454819D02*
X-13333333Y-2931009D01*
X-13333333Y-2931009D02*
X-13380952Y-2883390D01*
X-13380952Y-2883390D02*
X-13476190Y-2835771D01*
X-13476190Y-2835771D02*
X-13714285Y-2835771D01*
X-13714285Y-2835771D02*
X-13809523Y-2883390D01*
X-13809523Y-2883390D02*
X-13857142Y-2931009D01*
X-13857142Y-2931009D02*
X-13904761Y-3026247D01*
X-13904761Y-3026247D02*
X-13904761Y-3264342D01*
X-13904761Y-3264342D02*
X-13857142Y-3359580D01*
X-13857142Y-3359580D02*
X-13809523Y-3407200D01*
X-13809523Y-3407200D02*
X-13714285Y-3454819D01*
X-13714285Y-3454819D02*
X-13476190Y-3454819D01*
X-13476190Y-3454819D02*
X-13380952Y-3407200D01*
X-13380952Y-3407200D02*
X-13333333Y-3359580D01*
X-14523809Y-2454819D02*
X-14619047Y-2454819D01*
X-14619047Y-2454819D02*
X-14714285Y-2502438D01*
X-14714285Y-2502438D02*
X-14761904Y-2550057D01*
X-14761904Y-2550057D02*
X-14809523Y-2645295D01*
X-14809523Y-2645295D02*
X-14857142Y-2835771D01*
X-14857142Y-2835771D02*
X-14857142Y-3073866D01*
X-14857142Y-3073866D02*
X-14809523Y-3264342D01*
X-14809523Y-3264342D02*
X-14761904Y-3359580D01*
X-14761904Y-3359580D02*
X-14714285Y-3407200D01*
X-14714285Y-3407200D02*
X-14619047Y-3454819D01*
X-14619047Y-3454819D02*
X-14523809Y-3454819D01*
X-14523809Y-3454819D02*
X-14428571Y-3407200D01*
X-14428571Y-3407200D02*
X-14380952Y-3359580D01*
X-14380952Y-3359580D02*
X-14333333Y-3264342D01*
X-14333333Y-3264342D02*
X-14285714Y-3073866D01*
X-14285714Y-3073866D02*
X-14285714Y-2835771D01*
X-14285714Y-2835771D02*
X-14333333Y-2645295D01*
X-14333333Y-2645295D02*
X-14380952Y-2550057D01*
X-14380952Y-2550057D02*
X-14428571Y-2502438D01*
X-14428571Y-2502438D02*
X-14523809Y-2454819D01*
X-15285714Y-3454819D02*
X-15285714Y-2454819D01*
X-15380952Y-3073866D02*
X-15666666Y-3454819D01*
X-15666666Y-2788152D02*
X-15285714Y-3169104D01*
X-16428571Y-2931009D02*
X-16571428Y-2978628D01*
X-16571428Y-2978628D02*
X-16619047Y-3026247D01*
X-16619047Y-3026247D02*
X-16666666Y-3121485D01*
X-16666666Y-3121485D02*
X-16666666Y-3264342D01*
X-16666666Y-3264342D02*
X-16619047Y-3359580D01*
X-16619047Y-3359580D02*
X-16571428Y-3407200D01*
X-16571428Y-3407200D02*
X-16476190Y-3454819D01*
X-16476190Y-3454819D02*
X-16095238Y-3454819D01*
X-16095238Y-3454819D02*
X-16095238Y-2454819D01*
X-16095238Y-2454819D02*
X-16428571Y-2454819D01*
X-16428571Y-2454819D02*
X-16523809Y-2502438D01*
X-16523809Y-2502438D02*
X-16571428Y-2550057D01*
X-16571428Y-2550057D02*
X-16619047Y-2645295D01*
X-16619047Y-2645295D02*
X-16619047Y-2740533D01*
X-16619047Y-2740533D02*
X-16571428Y-2835771D01*
X-16571428Y-2835771D02*
X-16523809Y-2883390D01*
X-16523809Y-2883390D02*
X-16428571Y-2931009D01*
X-16428571Y-2931009D02*
X-16095238Y-2931009D01*
X-28666667Y-693200D02*
X-28809524Y-740819D01*
X-28809524Y-740819D02*
X-29047619Y-740819D01*
X-29047619Y-740819D02*
X-29142857Y-693200D01*
X-29142857Y-693200D02*
X-29190476Y-645580D01*
X-29190476Y-645580D02*
X-29238095Y-550342D01*
X-29238095Y-550342D02*
X-29238095Y-455104D01*
X-29238095Y-455104D02*
X-29190476Y-359866D01*
X-29190476Y-359866D02*
X-29142857Y-312247D01*
X-29142857Y-312247D02*
X-29047619Y-264628D01*
X-29047619Y-264628D02*
X-28857143Y-217009D01*
X-28857143Y-217009D02*
X-28761905Y-169390D01*
X-28761905Y-169390D02*
X-28714286Y-121771D01*
X-28714286Y-121771D02*
X-28666667Y-26533D01*
X-28666667Y-26533D02*
X-28666667Y68704D01*
X-28666667Y68704D02*
X-28714286Y163942D01*
X-28714286Y163942D02*
X-28761905Y211561D01*
X-28761905Y211561D02*
X-28857143Y259180D01*
X-28857143Y259180D02*
X-29095238Y259180D01*
X-29095238Y259180D02*
X-29238095Y211561D01*
X-29571429Y259180D02*
X-29809524Y-740819D01*
X-29809524Y-740819D02*
X-30000000Y-26533D01*
X-30000000Y-26533D02*
X-30190476Y-740819D01*
X-30190476Y-740819D02*
X-30428572Y259180D01*
X-31333333Y-740819D02*
X-30761905Y-740819D01*
X-31047619Y-740819D02*
X-31047619Y259180D01*
X-31047619Y259180D02*
X-30952381Y116323D01*
X-30952381Y116323D02*
X-30857143Y21085D01*
X-30857143Y21085D02*
X-30761905Y-26533D01*
D11*
%TO.C,RV6*%
X7400000Y-10000000D02*
X7400000Y-4000000D01*
X7400000Y-10000000D02*
X22500000Y-10000000D01*
X8100000Y-3300000D02*
X7400000Y-4000000D01*
X8100000Y-14500000D02*
X8100000Y-10000000D01*
X8100000Y-14500000D02*
X11900000Y-14500000D01*
X11900000Y-14500000D02*
X11900000Y-10000000D01*
X13100000Y-14500000D02*
X13100000Y-10000000D01*
X13100000Y-14500000D02*
X16900000Y-14500000D01*
X16900000Y-14500000D02*
X16900000Y-10000000D01*
X18100000Y-14500000D02*
X18100000Y-10000000D01*
X18100000Y-14500000D02*
X21900000Y-14500000D01*
X21900000Y-14500000D02*
X21900000Y-10000000D01*
X22500000Y-10000000D02*
X22600000Y-10000000D01*
X22600000Y-4000000D02*
X21900000Y-3300000D01*
X22600000Y-10000000D02*
X22600000Y-4000000D01*
X18175000Y2000000D02*
G75*
G02*
X11825000Y2000000I-3175000J0D01*
G01*
X11825000Y2000000D02*
G75*
G02*
X18175000Y2000000I3175000J0D01*
G01*
X23500000Y2000000D02*
G75*
G02*
X6500000Y2000000I-8500000J0D01*
G01*
X6500000Y2000000D02*
G75*
G02*
X23500000Y2000000I8500000J0D01*
G01*
%TO.C,RV7*%
X25100000Y7200000D02*
X25100000Y4200000D01*
X25100000Y-5000000D02*
X25100000Y-200000D01*
X25100000Y-5000000D02*
X26500000Y-5000000D01*
X25400000Y7500000D02*
X25100000Y7200000D01*
X25400000Y7500000D02*
X34600000Y7500000D01*
X34600000Y7500000D02*
X34900000Y7200000D01*
X34900000Y7200000D02*
X34900000Y4200000D01*
X34900000Y-200000D02*
X34900000Y-5000000D01*
X34900000Y-5000000D02*
X33500000Y-5000000D01*
X27210176Y3240122D02*
G75*
G02*
X32784081Y3252117I2789824J-1328489D01*
G01*
X32776526Y761488D02*
G75*
G02*
X27202621Y749493I-2789824J1328489D01*
G01*
%TO.C,RV5*%
X7400000Y18000000D02*
X7400000Y24000000D01*
X7400000Y18000000D02*
X22500000Y18000000D01*
X8100000Y24700000D02*
X7400000Y24000000D01*
X8100000Y13500000D02*
X8100000Y18000000D01*
X8100000Y13500000D02*
X11900000Y13500000D01*
X11900000Y13500000D02*
X11900000Y18000000D01*
X13100000Y13500000D02*
X13100000Y18000000D01*
X13100000Y13500000D02*
X16900000Y13500000D01*
X16900000Y13500000D02*
X16900000Y18000000D01*
X18100000Y13500000D02*
X18100000Y18000000D01*
X18100000Y13500000D02*
X21900000Y13500000D01*
X21900000Y13500000D02*
X21900000Y18000000D01*
X22500000Y18000000D02*
X22600000Y18000000D01*
X22600000Y24000000D02*
X21900000Y24700000D01*
X22600000Y18000000D02*
X22600000Y24000000D01*
X18175000Y30000000D02*
G75*
G02*
X11825000Y30000000I-3175000J0D01*
G01*
X11825000Y30000000D02*
G75*
G02*
X18175000Y30000000I3175000J0D01*
G01*
X23500000Y30000000D02*
G75*
G02*
X6500000Y30000000I-8500000J0D01*
G01*
X6500000Y30000000D02*
G75*
G02*
X23500000Y30000000I8500000J0D01*
G01*
%TO.C,RV4*%
X-22600000Y18000000D02*
X-22600000Y24000000D01*
X-22600000Y18000000D02*
X-7500000Y18000000D01*
X-21900000Y24700000D02*
X-22600000Y24000000D01*
X-21900000Y13500000D02*
X-21900000Y18000000D01*
X-21900000Y13500000D02*
X-18100000Y13500000D01*
X-18100000Y13500000D02*
X-18100000Y18000000D01*
X-16900000Y13500000D02*
X-16900000Y18000000D01*
X-16900000Y13500000D02*
X-13100000Y13500000D01*
X-13100000Y13500000D02*
X-13100000Y18000000D01*
X-11900000Y13500000D02*
X-11900000Y18000000D01*
X-11900000Y13500000D02*
X-8100000Y13500000D01*
X-8100000Y13500000D02*
X-8100000Y18000000D01*
X-7500000Y18000000D02*
X-7400000Y18000000D01*
X-7400000Y24000000D02*
X-8100000Y24700000D01*
X-7400000Y18000000D02*
X-7400000Y24000000D01*
X-11825000Y30000000D02*
G75*
G02*
X-18175000Y30000000I-3175000J0D01*
G01*
X-18175000Y30000000D02*
G75*
G02*
X-11825000Y30000000I3175000J0D01*
G01*
X-6500000Y30000000D02*
G75*
G02*
X-23500000Y30000000I-8500000J0D01*
G01*
X-23500000Y30000000D02*
G75*
G02*
X-6500000Y30000000I8500000J0D01*
G01*
%TO.C,RV1*%
X-52600000Y-10000000D02*
X-52600000Y-4000000D01*
X-52600000Y-10000000D02*
X-37500000Y-10000000D01*
X-51900000Y-3300000D02*
X-52600000Y-4000000D01*
X-51900000Y-14500000D02*
X-51900000Y-10000000D01*
X-51900000Y-14500000D02*
X-48100000Y-14500000D01*
X-48100000Y-14500000D02*
X-48100000Y-10000000D01*
X-46900000Y-14500000D02*
X-46900000Y-10000000D01*
X-46900000Y-14500000D02*
X-43100000Y-14500000D01*
X-43100000Y-14500000D02*
X-43100000Y-10000000D01*
X-41900000Y-14500000D02*
X-41900000Y-10000000D01*
X-41900000Y-14500000D02*
X-38100000Y-14500000D01*
X-38100000Y-14500000D02*
X-38100000Y-10000000D01*
X-37500000Y-10000000D02*
X-37400000Y-10000000D01*
X-37400000Y-4000000D02*
X-38100000Y-3300000D01*
X-37400000Y-10000000D02*
X-37400000Y-4000000D01*
X-41825000Y2000000D02*
G75*
G02*
X-48175000Y2000000I-3175000J0D01*
G01*
X-48175000Y2000000D02*
G75*
G02*
X-41825000Y2000000I3175000J0D01*
G01*
X-36500000Y2000000D02*
G75*
G02*
X-53500000Y2000000I-8500000J0D01*
G01*
X-53500000Y2000000D02*
G75*
G02*
X-36500000Y2000000I8500000J0D01*
G01*
%TO.C,RV8*%
X37400000Y18000000D02*
X37400000Y24000000D01*
X37400000Y18000000D02*
X52500000Y18000000D01*
X38100000Y24700000D02*
X37400000Y24000000D01*
X38100000Y13500000D02*
X38100000Y18000000D01*
X38100000Y13500000D02*
X41900000Y13500000D01*
X41900000Y13500000D02*
X41900000Y18000000D01*
X43100000Y13500000D02*
X43100000Y18000000D01*
X43100000Y13500000D02*
X46900000Y13500000D01*
X46900000Y13500000D02*
X46900000Y18000000D01*
X48100000Y13500000D02*
X48100000Y18000000D01*
X48100000Y13500000D02*
X51900000Y13500000D01*
X51900000Y13500000D02*
X51900000Y18000000D01*
X52500000Y18000000D02*
X52600000Y18000000D01*
X52600000Y24000000D02*
X51900000Y24700000D01*
X52600000Y18000000D02*
X52600000Y24000000D01*
X48175000Y30000000D02*
G75*
G02*
X41825000Y30000000I-3175000J0D01*
G01*
X41825000Y30000000D02*
G75*
G02*
X48175000Y30000000I3175000J0D01*
G01*
X53500000Y30000000D02*
G75*
G02*
X36500000Y30000000I-8500000J0D01*
G01*
X36500000Y30000000D02*
G75*
G02*
X53500000Y30000000I8500000J0D01*
G01*
%TO.C,RV2*%
X-52600000Y18000000D02*
X-52600000Y24000000D01*
X-52600000Y18000000D02*
X-37500000Y18000000D01*
X-51900000Y24700000D02*
X-52600000Y24000000D01*
X-51900000Y13500000D02*
X-51900000Y18000000D01*
X-51900000Y13500000D02*
X-48100000Y13500000D01*
X-48100000Y13500000D02*
X-48100000Y18000000D01*
X-46900000Y13500000D02*
X-46900000Y18000000D01*
X-46900000Y13500000D02*
X-43100000Y13500000D01*
X-43100000Y13500000D02*
X-43100000Y18000000D01*
X-41900000Y13500000D02*
X-41900000Y18000000D01*
X-41900000Y13500000D02*
X-38100000Y13500000D01*
X-38100000Y13500000D02*
X-38100000Y18000000D01*
X-37500000Y18000000D02*
X-37400000Y18000000D01*
X-37400000Y24000000D02*
X-38100000Y24700000D01*
X-37400000Y18000000D02*
X-37400000Y24000000D01*
X-41825000Y30000000D02*
G75*
G02*
X-48175000Y30000000I-3175000J0D01*
G01*
X-48175000Y30000000D02*
G75*
G02*
X-41825000Y30000000I3175000J0D01*
G01*
X-36500000Y30000000D02*
G75*
G02*
X-53500000Y30000000I-8500000J0D01*
G01*
X-53500000Y30000000D02*
G75*
G02*
X-36500000Y30000000I8500000J0D01*
G01*
%TO.C,RV9*%
X37400000Y-10000000D02*
X37400000Y-4000000D01*
X37400000Y-10000000D02*
X52500000Y-10000000D01*
X38100000Y-3300000D02*
X37400000Y-4000000D01*
X38100000Y-14500000D02*
X38100000Y-10000000D01*
X38100000Y-14500000D02*
X41900000Y-14500000D01*
X41900000Y-14500000D02*
X41900000Y-10000000D01*
X43100000Y-14500000D02*
X43100000Y-10000000D01*
X43100000Y-14500000D02*
X46900000Y-14500000D01*
X46900000Y-14500000D02*
X46900000Y-10000000D01*
X48100000Y-14500000D02*
X48100000Y-10000000D01*
X48100000Y-14500000D02*
X51900000Y-14500000D01*
X51900000Y-14500000D02*
X51900000Y-10000000D01*
X52500000Y-10000000D02*
X52600000Y-10000000D01*
X52600000Y-4000000D02*
X51900000Y-3300000D01*
X52600000Y-10000000D02*
X52600000Y-4000000D01*
X48175000Y2000000D02*
G75*
G02*
X41825000Y2000000I-3175000J0D01*
G01*
X41825000Y2000000D02*
G75*
G02*
X48175000Y2000000I3175000J0D01*
G01*
X53500000Y2000000D02*
G75*
G02*
X36500000Y2000000I-8500000J0D01*
G01*
X36500000Y2000000D02*
G75*
G02*
X53500000Y2000000I8500000J0D01*
G01*
%TO.C,RV3*%
X-22600000Y-10000000D02*
X-22600000Y-4000000D01*
X-22600000Y-10000000D02*
X-7500000Y-10000000D01*
X-21900000Y-3300000D02*
X-22600000Y-4000000D01*
X-21900000Y-14500000D02*
X-21900000Y-10000000D01*
X-21900000Y-14500000D02*
X-18100000Y-14500000D01*
X-18100000Y-14500000D02*
X-18100000Y-10000000D01*
X-16900000Y-14500000D02*
X-16900000Y-10000000D01*
X-16900000Y-14500000D02*
X-13100000Y-14500000D01*
X-13100000Y-14500000D02*
X-13100000Y-10000000D01*
X-11900000Y-14500000D02*
X-11900000Y-10000000D01*
X-11900000Y-14500000D02*
X-8100000Y-14500000D01*
X-8100000Y-14500000D02*
X-8100000Y-10000000D01*
X-7500000Y-10000000D02*
X-7400000Y-10000000D01*
X-7400000Y-4000000D02*
X-8100000Y-3300000D01*
X-7400000Y-10000000D02*
X-7400000Y-4000000D01*
X-11825000Y2000000D02*
G75*
G02*
X-18175000Y2000000I-3175000J0D01*
G01*
X-18175000Y2000000D02*
G75*
G02*
X-11825000Y2000000I3175000J0D01*
G01*
X-6500000Y2000000D02*
G75*
G02*
X-23500000Y2000000I-8500000J0D01*
G01*
X-23500000Y2000000D02*
G75*
G02*
X-6500000Y2000000I8500000J0D01*
G01*
D10*
%TO.C,SW1*%
X-32500000Y8500000D02*
X-28350000Y8500000D01*
X-32500000Y-4500000D02*
X-32500000Y8500000D01*
X-28350000Y8500000D02*
X-27500000Y7650000D01*
X-27500000Y7650000D02*
X-27500000Y-4500000D01*
X-27500000Y-4500000D02*
X-32500000Y-4500000D01*
%TD*%
%LPC*%
D12*
%TO.C,J1*%
X0Y29800000D03*
X0Y35800000D03*
D13*
X-4700000Y32800000D03*
%TD*%
D14*
%TO.C,J2*%
X-46250000Y23650000D03*
X-46250000Y30000000D03*
X-46250000Y36350000D03*
X-29750000Y23650000D03*
X-29750000Y30000000D03*
X-29750000Y36350000D03*
%TD*%
%TO.C,J3*%
X29750000Y23650000D03*
X29750000Y30000000D03*
X29750000Y36350000D03*
X46250000Y23650000D03*
X46250000Y30000000D03*
X46250000Y36350000D03*
%TD*%
D15*
%TO.C,G1*%
X49700000Y34500000D03*
D16*
X53000000Y30000000D03*
D15*
X49700000Y25500000D03*
%TD*%
D17*
%TO.C,R11*%
X-41000000Y-4600000D03*
D18*
X-36000000Y-4600000D03*
%TD*%
D19*
%TO.C,C25*%
X37500000Y9600000D03*
X42500000Y9600000D03*
%TD*%
D20*
%TO.C,D8*%
X100000Y5020000D03*
D21*
X-4900000Y5020000D03*
%TD*%
D20*
%TO.C,D5*%
X100000Y10800000D03*
D21*
X-4900000Y10800000D03*
%TD*%
D19*
%TO.C,C28*%
X37600000Y-11100000D03*
X42600000Y-11100000D03*
%TD*%
%TO.C,C3*%
X-50975000Y-2800000D03*
X-45975000Y-2800000D03*
%TD*%
%TO.C,C20*%
X16100000Y-8100000D03*
X21100000Y-8100000D03*
%TD*%
D22*
%TO.C,J5*%
X23650000Y-17500000D03*
D23*
X26190000Y-17500000D03*
X28730000Y-17500000D03*
X31270000Y-17500000D03*
X33810000Y-17500000D03*
X36350000Y-17500000D03*
%TD*%
D20*
%TO.C,D6*%
X100000Y2040000D03*
D21*
X-4900000Y2040000D03*
%TD*%
D17*
%TO.C,R27*%
X11000000Y6942857D03*
D18*
X6000000Y6942857D03*
%TD*%
D24*
%TO.C,C23*%
X19530000Y1400000D03*
D25*
X21030000Y1400000D03*
%TD*%
D20*
%TO.C,C1*%
X-14300000Y37550000D03*
D19*
X-14300000Y40050000D03*
%TD*%
D17*
%TO.C,R33*%
X23900000Y10600000D03*
D18*
X28900000Y10600000D03*
%TD*%
D19*
%TO.C,C10*%
X-19000000Y-2199000D03*
X-24000000Y-2199000D03*
%TD*%
D17*
%TO.C,R12*%
X-41100000Y-1500000D03*
D18*
X-36100000Y-1500000D03*
%TD*%
D17*
%TO.C,R2*%
X-11100000Y25100000D03*
D18*
X-11100000Y30100000D03*
%TD*%
D17*
%TO.C,R13*%
X-24000000Y3942000D03*
D18*
X-19000000Y3942000D03*
%TD*%
D17*
%TO.C,R23*%
X7900000Y16800000D03*
D18*
X12900000Y16800000D03*
%TD*%
D20*
%TO.C,D2*%
X-46100000Y7700000D03*
D21*
X-51100000Y7700000D03*
%TD*%
D17*
%TO.C,R22*%
X12900000Y30133333D03*
D18*
X7900000Y30133333D03*
%TD*%
D19*
%TO.C,C7*%
X-24000000Y-11200000D03*
X-19000000Y-11200000D03*
%TD*%
D24*
%TO.C,C24*%
X32730000Y11700000D03*
D25*
X34230000Y11700000D03*
%TD*%
D17*
%TO.C,R35*%
X47500000Y7700000D03*
D18*
X52500000Y7700000D03*
%TD*%
D17*
%TO.C,R28*%
X11000000Y3985714D03*
D18*
X6000000Y3985714D03*
%TD*%
D17*
%TO.C,R32*%
X24000000Y12800000D03*
D18*
X29000000Y12800000D03*
%TD*%
D17*
%TO.C,R21*%
X12900000Y32800000D03*
D18*
X7900000Y32800000D03*
%TD*%
D26*
%TO.C,RV6*%
X20000000Y-14500000D03*
D27*
X15000000Y-14500000D03*
X10000000Y-14500000D03*
%TD*%
D19*
%TO.C,C17*%
X18600000Y21045000D03*
X23600000Y21045000D03*
%TD*%
%TO.C,C19*%
X18600000Y17300000D03*
X23600000Y17300000D03*
%TD*%
D20*
%TO.C,D7*%
X100000Y8000000D03*
D21*
X-4900000Y8000000D03*
%TD*%
D17*
%TO.C,R37*%
X11000000Y-1928571D03*
D18*
X6000000Y-1928571D03*
%TD*%
D19*
%TO.C,C15*%
X23600000Y32400000D03*
X18600000Y32400000D03*
%TD*%
D28*
%TO.C,RV7*%
X32500000Y-5000000D03*
D29*
X30000000Y-5000000D03*
X27500000Y-5000000D03*
D30*
X25600000Y2000000D03*
X34400000Y2000000D03*
%TD*%
D26*
%TO.C,RV5*%
X20000000Y13500000D03*
D27*
X15000000Y13500000D03*
X10000000Y13500000D03*
%TD*%
D17*
%TO.C,R9*%
X-27500000Y11100000D03*
D18*
X-32500000Y11100000D03*
%TD*%
D17*
%TO.C,R36*%
X52500000Y5400000D03*
D18*
X47500000Y5400000D03*
%TD*%
D19*
%TO.C,C8*%
X-19000000Y-7077000D03*
X-24000000Y-7077000D03*
%TD*%
D20*
%TO.C,D4*%
X-46100000Y10600000D03*
D21*
X-51100000Y10600000D03*
%TD*%
D31*
%TO.C,C26*%
X41250000Y6300000D03*
X38750000Y6300000D03*
%TD*%
D17*
%TO.C,R30*%
X6000000Y-4885714D03*
D18*
X11000000Y-4885714D03*
%TD*%
D31*
%TO.C,C6*%
X-37250000Y10300000D03*
X-39750000Y10300000D03*
%TD*%
D22*
%TO.C,J4*%
X-36350000Y-17500000D03*
D23*
X-33810000Y-17500000D03*
X-31270000Y-17500000D03*
X-28730000Y-17500000D03*
X-26190000Y-17500000D03*
X-23650000Y-17500000D03*
%TD*%
D20*
%TO.C,D3*%
X-46100000Y4800000D03*
D21*
X-51100000Y4800000D03*
%TD*%
D17*
%TO.C,R7*%
X-36000000Y-11500000D03*
D18*
X-41000000Y-11500000D03*
%TD*%
D20*
%TO.C,C30*%
X10800000Y37450000D03*
D19*
X10800000Y39950000D03*
%TD*%
D17*
%TO.C,R26*%
X6000000Y9900000D03*
D18*
X11000000Y9900000D03*
%TD*%
D31*
%TO.C,C34*%
X51250000Y1300000D03*
X48750000Y1300000D03*
%TD*%
D17*
%TO.C,R20*%
X7900000Y19466667D03*
D18*
X12900000Y19466667D03*
%TD*%
D17*
%TO.C,R40*%
X52500000Y-5000000D03*
D18*
X47500000Y-5000000D03*
%TD*%
D17*
%TO.C,R41*%
X47500000Y-2000000D03*
D18*
X52500000Y-2000000D03*
%TD*%
D17*
%TO.C,R5*%
X-27500000Y-8200000D03*
D18*
X-32500000Y-8200000D03*
%TD*%
D20*
%TO.C,D9*%
X100000Y-940000D03*
D21*
X-4900000Y-940000D03*
%TD*%
D26*
%TO.C,RV4*%
X-10000000Y13500000D03*
D27*
X-15000000Y13500000D03*
X-20000000Y13500000D03*
%TD*%
D17*
%TO.C,R39*%
X27500000Y-11200000D03*
D18*
X32500000Y-11200000D03*
%TD*%
D20*
%TO.C,C13*%
X-51500000Y17950000D03*
D19*
X-51500000Y20450000D03*
%TD*%
D26*
%TO.C,RV1*%
X-40000000Y-14500000D03*
D27*
X-45000000Y-14500000D03*
X-50000000Y-14500000D03*
%TD*%
D19*
%TO.C,C22*%
X16100000Y-3800000D03*
X21100000Y-3800000D03*
%TD*%
D24*
%TO.C,C27*%
X50050000Y18400000D03*
D25*
X51550000Y18400000D03*
%TD*%
D20*
%TO.C,SW2*%
X-3810000Y17690000D03*
D21*
X-1270000Y17690000D03*
X1270000Y17690000D03*
X3810000Y17690000D03*
X3810000Y25310000D03*
X1270000Y25310000D03*
X-1270000Y25310000D03*
X-3810000Y25310000D03*
%TD*%
D20*
%TO.C,D11*%
X100000Y-6900000D03*
D21*
X-4900000Y-6900000D03*
%TD*%
D20*
%TO.C,D10*%
X100000Y-3920000D03*
D21*
X-4900000Y-3920000D03*
%TD*%
D20*
%TO.C,C31*%
X21700000Y37450000D03*
D19*
X21700000Y39950000D03*
%TD*%
D17*
%TO.C,R14*%
X-24000000Y1474000D03*
D18*
X-19000000Y1474000D03*
%TD*%
D19*
%TO.C,C16*%
X23600000Y28595000D03*
X18600000Y28595000D03*
%TD*%
D24*
%TO.C,C29*%
X39350000Y-6600000D03*
D25*
X40850000Y-6600000D03*
%TD*%
D26*
%TO.C,RV8*%
X50000000Y13500000D03*
D27*
X45000000Y13500000D03*
X40000000Y13500000D03*
%TD*%
D17*
%TO.C,R24*%
X7900000Y24800000D03*
D18*
X12900000Y24800000D03*
%TD*%
D19*
%TO.C,C5*%
X-50975000Y-11200000D03*
X-45975000Y-11200000D03*
%TD*%
D17*
%TO.C,R15*%
X-9200000Y-4000000D03*
D18*
X-14200000Y-4000000D03*
%TD*%
D20*
%TO.C,C2*%
X-21200000Y37550000D03*
D19*
X-21200000Y40050000D03*
%TD*%
D17*
%TO.C,R16*%
X-9200000Y-6400000D03*
D18*
X-14200000Y-6400000D03*
%TD*%
D17*
%TO.C,R31*%
X32500000Y-8200000D03*
D18*
X27500000Y-8200000D03*
%TD*%
D17*
%TO.C,R3*%
X-9000000Y25100000D03*
D18*
X-9000000Y30100000D03*
%TD*%
D17*
%TO.C,R19*%
X12900000Y22133333D03*
D18*
X7900000Y22133333D03*
%TD*%
D19*
%TO.C,C4*%
X-50975000Y-7000000D03*
X-45975000Y-7000000D03*
%TD*%
%TO.C,C21*%
X16100000Y-11100000D03*
X21100000Y-11100000D03*
%TD*%
D26*
%TO.C,RV2*%
X-40000000Y13500000D03*
D27*
X-45000000Y13500000D03*
X-50000000Y13500000D03*
%TD*%
D26*
%TO.C,RV9*%
X50000000Y-14500000D03*
D27*
X45000000Y-14500000D03*
X40000000Y-14500000D03*
%TD*%
D26*
%TO.C,RV3*%
X-10000000Y-14500000D03*
D27*
X-15000000Y-14500000D03*
X-20000000Y-14500000D03*
%TD*%
D17*
%TO.C,R29*%
X11000000Y1028571D03*
D18*
X6000000Y1028571D03*
%TD*%
D17*
%TO.C,R10*%
X-32500000Y14600000D03*
D18*
X-27500000Y14600000D03*
%TD*%
D17*
%TO.C,R25*%
X7900000Y27466667D03*
D18*
X12900000Y27466667D03*
%TD*%
D31*
%TO.C,C18*%
X19850000Y24790000D03*
X22350000Y24790000D03*
%TD*%
D17*
%TO.C,R8*%
X-41000000Y-8166667D03*
D18*
X-36000000Y-8166667D03*
%TD*%
D17*
%TO.C,R4*%
X-27500000Y-11500000D03*
D18*
X-32500000Y-11500000D03*
%TD*%
D31*
%TO.C,C9*%
X-22850000Y6800000D03*
X-20350000Y6800000D03*
%TD*%
D17*
%TO.C,R34*%
X47500000Y10000000D03*
D18*
X52500000Y10000000D03*
%TD*%
D20*
%TO.C,C12*%
X-51500000Y29450000D03*
D19*
X-51500000Y31950000D03*
%TD*%
D32*
%TO.C,SW1*%
X-30000000Y-2700000D03*
X-30000000Y2000000D03*
X-30000000Y6700000D03*
%TD*%
%LPD*%
M02*
