%TF.GenerationSoftware,KiCad,Pcbnew,9.0.7*%
%TF.CreationDate,2026-03-13T00:43:19-02:30*%
%TF.ProjectId,chris-mang-custom,63687269-732d-46d6-916e-672d63757374,rev?*%
%TF.SameCoordinates,Original*%
%TF.FileFunction,Copper,L1,Top*%
%TF.FilePolarity,Positive*%
%FSLAX46Y46*%
G04 Gerber Fmt 4.6, Leading zero omitted, Abs format (unit mm)*
G04 Created by KiCad (PCBNEW 9.0.7) date 2026-03-13 00:43:19*
%MOMM*%
%LPD*%
G01*
G04 APERTURE LIST*
G04 Aperture macros list*
%AMRoundRect*
0 Rectangle with rounded corners*
0 $1 Rounding radius*
0 $2 $3 $4 $5 $6 $7 $8 $9 X,Y pos of 4 corners*
0 Add a 4 corners polygon primitive as box body*
4,1,4,$2,$3,$4,$5,$6,$7,$8,$9,$2,$3,0*
0 Add four circle primitives for the rounded corners*
1,1,$1+$1,$2,$3*
1,1,$1+$1,$4,$5*
1,1,$1+$1,$6,$7*
1,1,$1+$1,$8,$9*
0 Add four rect primitives between the rounded corners*
20,1,$1+$1,$2,$3,$4,$5,0*
20,1,$1+$1,$4,$5,$6,$7,0*
20,1,$1+$1,$6,$7,$8,$9,0*
20,1,$1+$1,$8,$9,$2,$3,0*%
G04 Aperture macros list end*
%TA.AperFunction,ComponentPad*%
%ADD10O,4.000000X1.500000*%
%TD*%
%TA.AperFunction,ComponentPad*%
%ADD11O,1.500000X4.000000*%
%TD*%
%TA.AperFunction,ComponentPad*%
%ADD12C,2.540000*%
%TD*%
%TA.AperFunction,ComponentPad*%
%ADD13O,3.000000X1.400000*%
%TD*%
%TA.AperFunction,ComponentPad*%
%ADD14O,1.400000X3.000000*%
%TD*%
%TA.AperFunction,ComponentPad*%
%ADD15C,1.400000*%
%TD*%
%TA.AperFunction,ComponentPad*%
%ADD16O,1.400000X1.400000*%
%TD*%
%TA.AperFunction,SMDPad,CuDef*%
%ADD17RoundRect,0.250000X0.450000X-0.350000X0.450000X0.350000X-0.450000X0.350000X-0.450000X-0.350000X0*%
%TD*%
%TA.AperFunction,SMDPad,CuDef*%
%ADD18RoundRect,0.250000X0.325000X0.450000X-0.325000X0.450000X-0.325000X-0.450000X0.325000X-0.450000X0*%
%TD*%
%TA.AperFunction,ComponentPad*%
%ADD19C,1.600000*%
%TD*%
%TA.AperFunction,ComponentPad*%
%ADD20R,1.600000X1.600000*%
%TD*%
%TA.AperFunction,ComponentPad*%
%ADD21O,1.600000X1.600000*%
%TD*%
%TA.AperFunction,ComponentPad*%
%ADD22R,1.700000X1.700000*%
%TD*%
%TA.AperFunction,ComponentPad*%
%ADD23O,1.700000X1.700000*%
%TD*%
%TA.AperFunction,ComponentPad*%
%ADD24R,1.200000X1.200000*%
%TD*%
%TA.AperFunction,ComponentPad*%
%ADD25C,1.200000*%
%TD*%
%TA.AperFunction,SMDPad,CuDef*%
%ADD26RoundRect,0.200000X-0.750000X-0.200000X0.750000X-0.200000X0.750000X0.200000X-0.750000X0.200000X0*%
%TD*%
%TA.AperFunction,SMDPad,CuDef*%
%ADD27RoundRect,0.250000X-0.475000X0.337500X-0.475000X-0.337500X0.475000X-0.337500X0.475000X0.337500X0*%
%TD*%
%TA.AperFunction,ComponentPad*%
%ADD28R,2.000000X2.000000*%
%TD*%
%TA.AperFunction,ComponentPad*%
%ADD29C,2.000000*%
%TD*%
%TA.AperFunction,SMDPad,CuDef*%
%ADD30RoundRect,0.150000X0.150000X-0.825000X0.150000X0.825000X-0.150000X0.825000X-0.150000X-0.825000X0*%
%TD*%
%TA.AperFunction,ComponentPad*%
%ADD31R,1.800000X1.800000*%
%TD*%
%TA.AperFunction,ComponentPad*%
%ADD32C,1.800000*%
%TD*%
%TA.AperFunction,ComponentPad*%
%ADD33O,3.600000X4.200000*%
%TD*%
%TA.AperFunction,SMDPad,CuDef*%
%ADD34RoundRect,0.150000X-0.825000X-0.150000X0.825000X-0.150000X0.825000X0.150000X-0.825000X0.150000X0*%
%TD*%
%TA.AperFunction,SMDPad,CuDef*%
%ADD35RoundRect,0.250000X0.350000X0.450000X-0.350000X0.450000X-0.350000X-0.450000X0.350000X-0.450000X0*%
%TD*%
%TA.AperFunction,ComponentPad*%
%ADD36C,1.500000*%
%TD*%
%TA.AperFunction,SMDPad,CuDef*%
%ADD37RoundRect,0.250000X0.337500X0.475000X-0.337500X0.475000X-0.337500X-0.475000X0.337500X-0.475000X0*%
%TD*%
%TA.AperFunction,SMDPad,CuDef*%
%ADD38RoundRect,0.250000X-0.337500X-0.475000X0.337500X-0.475000X0.337500X0.475000X-0.337500X0.475000X0*%
%TD*%
%TA.AperFunction,SMDPad,CuDef*%
%ADD39RoundRect,0.250000X-0.450000X0.325000X-0.450000X-0.325000X0.450000X-0.325000X0.450000X0.325000X0*%
%TD*%
%TA.AperFunction,SMDPad,CuDef*%
%ADD40RoundRect,0.200000X0.750000X0.200000X-0.750000X0.200000X-0.750000X-0.200000X0.750000X-0.200000X0*%
%TD*%
%TA.AperFunction,SMDPad,CuDef*%
%ADD41RoundRect,0.250000X-0.350000X-0.450000X0.350000X-0.450000X0.350000X0.450000X-0.350000X0.450000X0*%
%TD*%
%TA.AperFunction,SMDPad,CuDef*%
%ADD42RoundRect,0.250000X-0.450000X0.350000X-0.450000X-0.350000X0.450000X-0.350000X0.450000X0.350000X0*%
%TD*%
%TA.AperFunction,SMDPad,CuDef*%
%ADD43RoundRect,0.250000X-0.250000X-0.250000X0.250000X-0.250000X0.250000X0.250000X-0.250000X0.250000X0*%
%TD*%
%TA.AperFunction,ComponentPad*%
%ADD44O,3.800000X2.400000*%
%TD*%
%TA.AperFunction,ViaPad*%
%ADD45C,0.800000*%
%TD*%
%TA.AperFunction,Conductor*%
%ADD46C,0.500000*%
%TD*%
%TA.AperFunction,Conductor*%
%ADD47C,0.250000*%
%TD*%
G04 APERTURE END LIST*
D10*
%TO.P,J1,1*%
%TO.N,Earth*%
X0Y29800000D03*
%TO.P,J1,2*%
%TO.N,Net-(Q1-D)*%
X0Y35800000D03*
D11*
%TO.P,J1,3*%
%TO.N,unconnected-(J1-Pad3)*%
X-4700000Y32800000D03*
%TD*%
D12*
%TO.P,J2,1,T*%
%TO.N,/input_jack*%
X-44250000Y23650000D03*
%TO.P,J2,2,R*%
%TO.N,Earth*%
X-44250000Y30000000D03*
%TO.P,J2,3,S*%
X-44250000Y36350000D03*
%TO.P,J2,4,TS*%
X-27750000Y23650000D03*
%TO.P,J2,5,RS*%
X-27750000Y30000000D03*
%TO.P,J2,6,SS*%
X-27750000Y36350000D03*
%TD*%
%TO.P,J3,1,T*%
%TO.N,/output_jack*%
X27750000Y23650000D03*
%TO.P,J3,2,R*%
%TO.N,Earth*%
X27750000Y30000000D03*
%TO.P,J3,3,S*%
X27750000Y36350000D03*
%TO.P,J3,4,TS*%
X44250000Y23650000D03*
%TO.P,J3,5,RS*%
X44250000Y30000000D03*
%TO.P,J3,6,SS*%
X44250000Y36350000D03*
%TD*%
D13*
%TO.P,G1,1*%
%TO.N,Earth*%
X49700000Y34500000D03*
D14*
X53000000Y30000000D03*
D13*
X49700000Y25500000D03*
%TD*%
D15*
%TO.P,R11,1*%
%TO.N,Net-(D4-A)*%
X-41000000Y-4600000D03*
D16*
%TO.P,R11,2*%
%TO.N,Net-(R11-Pad2)*%
X-36000000Y-4600000D03*
%TD*%
D17*
%TO.P,R42,1*%
%TO.N,/bluesbreaker/4.5V*%
X15300000Y37600000D03*
%TO.P,R42,2*%
%TO.N,/bluesbreaker/9V*%
X15300000Y39600000D03*
%TD*%
D18*
%TO.P,FB1,1*%
%TO.N,Net-(D1-K)*%
X-13275000Y34200000D03*
%TO.P,FB1,2*%
%TO.N,+9V*%
X-15325000Y34200000D03*
%TD*%
D19*
%TO.P,C25,1*%
%TO.N,Net-(C25-Pad1)*%
X37500000Y9600000D03*
%TO.P,C25,2*%
%TO.N,Net-(C25-Pad2)*%
X42500000Y9600000D03*
%TD*%
D20*
%TO.P,D8,1,K*%
%TO.N,Net-(D6-A)*%
X100000Y7020000D03*
D21*
%TO.P,D8,2,A*%
%TO.N,/bluesbreaker/sw4*%
X-4900000Y7020000D03*
%TD*%
D20*
%TO.P,D5,1,K*%
%TO.N,Net-(D5-K)*%
X100000Y12800000D03*
D21*
%TO.P,D5,2,A*%
%TO.N,Net-(D5-A)*%
X-4900000Y12800000D03*
%TD*%
D19*
%TO.P,C28,1*%
%TO.N,/bluesbreaker-send*%
X37600000Y-11100000D03*
%TO.P,C28,2*%
%TO.N,Net-(Q6-B)*%
X42600000Y-11100000D03*
%TD*%
%TO.P,C3,1*%
%TO.N,/zendrive_send*%
X-50975000Y-2800000D03*
%TO.P,C3,2*%
%TO.N,Net-(U2A-+)*%
X-45975000Y-2800000D03*
%TD*%
%TO.P,C20,1*%
%TO.N,/bluesbreaker/4.5V*%
X16100000Y-8100000D03*
%TO.P,C20,2*%
%TO.N,Net-(C20-Pad2)*%
X21100000Y-8100000D03*
%TD*%
D22*
%TO.P,J5,1,Pin_1*%
%TO.N,Earth*%
X23650000Y-17500000D03*
D23*
%TO.P,J5,2,Pin_2*%
%TO.N,unconnected-(J5-Pin_2-Pad2)*%
X26190000Y-17500000D03*
%TO.P,J5,3,Pin_3*%
%TO.N,/bluesbreaker-send*%
X28730000Y-17500000D03*
%TO.P,J5,4,Pin_4*%
%TO.N,/bluesbreaker-return*%
X31270000Y-17500000D03*
%TO.P,J5,5,Pin_5*%
%TO.N,/output_jack*%
X33810000Y-17500000D03*
%TO.P,J5,6,Pin_6*%
%TO.N,/V+1*%
X36350000Y-17500000D03*
%TD*%
D20*
%TO.P,D6,1,K*%
%TO.N,Net-(D5-A)*%
X100000Y4040000D03*
D21*
%TO.P,D6,2,A*%
%TO.N,Net-(D6-A)*%
X-4900000Y4040000D03*
%TD*%
D15*
%TO.P,R27,1*%
%TO.N,Net-(U3A--)*%
X11000000Y6942857D03*
D16*
%TO.P,R27,2*%
%TO.N,Net-(D5-A)*%
X6000000Y6942857D03*
%TD*%
D24*
%TO.P,C23,1*%
%TO.N,Net-(C22-Pad1)*%
X19530000Y1400000D03*
D25*
%TO.P,C23,2*%
%TO.N,Net-(Q5-B)*%
X21030000Y1400000D03*
%TD*%
D20*
%TO.P,C1,1*%
%TO.N,Net-(D1-K)*%
X-14300000Y37550000D03*
D19*
%TO.P,C1,2*%
%TO.N,Earth*%
X-14300000Y40050000D03*
%TD*%
D15*
%TO.P,R33,1*%
%TO.N,Earth*%
X23900000Y10600000D03*
D16*
%TO.P,R33,2*%
%TO.N,Net-(Q5-E)*%
X28900000Y10600000D03*
%TD*%
D19*
%TO.P,C10,1*%
%TO.N,Net-(C10-Pad1)*%
X-19000000Y-2199000D03*
%TO.P,C10,2*%
%TO.N,Net-(C10-Pad2)*%
X-24000000Y-2199000D03*
%TD*%
D15*
%TO.P,R12,1*%
%TO.N,Net-(C8-Pad2)*%
X-41100000Y-1500000D03*
D16*
%TO.P,R12,2*%
%TO.N,Net-(U2B--)*%
X-36100000Y-1500000D03*
%TD*%
D15*
%TO.P,R2,1*%
%TO.N,/V+0*%
X-11100000Y25100000D03*
D16*
%TO.P,R2,2*%
%TO.N,+9V*%
X-11100000Y30100000D03*
%TD*%
D15*
%TO.P,R13,1*%
%TO.N,Net-(U2B--)*%
X-24000000Y3942000D03*
D16*
%TO.P,R13,2*%
%TO.N,Net-(C10-Pad1)*%
X-19000000Y3942000D03*
%TD*%
D26*
%TO.P,Q3,1,G*%
%TO.N,Net-(D4-A)*%
X-47100000Y2350000D03*
%TO.P,Q3,2,S*%
%TO.N,Net-(D3-K)*%
X-47100000Y450000D03*
%TO.P,Q3,3,D*%
%TO.N,Net-(D4-A)*%
X-44100000Y1400000D03*
%TD*%
%TO.P,Q1,1,G*%
%TO.N,Net-(D1-A)*%
X-9400000Y38250000D03*
%TO.P,Q1,2,S*%
%TO.N,Net-(D1-K)*%
X-9400000Y36350000D03*
%TO.P,Q1,3,D*%
%TO.N,Net-(Q1-D)*%
X-6400000Y37300000D03*
%TD*%
%TO.P,Q4,1,G*%
%TO.N,/Zendrive/Q1G*%
X-13200000Y-8850000D03*
%TO.P,Q4,2,S*%
%TO.N,Earth*%
X-13200000Y-10750000D03*
%TO.P,Q4,3,D*%
%TO.N,/Zendrive/Q1D*%
X-10200000Y-9800000D03*
%TD*%
D15*
%TO.P,R23,1*%
%TO.N,/bluesbreaker/4.5V*%
X7900000Y16800000D03*
D16*
%TO.P,R23,2*%
%TO.N,Net-(U3B-+)*%
X12900000Y16800000D03*
%TD*%
D20*
%TO.P,D2,1,K*%
%TO.N,Net-(D2-K)*%
X-46100000Y7700000D03*
D21*
%TO.P,D2,2,A*%
%TO.N,Net-(D2-A)*%
X-51100000Y7700000D03*
%TD*%
D15*
%TO.P,R22,1*%
%TO.N,Net-(C16-Pad2)*%
X12900000Y30133333D03*
D16*
%TO.P,R22,2*%
%TO.N,/bluesbreaker/sw7*%
X7900000Y30133333D03*
%TD*%
D19*
%TO.P,C7,1*%
%TO.N,Net-(U2B-+)*%
X-24000000Y-11200000D03*
%TO.P,C7,2*%
%TO.N,Earth*%
X-19000000Y-11200000D03*
%TD*%
D24*
%TO.P,C24,1*%
%TO.N,Net-(Q5-E)*%
X32730000Y11700000D03*
D25*
%TO.P,C24,2*%
%TO.N,Net-(C24-Pad2)*%
X34230000Y11700000D03*
%TD*%
D15*
%TO.P,R35,1*%
%TO.N,Net-(C25-Pad2)*%
X47500000Y7700000D03*
D16*
%TO.P,R35,2*%
%TO.N,Net-(U4B--)*%
X52500000Y7700000D03*
%TD*%
D27*
%TO.P,C33,1*%
%TO.N,/bluesbreaker/9V*%
X38300000Y2937500D03*
%TO.P,C33,2*%
%TO.N,Earth*%
X38300000Y862500D03*
%TD*%
D15*
%TO.P,R28,1*%
%TO.N,Net-(U3A--)*%
X11000000Y3985714D03*
D16*
%TO.P,R28,2*%
%TO.N,/bluesbreaker/sw5*%
X6000000Y3985714D03*
%TD*%
D27*
%TO.P,C32,1*%
%TO.N,/bluesbreaker/9V*%
X14600000Y10137500D03*
%TO.P,C32,2*%
%TO.N,Earth*%
X14600000Y8062500D03*
%TD*%
D15*
%TO.P,R32,1*%
%TO.N,/bluesbreaker/4.5V*%
X24000000Y12800000D03*
D16*
%TO.P,R32,2*%
%TO.N,Net-(Q5-B)*%
X29000000Y12800000D03*
%TD*%
D15*
%TO.P,R21,1*%
%TO.N,Net-(C15-Pad2)*%
X12900000Y32800000D03*
D16*
%TO.P,R21,2*%
%TO.N,/bluesbreaker/sw7*%
X7900000Y32800000D03*
%TD*%
D28*
%TO.P,RV6,1,1*%
%TO.N,Net-(C20-Pad2)*%
X20000000Y-14500000D03*
D29*
%TO.P,RV6,2,2*%
%TO.N,Net-(R30-Pad1)*%
X15000000Y-14500000D03*
%TO.P,RV6,3,3*%
%TO.N,Net-(D10-A)*%
X10000000Y-14500000D03*
%TD*%
D19*
%TO.P,C17,1*%
%TO.N,Net-(C17-Pad1)*%
X18600000Y21045000D03*
%TO.P,C17,2*%
%TO.N,Net-(U3B-+)*%
X23600000Y21045000D03*
%TD*%
%TO.P,C19,1*%
%TO.N,Net-(C19-Pad1)*%
X18600000Y17300000D03*
%TO.P,C19,2*%
%TO.N,Net-(C19-Pad2)*%
X23600000Y17300000D03*
%TD*%
D30*
%TO.P,U3,1*%
%TO.N,/bluesbreaker/sw5*%
X16695000Y5125000D03*
%TO.P,U3,2,-*%
%TO.N,Net-(U3A--)*%
X17965000Y5125000D03*
%TO.P,U3,3,+*%
%TO.N,/bluesbreaker/4.5V*%
X19235000Y5125000D03*
%TO.P,U3,4,V-*%
%TO.N,Earth*%
X20505000Y5125000D03*
%TO.P,U3,5,+*%
%TO.N,Net-(U3B-+)*%
X20505000Y10075000D03*
%TO.P,U3,6,-*%
%TO.N,/bluesbreaker/sw7*%
X19235000Y10075000D03*
%TO.P,U3,7*%
%TO.N,Net-(C18-Pad2)*%
X17965000Y10075000D03*
%TO.P,U3,8,V+*%
%TO.N,/bluesbreaker/9V*%
X16695000Y10075000D03*
%TD*%
D20*
%TO.P,D7,1,K*%
%TO.N,/bluesbreaker/sw4*%
X100000Y10000000D03*
D21*
%TO.P,D7,2,A*%
%TO.N,Net-(D5-K)*%
X-4900000Y10000000D03*
%TD*%
D15*
%TO.P,R37,1*%
%TO.N,/bluesbreaker/4.5V*%
X11000000Y-1928571D03*
D16*
%TO.P,R37,2*%
%TO.N,Net-(C22-Pad1)*%
X6000000Y-1928571D03*
%TD*%
D19*
%TO.P,C15,1*%
%TO.N,Earth*%
X23600000Y32400000D03*
%TO.P,C15,2*%
%TO.N,Net-(C15-Pad2)*%
X18600000Y32400000D03*
%TD*%
D31*
%TO.P,RV7,1,1*%
%TO.N,Net-(C21-Pad2)*%
X32500000Y-5000000D03*
D32*
%TO.P,RV7,2,2*%
%TO.N,Net-(C22-Pad1)*%
X30000000Y-5000000D03*
%TO.P,RV7,3,3*%
X27500000Y-5000000D03*
D33*
%TO.P,RV7,4*%
%TO.N,N/C*%
X25600000Y2000000D03*
X34400000Y2000000D03*
%TD*%
D28*
%TO.P,RV5,1,1*%
%TO.N,Net-(R24-Pad2)*%
X20000000Y13500000D03*
D29*
%TO.P,RV5,2,2*%
%TO.N,Net-(C18-Pad2)*%
X15000000Y13500000D03*
%TO.P,RV5,3,3*%
%TO.N,Net-(C19-Pad1)*%
X10000000Y13500000D03*
%TD*%
D26*
%TO.P,Q5,1,B*%
%TO.N,Net-(Q5-B)*%
X26200000Y7850000D03*
%TO.P,Q5,2,E*%
%TO.N,Net-(Q5-E)*%
X26200000Y5950000D03*
%TO.P,Q5,3,C*%
%TO.N,/bluesbreaker/9V*%
X29200000Y6900000D03*
%TD*%
D15*
%TO.P,R9,1*%
%TO.N,Net-(D3-A)*%
X-27500000Y11100000D03*
D16*
%TO.P,R9,2*%
%TO.N,Net-(R9-Pad2)*%
X-32500000Y11100000D03*
%TD*%
D34*
%TO.P,U2,1*%
%TO.N,Net-(D4-A)*%
X-40975000Y5905000D03*
%TO.P,U2,2,-*%
%TO.N,Net-(D3-A)*%
X-40975000Y4635000D03*
%TO.P,U2,3,+*%
%TO.N,Net-(U2A-+)*%
X-40975000Y3365000D03*
%TO.P,U2,4,V-*%
%TO.N,Earth*%
X-40975000Y2095000D03*
%TO.P,U2,5,+*%
%TO.N,Net-(U2B-+)*%
X-36025000Y2095000D03*
%TO.P,U2,6,-*%
%TO.N,Net-(U2B--)*%
X-36025000Y3365000D03*
%TO.P,U2,7*%
%TO.N,Net-(C10-Pad1)*%
X-36025000Y4635000D03*
%TO.P,U2,8,V+*%
%TO.N,/Zendrive/9V*%
X-36025000Y5905000D03*
%TD*%
D15*
%TO.P,R36,1*%
%TO.N,Net-(U4B--)*%
X52500000Y5400000D03*
D16*
%TO.P,R36,2*%
%TO.N,Net-(C26-Pad2)*%
X47500000Y5400000D03*
%TD*%
D19*
%TO.P,C8,1*%
%TO.N,Earth*%
X-19000000Y-7077000D03*
%TO.P,C8,2*%
%TO.N,Net-(C8-Pad2)*%
X-24000000Y-7077000D03*
%TD*%
D35*
%TO.P,R17,1*%
%TO.N,/Zendrive/4.5V*%
X-50500000Y25500000D03*
%TO.P,R17,2*%
%TO.N,/Zendrive/9V*%
X-52500000Y25500000D03*
%TD*%
D30*
%TO.P,U4,1*%
%TO.N,Net-(C25-Pad1)*%
X40095000Y-2075000D03*
%TO.P,U4,2,-*%
%TO.N,Net-(U4A--)*%
X41365000Y-2075000D03*
%TO.P,U4,3,+*%
%TO.N,/bluesbreaker/4.5V*%
X42635000Y-2075000D03*
%TO.P,U4,4,V-*%
%TO.N,Earth*%
X43905000Y-2075000D03*
%TO.P,U4,5,+*%
%TO.N,/bluesbreaker/4.5V*%
X43905000Y2875000D03*
%TO.P,U4,6,-*%
%TO.N,Net-(U4B--)*%
X42635000Y2875000D03*
%TO.P,U4,7*%
%TO.N,Net-(C26-Pad2)*%
X41365000Y2875000D03*
%TO.P,U4,8,V+*%
%TO.N,/bluesbreaker/9V*%
X40095000Y2875000D03*
%TD*%
D20*
%TO.P,D4,1,K*%
%TO.N,Net-(D2-A)*%
X-46100000Y10600000D03*
D21*
%TO.P,D4,2,A*%
%TO.N,Net-(D4-A)*%
X-51100000Y10600000D03*
%TD*%
D36*
%TO.P,C26,1*%
%TO.N,Net-(U4B--)*%
X41250000Y6300000D03*
%TO.P,C26,2*%
%TO.N,Net-(C26-Pad2)*%
X38750000Y6300000D03*
%TD*%
D15*
%TO.P,R30,1*%
%TO.N,Net-(R30-Pad1)*%
X6000000Y-4885714D03*
D16*
%TO.P,R30,2*%
%TO.N,Net-(C22-Pad1)*%
X11000000Y-4885714D03*
%TD*%
D30*
%TO.P,U1,1*%
%TO.N,/Zendrive/Q1G*%
X-23645000Y16755000D03*
%TO.P,U1,2*%
%TO.N,Net-(R9-Pad2)*%
X-22375000Y16755000D03*
%TO.P,U1,3*%
%TO.N,Net-(D4-A)*%
X-21105000Y16755000D03*
%TO.P,U1,4,V-*%
%TO.N,Earth*%
X-19835000Y16755000D03*
%TO.P,U1,5,GND*%
X-18565000Y16755000D03*
%TO.P,U1,6*%
%TO.N,N/C*%
X-17295000Y16755000D03*
%TO.P,U1,7*%
X-16025000Y16755000D03*
%TO.P,U1,8*%
X-14755000Y16755000D03*
%TO.P,U1,9*%
%TO.N,/Zendrive/Q1D*%
X-14755000Y21705000D03*
%TO.P,U1,10*%
%TO.N,Net-(C4-Pad1)*%
X-16025000Y21705000D03*
%TO.P,U1,11*%
%TO.N,Earth*%
X-17295000Y21705000D03*
%TO.P,U1,12,VL*%
%TO.N,/Zendrive/9V*%
X-18565000Y21705000D03*
%TO.P,U1,13,V+*%
X-19835000Y21705000D03*
%TO.P,U1,14*%
%TO.N,Net-(D4-A)*%
X-21105000Y21705000D03*
%TO.P,U1,15*%
%TO.N,Net-(D2-A)*%
X-22375000Y21705000D03*
%TO.P,U1,16*%
%TO.N,/Zendrive/Q1D*%
X-23645000Y21705000D03*
%TD*%
D36*
%TO.P,C6,1*%
%TO.N,Net-(D3-A)*%
X-37250000Y10300000D03*
%TO.P,C6,2*%
%TO.N,Net-(D4-A)*%
X-39750000Y10300000D03*
%TD*%
D22*
%TO.P,J4,1,Pin_1*%
%TO.N,Earth*%
X-36350000Y-17500000D03*
D23*
%TO.P,J4,2,Pin_2*%
%TO.N,/input_jack*%
X-33810000Y-17500000D03*
%TO.P,J4,3,Pin_3*%
%TO.N,/zendrive_send*%
X-31270000Y-17500000D03*
%TO.P,J4,4,Pin_4*%
%TO.N,/zendrive_return*%
X-28730000Y-17500000D03*
%TO.P,J4,5,Pin_5*%
%TO.N,unconnected-(J4-Pin_5-Pad5)*%
X-26190000Y-17500000D03*
%TO.P,J4,6,Pin_6*%
%TO.N,/V+0*%
X-23650000Y-17500000D03*
%TD*%
D26*
%TO.P,Q2,1,G*%
%TO.N,Net-(D3-A)*%
X-52600000Y2350000D03*
%TO.P,Q2,2,S*%
%TO.N,Net-(D2-K)*%
X-52600000Y450000D03*
%TO.P,Q2,3,D*%
%TO.N,Net-(D3-A)*%
X-49600000Y1400000D03*
%TD*%
D20*
%TO.P,D3,1,K*%
%TO.N,Net-(D3-K)*%
X-46100000Y4800000D03*
D21*
%TO.P,D3,2,A*%
%TO.N,Net-(D3-A)*%
X-51100000Y4800000D03*
%TD*%
D15*
%TO.P,R7,1*%
%TO.N,Net-(C4-Pad2)*%
X-36000000Y-11500000D03*
D16*
%TO.P,R7,2*%
%TO.N,Net-(R7-Pad2)*%
X-41000000Y-11500000D03*
%TD*%
D20*
%TO.P,C30,1*%
%TO.N,/bluesbreaker/9V*%
X10800000Y37450000D03*
D19*
%TO.P,C30,2*%
%TO.N,Earth*%
X10800000Y39950000D03*
%TD*%
D37*
%TO.P,C14,1*%
%TO.N,/Zendrive/9V*%
X-35862500Y7700000D03*
%TO.P,C14,2*%
%TO.N,Earth*%
X-37937500Y7700000D03*
%TD*%
D15*
%TO.P,R26,1*%
%TO.N,Net-(C19-Pad2)*%
X6000000Y9900000D03*
D16*
%TO.P,R26,2*%
%TO.N,Net-(U3A--)*%
X11000000Y9900000D03*
%TD*%
D36*
%TO.P,C34,1*%
%TO.N,Net-(U4A--)*%
X51250000Y1300000D03*
%TO.P,C34,2*%
%TO.N,Net-(C25-Pad1)*%
X48750000Y1300000D03*
%TD*%
D15*
%TO.P,R20,1*%
%TO.N,/bluesbreaker-send*%
X7900000Y19466667D03*
D16*
%TO.P,R20,2*%
%TO.N,Net-(C17-Pad1)*%
X12900000Y19466667D03*
%TD*%
D15*
%TO.P,R40,1*%
%TO.N,Earth*%
X52500000Y-5000000D03*
D16*
%TO.P,R40,2*%
%TO.N,Net-(Q6-E)*%
X47500000Y-5000000D03*
%TD*%
D15*
%TO.P,R41,1*%
%TO.N,Net-(C29-Pad2)*%
X47500000Y-2000000D03*
D16*
%TO.P,R41,2*%
%TO.N,Net-(U4A--)*%
X52500000Y-2000000D03*
%TD*%
D38*
%TO.P,C11,1*%
%TO.N,/Zendrive/9V*%
X-19837500Y24200000D03*
%TO.P,C11,2*%
%TO.N,Earth*%
X-17762500Y24200000D03*
%TD*%
D15*
%TO.P,R5,1*%
%TO.N,/Zendrive/4.5V*%
X-27500000Y-8200000D03*
D16*
%TO.P,R5,2*%
%TO.N,Net-(U2A-+)*%
X-32500000Y-8200000D03*
%TD*%
D20*
%TO.P,D9,1,K*%
%TO.N,Net-(D10-A)*%
X100000Y1060000D03*
D21*
%TO.P,D9,2,A*%
%TO.N,/bluesbreaker/sw3*%
X-4900000Y1060000D03*
%TD*%
D28*
%TO.P,RV4,1,1*%
%TO.N,Earth*%
X-10000000Y13500000D03*
D29*
%TO.P,RV4,2,2*%
%TO.N,/zendrive_return*%
X-15000000Y13500000D03*
%TO.P,RV4,3,3*%
%TO.N,Net-(R14-Pad2)*%
X-20000000Y13500000D03*
%TD*%
D15*
%TO.P,R39,1*%
%TO.N,/bluesbreaker/4.5V*%
X27500000Y-11200000D03*
D16*
%TO.P,R39,2*%
%TO.N,Net-(Q6-B)*%
X32500000Y-11200000D03*
%TD*%
D20*
%TO.P,C13,1*%
%TO.N,/Zendrive/4.5V*%
X-50500000Y17750000D03*
D19*
%TO.P,C13,2*%
%TO.N,Earth*%
X-50500000Y20250000D03*
%TD*%
D28*
%TO.P,RV1,1,1*%
%TO.N,Net-(C4-Pad2)*%
X-40000000Y-14500000D03*
D29*
%TO.P,RV1,2,2*%
X-45000000Y-14500000D03*
%TO.P,RV1,3,3*%
%TO.N,Net-(R7-Pad2)*%
X-50000000Y-14500000D03*
%TD*%
D19*
%TO.P,C22,1*%
%TO.N,Net-(C22-Pad1)*%
X16100000Y-3800000D03*
%TO.P,C22,2*%
%TO.N,Net-(Q5-B)*%
X21100000Y-3800000D03*
%TD*%
D24*
%TO.P,C27,1*%
%TO.N,Net-(C26-Pad2)*%
X48950000Y18400000D03*
D25*
%TO.P,C27,2*%
%TO.N,Net-(C27-Pad2)*%
X50450000Y18400000D03*
%TD*%
D20*
%TO.P,SW2,1,C*%
%TO.N,unconnected-(SW2A-C-Pad1)*%
X-3810000Y17690000D03*
D21*
%TO.P,SW2,2,D*%
%TO.N,/bluesbreaker/sw2*%
X-1270000Y17690000D03*
%TO.P,SW2,3,C*%
%TO.N,/bluesbreaker/sw3*%
X1270000Y17690000D03*
%TO.P,SW2,4,D*%
%TO.N,/bluesbreaker/sw4*%
X3810000Y17690000D03*
%TO.P,SW2,5,B*%
%TO.N,/bluesbreaker/sw5*%
X3810000Y25310000D03*
%TO.P,SW2,6,A*%
%TO.N,/bluesbreaker/4.5V*%
X1270000Y25310000D03*
%TO.P,SW2,7,B*%
%TO.N,/bluesbreaker/sw7*%
X-1270000Y25310000D03*
%TO.P,SW2,8,A*%
%TO.N,unconnected-(SW2A-A-Pad8)*%
X-3810000Y25310000D03*
%TD*%
D20*
%TO.P,D11,1,K*%
%TO.N,/bluesbreaker/sw3*%
X100000Y-4900000D03*
D21*
%TO.P,D11,2,A*%
%TO.N,Net-(D10-K)*%
X-4900000Y-4900000D03*
%TD*%
D20*
%TO.P,D10,1,K*%
%TO.N,Net-(D10-K)*%
X100000Y-1920000D03*
D21*
%TO.P,D10,2,A*%
%TO.N,Net-(D10-A)*%
X-4900000Y-1920000D03*
%TD*%
D20*
%TO.P,C31,1*%
%TO.N,/bluesbreaker/4.5V*%
X21700000Y37450000D03*
D19*
%TO.P,C31,2*%
%TO.N,Earth*%
X21700000Y39950000D03*
%TD*%
D15*
%TO.P,R14,1*%
%TO.N,Net-(C10-Pad2)*%
X-24000000Y1474000D03*
D16*
%TO.P,R14,2*%
%TO.N,Net-(R14-Pad2)*%
X-19000000Y1474000D03*
%TD*%
D39*
%TO.P,FB3,1*%
%TO.N,+9V*%
X6300000Y39625000D03*
%TO.P,FB3,2*%
%TO.N,/bluesbreaker/9V*%
X6300000Y37575000D03*
%TD*%
D19*
%TO.P,C16,1*%
%TO.N,Net-(C15-Pad2)*%
X23600000Y28595000D03*
%TO.P,C16,2*%
%TO.N,Net-(C16-Pad2)*%
X18600000Y28595000D03*
%TD*%
D24*
%TO.P,C29,1*%
%TO.N,Net-(Q6-E)*%
X39350000Y-6600000D03*
D25*
%TO.P,C29,2*%
%TO.N,Net-(C29-Pad2)*%
X40850000Y-6600000D03*
%TD*%
D28*
%TO.P,RV8,1,1*%
%TO.N,Earth*%
X50000000Y13500000D03*
D29*
%TO.P,RV8,2,2*%
%TO.N,/bluesbreaker-return*%
X45000000Y13500000D03*
%TO.P,RV8,3,3*%
%TO.N,Net-(C27-Pad2)*%
X40000000Y13500000D03*
%TD*%
D40*
%TO.P,Q6,1,B*%
%TO.N,Net-(Q6-B)*%
X49200000Y-11050000D03*
%TO.P,Q6,2,E*%
%TO.N,Net-(Q6-E)*%
X49200000Y-9150000D03*
%TO.P,Q6,3,C*%
%TO.N,/bluesbreaker/9V*%
X46200000Y-10100000D03*
%TD*%
D15*
%TO.P,R24,1*%
%TO.N,/bluesbreaker/sw2*%
X7900000Y24800000D03*
D16*
%TO.P,R24,2*%
%TO.N,Net-(R24-Pad2)*%
X12900000Y24800000D03*
%TD*%
D35*
%TO.P,R6,1*%
%TO.N,Earth*%
X-47100000Y-17100000D03*
%TO.P,R6,2*%
%TO.N,Net-(C4-Pad1)*%
X-49100000Y-17100000D03*
%TD*%
D19*
%TO.P,C5,1*%
%TO.N,Earth*%
X-50975000Y-11200000D03*
%TO.P,C5,2*%
%TO.N,Net-(C4-Pad1)*%
X-45975000Y-11200000D03*
%TD*%
D15*
%TO.P,R15,1*%
%TO.N,/Zendrive/Q1G*%
X-9200000Y-4000000D03*
D16*
%TO.P,R15,2*%
%TO.N,/Zendrive/9V*%
X-14200000Y-4000000D03*
%TD*%
D18*
%TO.P,FB2,1*%
%TO.N,+9V*%
X-48075000Y35500000D03*
%TO.P,FB2,2*%
%TO.N,/Zendrive/9V*%
X-50125000Y35500000D03*
%TD*%
D20*
%TO.P,C2,1*%
%TO.N,+9V*%
X-21200000Y37550000D03*
D19*
%TO.P,C2,2*%
%TO.N,Earth*%
X-21200000Y40050000D03*
%TD*%
D15*
%TO.P,R16,1*%
%TO.N,/Zendrive/Q1D*%
X-9200000Y-6400000D03*
D16*
%TO.P,R16,2*%
%TO.N,/Zendrive/9V*%
X-14200000Y-6400000D03*
%TD*%
D15*
%TO.P,R31,1*%
%TO.N,Net-(C21-Pad2)*%
X32500000Y-8200000D03*
D16*
%TO.P,R31,2*%
%TO.N,Net-(C22-Pad1)*%
X27500000Y-8200000D03*
%TD*%
D15*
%TO.P,R3,1*%
%TO.N,/V+1*%
X-9000000Y25100000D03*
D16*
%TO.P,R3,2*%
%TO.N,+9V*%
X-9000000Y30100000D03*
%TD*%
D15*
%TO.P,R19,1*%
%TO.N,Earth*%
X12900000Y22133333D03*
D16*
%TO.P,R19,2*%
%TO.N,/bluesbreaker-send*%
X7900000Y22133333D03*
%TD*%
D19*
%TO.P,C4,1*%
%TO.N,Net-(C4-Pad1)*%
X-50975000Y-7000000D03*
%TO.P,C4,2*%
%TO.N,Net-(C4-Pad2)*%
X-45975000Y-7000000D03*
%TD*%
%TO.P,C21,1*%
%TO.N,/bluesbreaker/4.5V*%
X16100000Y-11100000D03*
%TO.P,C21,2*%
%TO.N,Net-(C21-Pad2)*%
X21100000Y-11100000D03*
%TD*%
D28*
%TO.P,RV2,1,1*%
%TO.N,Net-(D3-A)*%
X-40000000Y13500000D03*
D29*
%TO.P,RV2,2,2*%
%TO.N,Net-(R10-Pad1)*%
X-45000000Y13500000D03*
%TO.P,RV2,3,3*%
%TO.N,Net-(D4-A)*%
X-50000000Y13500000D03*
%TD*%
D28*
%TO.P,RV9,1,1*%
%TO.N,Net-(U4A--)*%
X50000000Y-14500000D03*
D29*
%TO.P,RV9,2,2*%
%TO.N,Net-(C25-Pad1)*%
X45000000Y-14500000D03*
%TO.P,RV9,3,3*%
X40000000Y-14500000D03*
%TD*%
D28*
%TO.P,RV3,1,1*%
%TO.N,Net-(R11-Pad2)*%
X-10000000Y-14500000D03*
D29*
%TO.P,RV3,2,2*%
X-15000000Y-14500000D03*
%TO.P,RV3,3,3*%
%TO.N,Net-(U2B-+)*%
X-20000000Y-14500000D03*
%TD*%
D15*
%TO.P,R29,1*%
%TO.N,/bluesbreaker/sw5*%
X11000000Y1028571D03*
D16*
%TO.P,R29,2*%
%TO.N,Net-(D10-A)*%
X6000000Y1028571D03*
%TD*%
D15*
%TO.P,R10,1*%
%TO.N,Net-(R10-Pad1)*%
X-32500000Y14600000D03*
D16*
%TO.P,R10,2*%
%TO.N,Net-(D4-A)*%
X-27500000Y14600000D03*
%TD*%
D15*
%TO.P,R25,1*%
%TO.N,/bluesbreaker/sw7*%
X7900000Y27466667D03*
D16*
%TO.P,R25,2*%
%TO.N,Net-(R24-Pad2)*%
X12900000Y27466667D03*
%TD*%
D36*
%TO.P,C18,1*%
%TO.N,/bluesbreaker/sw7*%
X19850000Y24790000D03*
%TO.P,C18,2*%
%TO.N,Net-(C18-Pad2)*%
X22350000Y24790000D03*
%TD*%
D15*
%TO.P,R8,1*%
%TO.N,Net-(R7-Pad2)*%
X-41000000Y-8166667D03*
D16*
%TO.P,R8,2*%
%TO.N,Net-(D3-A)*%
X-36000000Y-8166667D03*
%TD*%
D41*
%TO.P,R18,1*%
%TO.N,Earth*%
X-52500000Y23500000D03*
%TO.P,R18,2*%
%TO.N,/Zendrive/4.5V*%
X-50500000Y23500000D03*
%TD*%
D15*
%TO.P,R4,1*%
%TO.N,Earth*%
X-27500000Y-11500000D03*
D16*
%TO.P,R4,2*%
%TO.N,/zendrive_send*%
X-32500000Y-11500000D03*
%TD*%
D35*
%TO.P,R1,1*%
%TO.N,Earth*%
X-7400000Y40400000D03*
%TO.P,R1,2*%
%TO.N,Net-(D1-A)*%
X-9400000Y40400000D03*
%TD*%
D42*
%TO.P,R43,1*%
%TO.N,Earth*%
X17200000Y39600000D03*
%TO.P,R43,2*%
%TO.N,/bluesbreaker/4.5V*%
X17200000Y37600000D03*
%TD*%
D36*
%TO.P,C9,1*%
%TO.N,Net-(U2B--)*%
X-22850000Y6800000D03*
%TO.P,C9,2*%
%TO.N,Net-(C10-Pad1)*%
X-20350000Y6800000D03*
%TD*%
D15*
%TO.P,R34,1*%
%TO.N,Net-(C24-Pad2)*%
X47500000Y10000000D03*
D16*
%TO.P,R34,2*%
%TO.N,Net-(U4B--)*%
X52500000Y10000000D03*
%TD*%
D20*
%TO.P,C12,1*%
%TO.N,/Zendrive/9V*%
X-50500000Y29450000D03*
D19*
%TO.P,C12,2*%
%TO.N,Earth*%
X-50500000Y31950000D03*
%TD*%
D43*
%TO.P,D1,1,K*%
%TO.N,Net-(D1-K)*%
X-9350000Y34500000D03*
%TO.P,D1,2,A*%
%TO.N,Net-(D1-A)*%
X-6850000Y34500000D03*
%TD*%
D44*
%TO.P,SW1,1,A*%
%TO.N,Earth*%
X-30000000Y-2700000D03*
%TO.P,SW1,2,B*%
%TO.N,/Zendrive/Q1G*%
X-30000000Y2000000D03*
%TO.P,SW1,3,C*%
%TO.N,unconnected-(SW1-C-Pad3)*%
X-30000000Y6700000D03*
%TD*%
D45*
%TO.N,Earth*%
X-16800000Y24200000D03*
X-17300000Y20300000D03*
X17200000Y40600000D03*
X-19900000Y18200000D03*
X38300000Y-100000D03*
X-18600000Y18200000D03*
X-46100000Y-17100000D03*
X20500000Y6600000D03*
X-53500000Y23500000D03*
X43900000Y-3400000D03*
X-39800000Y2100000D03*
X-38900000Y7700000D03*
X-6500000Y40400000D03*
X-14500000Y-10800000D03*
X14600000Y7100000D03*
%TO.N,Net-(C4-Pad1)*%
X-53200000Y14100000D03*
%TO.N,Net-(D4-A)*%
X-48400000Y2400000D03*
X-48363603Y9163603D03*
%TO.N,/Zendrive/9V*%
X-20900000Y24200000D03*
X-34700000Y7700000D03*
%TO.N,/bluesbreaker/4.5V*%
X19200000Y3700000D03*
X42600000Y-3400000D03*
X43900000Y1500000D03*
%TO.N,Net-(D3-K)*%
X-45700000Y500000D03*
%TO.N,/Zendrive/Q1D*%
X-23600000Y20200000D03*
X-14700000Y20400000D03*
%TO.N,/Zendrive/Q1G*%
X-23700000Y18300000D03*
%TO.N,/bluesbreaker/9V*%
X30600000Y6900000D03*
X46200000Y-9300000D03*
X14600000Y11200000D03*
X38300000Y4000000D03*
%TD*%
D46*
%TO.N,Net-(C20-Pad2)*%
X20000000Y-13000000D02*
X20000000Y-14500000D01*
X19100000Y-12100000D02*
X20000000Y-13000000D01*
X19100000Y-10100000D02*
X19100000Y-12100000D01*
X21100000Y-8100000D02*
X19100000Y-10100000D01*
%TO.N,Net-(C21-Pad2)*%
X31100000Y-9600000D02*
X32500000Y-8200000D01*
X26400000Y-9600000D02*
X31100000Y-9600000D01*
X24900000Y-11100000D02*
X26400000Y-9600000D01*
X21100000Y-11100000D02*
X24900000Y-11100000D01*
%TO.N,Earth*%
X38300000Y862500D02*
X38300000Y-100000D01*
X20505000Y5125000D02*
X20505000Y6595000D01*
X-19835000Y16755000D02*
X-19835000Y18135000D01*
X43905000Y-3395000D02*
X43900000Y-3400000D01*
X-13200000Y-10750000D02*
X-14450000Y-10750000D01*
X-52500000Y23500000D02*
X-53500000Y23500000D01*
X-18565000Y18165000D02*
X-18600000Y18200000D01*
X-17295000Y21705000D02*
X-17295000Y20305000D01*
X14600000Y7800000D02*
X14600000Y7100000D01*
X14600000Y8062500D02*
X14600000Y7800000D01*
X-17295000Y20305000D02*
X-17300000Y20300000D01*
X43905000Y-2075000D02*
X43905000Y-3395000D01*
X-7400000Y40400000D02*
X-6500000Y40400000D01*
X-40975000Y2095000D02*
X-39805000Y2095000D01*
X-17762500Y24200000D02*
X-16800000Y24200000D01*
X-18565000Y16755000D02*
X-18565000Y18165000D01*
X20505000Y6595000D02*
X20500000Y6600000D01*
X-14450000Y-10750000D02*
X-14500000Y-10800000D01*
X-39805000Y2095000D02*
X-39800000Y2100000D01*
X-19835000Y18135000D02*
X-19900000Y18200000D01*
X17200000Y39600000D02*
X17200000Y40600000D01*
X-37937500Y7700000D02*
X-38900000Y7700000D01*
X-47100000Y-17100000D02*
X-46100000Y-17100000D01*
%TO.N,Net-(D1-K)*%
X-11700000Y35700000D02*
X-13000000Y35700000D01*
X-9400000Y36350000D02*
X-9400000Y34550000D01*
X-13000000Y35700000D02*
X-13275000Y35425000D01*
X-9350000Y34500000D02*
X-10500000Y34500000D01*
X-14300000Y37550000D02*
X-14300000Y35900000D01*
X-10500000Y34500000D02*
X-11700000Y35700000D01*
X-14300000Y35900000D02*
X-13825000Y35425000D01*
X-9400000Y34550000D02*
X-9350000Y34500000D01*
X-13275000Y35425000D02*
X-13275000Y34200000D01*
X-13825000Y35425000D02*
X-13275000Y35425000D01*
%TO.N,+9V*%
X-21200000Y37550000D02*
X-18750000Y37550000D01*
X-24100000Y38300000D02*
X-24100000Y41400000D01*
X5400000Y42500000D02*
X6300000Y41600000D01*
X-21200000Y37550000D02*
X-21200000Y35100000D01*
X-23350000Y37550000D02*
X-24100000Y38300000D01*
X-24100000Y41400000D02*
X-25200000Y42500000D01*
X-48075000Y40525000D02*
X-48075000Y35500000D01*
X6300000Y41600000D02*
X6300000Y39625000D01*
X-21200000Y35100000D02*
X-20300000Y34200000D01*
X-21200000Y37550000D02*
X-23350000Y37550000D01*
X-18000000Y41400000D02*
X-16900000Y42500000D01*
X-46100000Y42500000D02*
X-48075000Y40525000D01*
X-25200000Y42500000D02*
X-46100000Y42500000D01*
X-22900000Y30100000D02*
X-11100000Y30100000D01*
X-9000000Y30100000D02*
X-11100000Y30100000D01*
X-18000000Y38300000D02*
X-18000000Y41400000D01*
X-16900000Y42500000D02*
X5400000Y42500000D01*
X-20300000Y34200000D02*
X-15325000Y34200000D01*
X-24100000Y31300000D02*
X-22900000Y30100000D01*
X-24100000Y36800000D02*
X-24100000Y31300000D01*
X-23350000Y37550000D02*
X-24100000Y36800000D01*
X-18750000Y37550000D02*
X-18000000Y38300000D01*
%TO.N,Net-(U2A-+)*%
X-42649000Y-249000D02*
X-43400000Y-1000000D01*
X-43400000Y-1000000D02*
X-43400000Y-2100000D01*
X-41635000Y3365000D02*
X-42649000Y2351000D01*
X-36600000Y-6600000D02*
X-40400000Y-2800000D01*
X-42700000Y-2800000D02*
X-43400000Y-2100000D01*
X-40975000Y3365000D02*
X-41635000Y3365000D01*
X-44100000Y-2800000D02*
X-43400000Y-2100000D01*
X-40400000Y-2800000D02*
X-42700000Y-2800000D01*
X-45975000Y-2800000D02*
X-44100000Y-2800000D01*
X-34100000Y-6600000D02*
X-36600000Y-6600000D01*
X-42649000Y2351000D02*
X-42649000Y-249000D01*
X-32500000Y-8200000D02*
X-34100000Y-6600000D01*
%TO.N,/zendrive_send*%
X-46513892Y-5699000D02*
X-45436108Y-5699000D01*
X-44400000Y-5700000D02*
X-43800000Y-6300000D01*
X-37700000Y-9500000D02*
X-37300000Y-9900000D01*
X-34100000Y-9900000D02*
X-32500000Y-11500000D01*
X-43800000Y-6300000D02*
X-43800000Y-8200000D01*
X-37300000Y-9900000D02*
X-34100000Y-9900000D01*
X-43800000Y-8200000D02*
X-42500000Y-9500000D01*
X-45436108Y-5699000D02*
X-45435108Y-5700000D01*
X-45435108Y-5700000D02*
X-44400000Y-5700000D01*
X-32500000Y-16270000D02*
X-31270000Y-17500000D01*
X-42500000Y-9500000D02*
X-37700000Y-9500000D01*
X-32500000Y-11500000D02*
X-32500000Y-16270000D01*
X-50975000Y-4125000D02*
X-49400000Y-5700000D01*
X-46514892Y-5700000D02*
X-46513892Y-5699000D01*
X-49400000Y-5700000D02*
X-46514892Y-5700000D01*
X-50975000Y-2800000D02*
X-50975000Y-4125000D01*
%TO.N,/output_jack*%
X51251000Y-19249000D02*
X35559000Y-19249000D01*
X54249000Y19351000D02*
X54249000Y-16251000D01*
X54249000Y-16251000D02*
X51251000Y-19249000D01*
X30200000Y21200000D02*
X52400000Y21200000D01*
X35559000Y-19249000D02*
X33810000Y-17500000D01*
X27750000Y23650000D02*
X30200000Y21200000D01*
X52400000Y21200000D02*
X54249000Y19351000D01*
%TO.N,Net-(C4-Pad1)*%
X-51700000Y-12800000D02*
X-48900000Y-12800000D01*
X-51600000Y15700000D02*
X-53200000Y14100000D01*
X-48600000Y-8100000D02*
X-48600000Y-9900000D01*
X-49700000Y-7000000D02*
X-48600000Y-8100000D01*
X-48900000Y-12800000D02*
X-47300000Y-11200000D01*
X-52400000Y-16300000D02*
X-52400000Y-13500000D01*
X-16025000Y21705000D02*
X-16025000Y22875000D01*
X-50975000Y-7000000D02*
X-49700000Y-7000000D01*
X-15400000Y23500000D02*
X-15400000Y24700000D01*
X-47300000Y-11200000D02*
X-45975000Y-11200000D01*
X-48600000Y-9900000D02*
X-47300000Y-11200000D01*
X-47200000Y15700000D02*
X-51600000Y15700000D01*
X-37200000Y25700000D02*
X-47200000Y15700000D01*
X-49100000Y-17100000D02*
X-51600000Y-17100000D01*
X-15400000Y24700000D02*
X-16400000Y25700000D01*
X-52400000Y-13500000D02*
X-51700000Y-12800000D01*
X-16400000Y25700000D02*
X-37200000Y25700000D01*
X-16025000Y22875000D02*
X-15400000Y23500000D01*
X-51600000Y-17100000D02*
X-52400000Y-16300000D01*
%TO.N,Net-(C4-Pad2)*%
X-42626000Y-10251000D02*
X-38349000Y-10251000D01*
X-43200000Y-11000000D02*
X-43200000Y-10825000D01*
X-45975000Y-9225000D02*
X-45425000Y-9775000D01*
X-38349000Y-10251000D02*
X-37100000Y-11500000D01*
X-43200000Y-12700000D02*
X-45000000Y-14500000D01*
X-45425000Y-9775000D02*
X-44250000Y-9775000D01*
X-44250000Y-9775000D02*
X-43200000Y-10825000D01*
X-45975000Y-7000000D02*
X-45975000Y-9225000D01*
X-37100000Y-11500000D02*
X-36000000Y-11500000D01*
X-43200000Y-11000000D02*
X-43200000Y-12700000D01*
X-43200000Y-10825000D02*
X-42626000Y-10251000D01*
X-45000000Y-14500000D02*
X-40000000Y-14500000D01*
%TO.N,Net-(D3-A)*%
X-50600000Y4300000D02*
X-50600000Y2400000D01*
X-44088926Y-4949000D02*
X-48251000Y-4949000D01*
X-52600000Y2350000D02*
X-52550000Y2400000D01*
X-38100000Y13500000D02*
X-37250000Y12650000D01*
X-37250000Y12650000D02*
X-37250000Y10300000D01*
X-39600000Y-6900000D02*
X-42137926Y-6900000D01*
X-37250000Y10300000D02*
X-36250000Y9300000D01*
X-39300000Y6400000D02*
X-39300000Y5100000D01*
X-36000000Y-8166667D02*
X-38333333Y-8166667D01*
X-37600000Y10300000D02*
X-40000000Y7900000D01*
X-51100000Y4800000D02*
X-50600000Y4300000D01*
X-50600000Y2400000D02*
X-49600000Y1400000D01*
X-48251000Y-4949000D02*
X-49600000Y-3600000D01*
X-50600000Y2400000D02*
X-49600000Y3400000D01*
X-49600000Y3400000D02*
X-44200000Y3400000D01*
X-39765000Y4635000D02*
X-40975000Y4635000D01*
X-52550000Y2400000D02*
X-50600000Y2400000D01*
X-40000000Y7100000D02*
X-39300000Y6400000D01*
X-37250000Y10300000D02*
X-37600000Y10300000D01*
X-36250000Y9300000D02*
X-29300000Y9300000D01*
X-42965000Y4635000D02*
X-40975000Y4635000D01*
X-29300000Y9300000D02*
X-27500000Y11100000D01*
X-39300000Y5100000D02*
X-39765000Y4635000D01*
X-42137926Y-6900000D02*
X-44088926Y-4949000D01*
X-38333333Y-8166667D02*
X-39600000Y-6900000D01*
X-49600000Y-3600000D02*
X-49600000Y1400000D01*
X-40000000Y13500000D02*
X-38100000Y13500000D01*
X-44200000Y3400000D02*
X-42965000Y4635000D01*
X-40000000Y7900000D02*
X-40000000Y7100000D01*
%TO.N,Net-(D4-A)*%
X-44800000Y-900000D02*
X-44100000Y-200000D01*
X-41499000Y-4101000D02*
X-47099000Y-4101000D01*
X-45050000Y2350000D02*
X-44100000Y1400000D01*
X-41400000Y15500000D02*
X-35800000Y15500000D01*
X-42405000Y5905000D02*
X-40975000Y5905000D01*
X-47100000Y2350000D02*
X-48350000Y2350000D01*
X-43200000Y9300000D02*
X-43200000Y6700000D01*
X-27500000Y14600000D02*
X-27500000Y17400000D01*
X-28900000Y13200000D02*
X-27500000Y14600000D01*
X-44100000Y-200000D02*
X-44100000Y1400000D01*
X-48350000Y2350000D02*
X-48400000Y2400000D01*
X-42200000Y14700000D02*
X-41400000Y15500000D01*
X-21606000Y19299000D02*
X-21105000Y19800000D01*
X-48000000Y-1500000D02*
X-47400000Y-900000D01*
X-48363603Y9163603D02*
X-43336397Y9163603D01*
X-35800000Y15500000D02*
X-33500000Y13200000D01*
X-43200000Y6700000D02*
X-42405000Y5905000D01*
X-21105000Y21705000D02*
X-21105000Y19800000D01*
X-39750000Y10300000D02*
X-42200000Y10300000D01*
X-27500000Y17400000D02*
X-25601000Y19299000D01*
X-48000000Y-3200000D02*
X-48000000Y-1500000D01*
X-47400000Y-900000D02*
X-44800000Y-900000D01*
X-42200000Y10300000D02*
X-43200000Y9300000D01*
X-47099000Y-4101000D02*
X-48000000Y-3200000D01*
X-33500000Y13200000D02*
X-28900000Y13200000D01*
X-42200000Y10300000D02*
X-42200000Y14700000D01*
X-21105000Y18798000D02*
X-21606000Y19299000D01*
X-21105000Y16755000D02*
X-21105000Y18798000D01*
X-25601000Y19299000D02*
X-21606000Y19299000D01*
X-41000000Y-4600000D02*
X-41499000Y-4101000D01*
X-47100000Y2350000D02*
X-45050000Y2350000D01*
X-43336397Y9163603D02*
X-43200000Y9300000D01*
%TO.N,Net-(U2B-+)*%
X-22400000Y-11200000D02*
X-22400000Y-5800000D01*
X-32700000Y-700000D02*
X-33300000Y-100000D01*
X-23300000Y-4900000D02*
X-26500000Y-4900000D01*
X-28200000Y-700000D02*
X-32700000Y-700000D01*
X-26500000Y-4900000D02*
X-27400000Y-4000000D01*
X-33795000Y2095000D02*
X-36025000Y2095000D01*
X-22400000Y-11200000D02*
X-24000000Y-11200000D01*
X-33300000Y-100000D02*
X-33300000Y1600000D01*
X-20000000Y-13600000D02*
X-22400000Y-11200000D01*
X-20000000Y-14500000D02*
X-20000000Y-13600000D01*
X-33300000Y1600000D02*
X-33795000Y2095000D01*
X-22400000Y-5800000D02*
X-23300000Y-4900000D01*
X-27400000Y-4000000D02*
X-27400000Y-1500000D01*
X-27400000Y-1500000D02*
X-28200000Y-700000D01*
%TO.N,Net-(C8-Pad2)*%
X-33300000Y-3200000D02*
X-30300000Y-6200000D01*
X-24877000Y-6200000D02*
X-24000000Y-7077000D01*
X-38300000Y-3200000D02*
X-33300000Y-3200000D01*
X-30300000Y-6200000D02*
X-24877000Y-6200000D01*
X-41100000Y-1500000D02*
X-40000000Y-1500000D01*
X-40000000Y-1500000D02*
X-38300000Y-3200000D01*
%TO.N,Net-(C10-Pad1)*%
X-20350000Y4550000D02*
X-19742000Y3942000D01*
X-20350000Y6800000D02*
X-21850000Y8300000D01*
X-21850000Y8300000D02*
X-23800000Y8300000D01*
X-19742000Y3942000D02*
X-19000000Y3942000D01*
X-35960000Y4700000D02*
X-36025000Y4635000D01*
X-20300000Y-899000D02*
X-19000000Y-2199000D01*
X-25100000Y7000000D02*
X-25100000Y5875000D01*
X-26275000Y4700000D02*
X-35960000Y4700000D01*
X-19742000Y3942000D02*
X-20300000Y3384000D01*
X-25100000Y5875000D02*
X-26275000Y4700000D01*
X-20350000Y6800000D02*
X-20350000Y4550000D01*
X-23800000Y8300000D02*
X-25100000Y7000000D01*
X-20300000Y3384000D02*
X-20300000Y-899000D01*
%TO.N,Net-(U2B--)*%
X-37435000Y3365000D02*
X-37900000Y2900000D01*
X-37900000Y2900000D02*
X-37900000Y-900000D01*
X-22850000Y6800000D02*
X-22850000Y5092000D01*
X-36025000Y3365000D02*
X-37435000Y3365000D01*
X-37900000Y-900000D02*
X-37300000Y-1500000D01*
X-22850000Y5092000D02*
X-24000000Y3942000D01*
X-33358000Y3942000D02*
X-33935000Y3365000D01*
X-33935000Y3365000D02*
X-36025000Y3365000D01*
X-37300000Y-1500000D02*
X-36100000Y-1500000D01*
X-24000000Y3942000D02*
X-33358000Y3942000D01*
%TO.N,Net-(C10-Pad2)*%
X-24000000Y1474000D02*
X-24000000Y-2199000D01*
%TO.N,/Zendrive/9V*%
X-50125000Y35500000D02*
X-52100000Y35500000D01*
X-19835000Y21705000D02*
X-19835000Y24197500D01*
X-19835000Y24197500D02*
X-19837500Y24200000D01*
X-52450000Y29450000D02*
X-50500000Y29450000D01*
X-52500000Y29400000D02*
X-52450000Y29450000D01*
X-19837500Y24200000D02*
X-20900000Y24200000D01*
X-52100000Y35500000D02*
X-53100000Y34500000D01*
X-35862500Y6067500D02*
X-36025000Y5905000D01*
X-35862500Y7700000D02*
X-35862500Y6067500D01*
X-14200000Y-6400000D02*
X-14200000Y-4000000D01*
X-52500000Y25500000D02*
X-52500000Y29400000D01*
X-53100000Y34500000D02*
X-53100000Y30100000D01*
X-19835000Y21705000D02*
X-18565000Y21705000D01*
X-53100000Y30100000D02*
X-52450000Y29450000D01*
X-35862500Y7700000D02*
X-34700000Y7700000D01*
%TO.N,/Zendrive/4.5V*%
X-50500000Y25500000D02*
X-50500000Y23500000D01*
X-50500000Y23500000D02*
X-48700000Y21700000D01*
X-48700000Y18500000D02*
X-49450000Y17750000D01*
X-48700000Y21700000D02*
X-48700000Y18500000D01*
X-49450000Y17750000D02*
X-50500000Y17750000D01*
%TO.N,Net-(C15-Pad2)*%
X22405000Y28595000D02*
X18600000Y32400000D01*
X14700000Y32800000D02*
X15100000Y32400000D01*
X15100000Y32400000D02*
X18600000Y32400000D01*
X12900000Y32800000D02*
X14700000Y32800000D01*
X23600000Y28595000D02*
X22405000Y28595000D01*
%TO.N,Net-(D5-K)*%
X-2700000Y10000000D02*
X100000Y12800000D01*
X-4900000Y10000000D02*
X-2700000Y10000000D01*
%TO.N,Net-(C16-Pad2)*%
X15366667Y30133333D02*
X12900000Y30133333D01*
X16905000Y28595000D02*
X15366667Y30133333D01*
X18600000Y28595000D02*
X16905000Y28595000D01*
%TO.N,Net-(C21-Pad2)*%
X32500000Y-5000000D02*
X32500000Y-8200000D01*
%TO.N,Net-(C26-Pad2)*%
X44400000Y18400000D02*
X48950000Y18400000D01*
X42600000Y16600000D02*
X44400000Y18400000D01*
X41365000Y4335000D02*
X41365000Y2875000D01*
X49200000Y7100000D02*
X49200000Y10600000D01*
X44100000Y11500000D02*
X42600000Y13000000D01*
X48300000Y11500000D02*
X44100000Y11500000D01*
X38750000Y6300000D02*
X39400000Y6300000D01*
X47500000Y5400000D02*
X49200000Y7100000D01*
X49200000Y10600000D02*
X48300000Y11500000D01*
X47500000Y5400000D02*
X45000000Y7900000D01*
X45000000Y7900000D02*
X41000000Y7900000D01*
X42600000Y13000000D02*
X42600000Y16600000D01*
X41000000Y7900000D02*
X39400000Y6300000D01*
X39400000Y6300000D02*
X41365000Y4335000D01*
%TO.N,Net-(C27-Pad2)*%
X40000000Y17600000D02*
X40000000Y13500000D01*
X42400000Y20000000D02*
X40000000Y17600000D01*
X50450000Y18400000D02*
X50450000Y19248528D01*
X49698528Y20000000D02*
X42400000Y20000000D01*
X50450000Y19248528D02*
X49698528Y20000000D01*
%TO.N,Net-(C29-Pad2)*%
X40850000Y-6600000D02*
X42900000Y-6600000D01*
X42900000Y-6600000D02*
X47500000Y-2000000D01*
%TO.N,Net-(C17-Pad1)*%
X14666667Y19466667D02*
X12900000Y19466667D01*
X16245000Y21045000D02*
X14666667Y19466667D01*
X18600000Y21045000D02*
X16245000Y21045000D01*
%TO.N,Net-(C18-Pad2)*%
X11700000Y26200000D02*
X15400000Y26200000D01*
X10400000Y16100000D02*
X10400000Y24900000D01*
X10400000Y24900000D02*
X11700000Y26200000D01*
X15000000Y13500000D02*
X13200000Y11700000D01*
X8400000Y12500000D02*
X8400000Y14100000D01*
X15000000Y13500000D02*
X15900000Y13500000D01*
X8400000Y14100000D02*
X10400000Y16100000D01*
X15400000Y26200000D02*
X18149000Y23451000D01*
X21011000Y23451000D02*
X22350000Y24790000D01*
X15900000Y13500000D02*
X17965000Y11435000D01*
X13200000Y11700000D02*
X9200000Y11700000D01*
X17965000Y11435000D02*
X17965000Y10075000D01*
X18149000Y23451000D02*
X21011000Y23451000D01*
X9200000Y11700000D02*
X8400000Y12500000D01*
%TO.N,/bluesbreaker/4.5V*%
X42635000Y-2075000D02*
X42635000Y-3365000D01*
X19235000Y3735000D02*
X19200000Y3700000D01*
X19235000Y5125000D02*
X19235000Y3735000D01*
X21550000Y37600000D02*
X21700000Y37450000D01*
X43905000Y1505000D02*
X43900000Y1500000D01*
X42635000Y-3365000D02*
X42600000Y-3400000D01*
X17200000Y37600000D02*
X21550000Y37600000D01*
X43905000Y2875000D02*
X43905000Y1505000D01*
X15300000Y37600000D02*
X17200000Y37600000D01*
%TO.N,Net-(C22-Pad1)*%
X19000000Y-5100000D02*
X16400000Y-5100000D01*
X20701000Y-5101000D02*
X20700000Y-5100000D01*
X30000000Y-5000000D02*
X27500000Y-5000000D01*
X8828571Y-1928571D02*
X11000000Y-4100000D01*
X15800000Y-5100000D02*
X14000000Y-5100000D01*
X12500000Y-3600000D02*
X11500000Y-3600000D01*
X16100000Y-4800000D02*
X16100000Y-3800000D01*
X11500000Y-3600000D02*
X11000000Y-4100000D01*
X6000000Y-1928571D02*
X8828571Y-1928571D01*
X16400000Y-5100000D02*
X16100000Y-4800000D01*
X27399000Y-5101000D02*
X20701000Y-5101000D01*
X20060000Y-5100000D02*
X19530000Y-4570000D01*
X27500000Y-8200000D02*
X27500000Y-5000000D01*
X19530000Y-4570000D02*
X19000000Y-5100000D01*
X14000000Y-5100000D02*
X12500000Y-3600000D01*
X19530000Y1400000D02*
X19530000Y-4570000D01*
X27500000Y-5000000D02*
X27399000Y-5101000D01*
X20700000Y-5100000D02*
X20060000Y-5100000D01*
X16100000Y-4800000D02*
X15800000Y-5100000D01*
X11000000Y-4100000D02*
X11000000Y-4885714D01*
%TO.N,Net-(Q5-B)*%
X22000000Y1400000D02*
X21030000Y1400000D01*
X21030000Y1400000D02*
X21030000Y-3730000D01*
X26200000Y10000000D02*
X29000000Y12800000D01*
X21030000Y-3730000D02*
X21100000Y-3800000D01*
X22700000Y5900000D02*
X22700000Y2100000D01*
X26200000Y7850000D02*
X26200000Y10000000D01*
X24650000Y7850000D02*
X22700000Y5900000D01*
X22700000Y2100000D02*
X22000000Y1400000D01*
X26200000Y7850000D02*
X24650000Y7850000D01*
%TO.N,Net-(C24-Pad2)*%
X42600000Y11700000D02*
X43949000Y10351000D01*
X47149000Y10351000D02*
X47500000Y10000000D01*
X34230000Y11700000D02*
X42600000Y11700000D01*
X43949000Y10351000D02*
X47149000Y10351000D01*
%TO.N,Net-(D1-A)*%
X-9400000Y40400000D02*
X-9400000Y38250000D01*
X-6850000Y35803094D02*
X-6850000Y34500000D01*
X-9296906Y38250000D02*
X-6850000Y35803094D01*
X-9400000Y38250000D02*
X-9296906Y38250000D01*
%TO.N,Net-(D2-A)*%
X-44100000Y17300000D02*
X-48200000Y13200000D01*
X-29000000Y17300000D02*
X-44100000Y17300000D01*
X-46100000Y10600000D02*
X-48200000Y10600000D01*
X-24900000Y23400000D02*
X-25800000Y22500000D01*
X-25800000Y22500000D02*
X-25800000Y20500000D01*
X-48200000Y10600000D02*
X-51100000Y7700000D01*
X-22375000Y21705000D02*
X-22375000Y22775000D01*
X-48200000Y13200000D02*
X-48200000Y10600000D01*
X-22375000Y22775000D02*
X-23000000Y23400000D01*
X-23000000Y23400000D02*
X-24900000Y23400000D01*
X-25800000Y20500000D02*
X-29000000Y17300000D01*
%TO.N,Net-(D2-K)*%
X-52600000Y450000D02*
X-53550000Y450000D01*
X-53550000Y450000D02*
X-54100000Y1000000D01*
X-54100000Y1000000D02*
X-54100000Y5500000D01*
X-53400000Y6200000D02*
X-47600000Y6200000D01*
X-54100000Y5500000D02*
X-53400000Y6200000D01*
X-47600000Y6200000D02*
X-46100000Y7700000D01*
%TO.N,Net-(D3-K)*%
X-47050000Y500000D02*
X-47100000Y450000D01*
X-45700000Y500000D02*
X-47050000Y500000D01*
%TO.N,Net-(D5-A)*%
X4742857Y6942857D02*
X1840000Y4040000D01*
X6000000Y6942857D02*
X4742857Y6942857D01*
X-4900000Y12800000D02*
X-3100000Y14600000D01*
X900000Y14600000D02*
X2700000Y12800000D01*
X-3100000Y14600000D02*
X900000Y14600000D01*
X2700000Y12800000D02*
X2700000Y8985714D01*
X1840000Y4040000D02*
X100000Y4040000D01*
X2700000Y8985714D02*
X4742857Y6942857D01*
%TO.N,Net-(Q5-E)*%
X31100000Y11700000D02*
X30000000Y10600000D01*
X30000000Y10600000D02*
X28900000Y10600000D01*
X26200000Y5950000D02*
X27250000Y5950000D01*
X27250000Y5950000D02*
X27749000Y6449000D01*
X27749000Y6449000D02*
X27749000Y9449000D01*
X27749000Y9449000D02*
X28900000Y10600000D01*
X32730000Y11700000D02*
X31100000Y11700000D01*
%TO.N,Net-(D10-K)*%
X-2880000Y-4900000D02*
X-4900000Y-4900000D01*
X100000Y-1920000D02*
X-2880000Y-4900000D01*
%TO.N,Net-(C25-Pad1)*%
X40095000Y-2075000D02*
X40095000Y-105000D01*
X44400000Y-10600000D02*
X42749000Y-8949000D01*
X40800000Y600000D02*
X48050000Y600000D01*
X48050000Y600000D02*
X48750000Y1300000D01*
X36800000Y-2700000D02*
X37800000Y-3700000D01*
X37800000Y-8000000D02*
X37800000Y-3700000D01*
X45000000Y-14500000D02*
X45000000Y-12900000D01*
X44400000Y-12300000D02*
X44400000Y-10600000D01*
X45000000Y-14500000D02*
X40000000Y-14500000D01*
X42749000Y-8949000D02*
X38749000Y-8949000D01*
X45000000Y-12900000D02*
X44400000Y-12300000D01*
X40095000Y-105000D02*
X40800000Y600000D01*
X37800000Y-3700000D02*
X39425000Y-2075000D01*
X36800000Y8900000D02*
X36800000Y-2700000D01*
X38749000Y-8949000D02*
X37800000Y-8000000D01*
X37500000Y9600000D02*
X36800000Y8900000D01*
X39425000Y-2075000D02*
X40095000Y-2075000D01*
%TO.N,Net-(Q1-D)*%
X-2800000Y35800000D02*
X0Y35800000D01*
X-4300000Y37300000D02*
X-2800000Y35800000D01*
X-6400000Y37300000D02*
X-4300000Y37300000D01*
%TO.N,/zendrive_return*%
X-7700000Y2800000D02*
X-7700000Y-16900000D01*
X-15000000Y13500000D02*
X-15000000Y10100000D01*
X-10049000Y-19249000D02*
X-26981000Y-19249000D01*
X-15000000Y10100000D02*
X-7700000Y2800000D01*
X-7700000Y-16900000D02*
X-10049000Y-19249000D01*
X-26981000Y-19249000D02*
X-28730000Y-17500000D01*
%TO.N,Net-(C25-Pad2)*%
X45600000Y9600000D02*
X47500000Y7700000D01*
X42500000Y9600000D02*
X45600000Y9600000D01*
%TO.N,Net-(Q6-B)*%
X47600000Y-12650000D02*
X47600000Y-15700000D01*
X39400000Y-16700000D02*
X38400000Y-15700000D01*
X38400000Y-15700000D02*
X38400000Y-13300000D01*
X40600000Y-11100000D02*
X42600000Y-11100000D01*
X34000000Y-9700000D02*
X39200000Y-9700000D01*
X46600000Y-16700000D02*
X39400000Y-16700000D01*
X38400000Y-13300000D02*
X40600000Y-11100000D01*
X49200000Y-11050000D02*
X47600000Y-12650000D01*
X47600000Y-15700000D02*
X46600000Y-16700000D01*
X32500000Y-11200000D02*
X34000000Y-9700000D01*
X39200000Y-9700000D02*
X40600000Y-11100000D01*
%TO.N,/Zendrive/Q1D*%
X-9200000Y-8800000D02*
X-10200000Y-9800000D01*
X-23645000Y20245000D02*
X-23600000Y20200000D01*
X-9200000Y-6400000D02*
X-9200000Y-8800000D01*
X-14700000Y20400000D02*
X-14700000Y20490000D01*
X-23645000Y21705000D02*
X-23645000Y20245000D01*
X-14700000Y20490000D02*
X-14755000Y20545000D01*
D47*
X-23700000Y21760000D02*
X-23645000Y21705000D01*
D46*
X-14755000Y20545000D02*
X-14755000Y21705000D01*
%TO.N,/Zendrive/Q1G*%
X-23645000Y18155000D02*
X-23645000Y16755000D01*
X-16050000Y-8850000D02*
X-13200000Y-8850000D01*
X-11000000Y-8100000D02*
X-11000000Y-5800000D01*
X-30000000Y2000000D02*
X-27400000Y2000000D01*
X-23600000Y18200000D02*
X-23645000Y18155000D01*
X-11750000Y-8850000D02*
X-11000000Y-8100000D01*
X-26300000Y900000D02*
X-26300000Y-3100000D01*
X-13200000Y-8850000D02*
X-11750000Y-8850000D01*
X-11000000Y-5800000D02*
X-9200000Y-4000000D01*
X-27400000Y2000000D02*
X-26300000Y900000D01*
X-23700000Y18300000D02*
X-23600000Y18200000D01*
X-25300000Y-4100000D02*
X-17900000Y-4100000D01*
X-16900000Y-5100000D02*
X-16900000Y-8000000D01*
X-17900000Y-4100000D02*
X-16900000Y-5100000D01*
X-26300000Y-3100000D02*
X-25300000Y-4100000D01*
X-16900000Y-8000000D02*
X-16050000Y-8850000D01*
%TO.N,/bluesbreaker-send*%
X-6949000Y17851000D02*
X-6949000Y-16951000D01*
X30200000Y-12500000D02*
X28700000Y-14000000D01*
X-5333333Y19466667D02*
X-6949000Y17851000D01*
X37600000Y-11100000D02*
X36200000Y-12500000D01*
X36200000Y-12500000D02*
X30200000Y-12500000D01*
X-6949000Y-16951000D02*
X-4651000Y-19249000D01*
X28700000Y-14000000D02*
X28730000Y-14030000D01*
X26981000Y-19249000D02*
X28730000Y-17500000D01*
X28730000Y-14030000D02*
X28730000Y-17500000D01*
X-4651000Y-19249000D02*
X26981000Y-19249000D01*
X7900000Y19466667D02*
X-5333333Y19466667D01*
X7900000Y19466667D02*
X7900000Y22133333D01*
%TO.N,Net-(R9-Pad2)*%
X-24300000Y13000000D02*
X-22375000Y14925000D01*
X-32500000Y11100000D02*
X-29500000Y11100000D01*
X-27600000Y13000000D02*
X-24300000Y13000000D01*
X-29500000Y11100000D02*
X-27600000Y13000000D01*
X-22375000Y14925000D02*
X-22375000Y16755000D01*
%TO.N,Net-(R10-Pad1)*%
X-35000000Y16300000D02*
X-33300000Y14600000D01*
X-33300000Y14600000D02*
X-32500000Y14600000D01*
X-42200000Y16300000D02*
X-35000000Y16300000D01*
X-45000000Y13500000D02*
X-42200000Y16300000D01*
%TO.N,Net-(R11-Pad2)*%
X-10000000Y-14500000D02*
X-15000000Y-14500000D01*
X-23600000Y-14500000D02*
X-21400000Y-16700000D01*
X-30700000Y-13600000D02*
X-29800000Y-14500000D01*
X-36000000Y-4600000D02*
X-33100000Y-4600000D01*
X-33100000Y-4600000D02*
X-30700000Y-7000000D01*
X-21400000Y-16700000D02*
X-17200000Y-16700000D01*
X-30700000Y-7000000D02*
X-30700000Y-13600000D01*
X-17200000Y-16700000D02*
X-15000000Y-14500000D01*
X-29800000Y-14500000D02*
X-23600000Y-14500000D01*
%TO.N,Net-(R14-Pad2)*%
X-17600000Y8100000D02*
X-20000000Y10500000D01*
X-19000000Y1474000D02*
X-17600000Y2874000D01*
X-20000000Y10500000D02*
X-20000000Y13500000D01*
X-17600000Y2874000D02*
X-17600000Y8100000D01*
%TO.N,Net-(Q6-E)*%
X47500000Y-7450000D02*
X49200000Y-9150000D01*
X43062074Y-8200000D02*
X46750000Y-8200000D01*
X40098000Y-8198000D02*
X43060074Y-8198000D01*
X39350000Y-7450000D02*
X40098000Y-8198000D01*
X43060074Y-8198000D02*
X43062074Y-8200000D01*
X39350000Y-6600000D02*
X39350000Y-7450000D01*
X47500000Y-5000000D02*
X47500000Y-7450000D01*
X46750000Y-8200000D02*
X47500000Y-7450000D01*
%TO.N,/bluesbreaker/9V*%
X14000000Y39600000D02*
X15300000Y39600000D01*
X46200000Y-10100000D02*
X46200000Y-9300000D01*
X40095000Y2875000D02*
X38362500Y2875000D01*
X10675000Y37575000D02*
X10800000Y37450000D01*
X38362500Y2875000D02*
X38300000Y2937500D01*
X6300000Y37575000D02*
X10675000Y37575000D01*
X14600000Y10137500D02*
X16632500Y10137500D01*
X11850000Y37450000D02*
X14000000Y39600000D01*
X16632500Y10137500D02*
X16695000Y10075000D01*
X14600000Y10137500D02*
X14600000Y11200000D01*
X29200000Y6900000D02*
X30600000Y6900000D01*
X38300000Y2937500D02*
X38300000Y4000000D01*
X10800000Y37450000D02*
X11850000Y37450000D01*
%TO.N,Net-(D6-A)*%
X-4900000Y4040000D02*
X-2880000Y4040000D01*
X-2880000Y4040000D02*
X100000Y7020000D01*
%TO.N,/bluesbreaker/sw4*%
X-2880000Y7020000D02*
X100000Y10000000D01*
X-4900000Y7020000D02*
X-2880000Y7020000D01*
%TO.N,Net-(D10-A)*%
X-4900000Y-1920000D02*
X-2880000Y-1920000D01*
X4828571Y1028571D02*
X3900000Y100000D01*
X5200000Y-14500000D02*
X10000000Y-14500000D01*
X3900000Y-13400000D02*
X5100000Y-14600000D01*
X2940000Y1060000D02*
X100000Y1060000D01*
X3900000Y100000D02*
X3900000Y-13400000D01*
X-2880000Y-1920000D02*
X100000Y1060000D01*
X5100000Y-14600000D02*
X5200000Y-14500000D01*
X3900000Y100000D02*
X2940000Y1060000D01*
X6000000Y1028571D02*
X4828571Y1028571D01*
%TO.N,/bluesbreaker/sw7*%
X-400000Y27900000D02*
X1800000Y27900000D01*
X24500000Y26700000D02*
X25300000Y25900000D01*
X-1270000Y25310000D02*
X-1270000Y27030000D01*
X16600000Y26700000D02*
X14600000Y28700000D01*
X14600000Y28700000D02*
X9300000Y28700000D01*
X19850000Y25850000D02*
X20700000Y26700000D01*
X-1270000Y27030000D02*
X-400000Y27900000D01*
X20700000Y26700000D02*
X24500000Y26700000D01*
X23300000Y7900000D02*
X20000000Y7900000D01*
X7900000Y32800000D02*
X7900000Y30133333D01*
X20000000Y7900000D02*
X19235000Y8665000D01*
X2600000Y28700000D02*
X9300000Y28700000D01*
X8066667Y27466667D02*
X7900000Y27466667D01*
X9300000Y28700000D02*
X8066667Y27466667D01*
X1800000Y27900000D02*
X2600000Y28700000D01*
X25300000Y25900000D02*
X25300000Y9900000D01*
X7900000Y30100000D02*
X7900000Y30133333D01*
X19850000Y25850000D02*
X19000000Y26700000D01*
X9300000Y28700000D02*
X7900000Y30100000D01*
X19235000Y8665000D02*
X19235000Y10075000D01*
X19000000Y26700000D02*
X16600000Y26700000D01*
X19850000Y24790000D02*
X19850000Y25850000D01*
X25300000Y9900000D02*
X23300000Y7900000D01*
%TO.N,Net-(R24-Pad2)*%
X12900000Y24800000D02*
X15100000Y24800000D01*
X15100000Y24800000D02*
X17200000Y22700000D01*
X20000000Y22000000D02*
X20000000Y13500000D01*
X19300000Y22700000D02*
X20000000Y22000000D01*
X17200000Y22700000D02*
X19300000Y22700000D01*
%TO.N,Net-(U4B--)*%
X41250000Y6300000D02*
X42635000Y4915000D01*
X50700000Y3600000D02*
X52500000Y5400000D01*
X44885000Y4915000D02*
X46200000Y3600000D01*
X42635000Y4915000D02*
X42635000Y2875000D01*
X52500000Y5400000D02*
X52500000Y7700000D01*
X46200000Y3600000D02*
X50700000Y3600000D01*
X52500000Y10000000D02*
X52500000Y7700000D01*
X42635000Y4915000D02*
X44885000Y4915000D01*
%TO.N,/bluesbreaker/sw5*%
X7649000Y4749000D02*
X6885714Y3985714D01*
X5720000Y23400000D02*
X8331804Y23400000D01*
X7649000Y14411074D02*
X7649000Y4749000D01*
X3810000Y25310000D02*
X5720000Y23400000D01*
X15600000Y2500000D02*
X11600000Y2500000D01*
X7114286Y3985714D02*
X6885714Y3985714D01*
X11000000Y1900000D02*
X11000000Y1028571D01*
X9231804Y15993878D02*
X7649000Y14411074D01*
X9231804Y22500000D02*
X9231804Y15993878D01*
X11600000Y2500000D02*
X11000000Y1900000D01*
X7600000Y3500000D02*
X7114286Y3985714D01*
X11000000Y1900000D02*
X10600000Y2300000D01*
X6885714Y3985714D02*
X6000000Y3985714D01*
X16695000Y3595000D02*
X15600000Y2500000D01*
X10600000Y2300000D02*
X8000000Y2300000D01*
X16695000Y5125000D02*
X16695000Y3595000D01*
X7600000Y2700000D02*
X7600000Y3500000D01*
X8331804Y23400000D02*
X9231804Y22500000D01*
X8000000Y2300000D02*
X7600000Y2700000D01*
%TO.N,Net-(R30-Pad1)*%
X12800000Y-12300000D02*
X15000000Y-14500000D01*
X6000000Y-4885714D02*
X6000000Y-10400000D01*
X7900000Y-12300000D02*
X12800000Y-12300000D01*
X6000000Y-10400000D02*
X7900000Y-12300000D01*
%TO.N,Net-(U4A--)*%
X41365000Y-2075000D02*
X41365000Y-835000D01*
X50900000Y-1500000D02*
X51400000Y-2000000D01*
X41365000Y-835000D02*
X41900000Y-300000D01*
X51800000Y-12700000D02*
X51800000Y-8100000D01*
X51250000Y1300000D02*
X51250000Y50000D01*
X51800000Y-8100000D02*
X50900000Y-7200000D01*
X50900000Y-2500000D02*
X51400000Y-2000000D01*
X50000000Y-14500000D02*
X51800000Y-12700000D01*
X51250000Y50000D02*
X50900000Y-300000D01*
X50900000Y-7200000D02*
X50900000Y-2500000D01*
X50900000Y-300000D02*
X50900000Y-1500000D01*
X41900000Y-300000D02*
X50900000Y-300000D01*
X51400000Y-2000000D02*
X52500000Y-2000000D01*
%TO.N,Net-(U3B-+)*%
X12900000Y16800000D02*
X15800000Y16800000D01*
X21000000Y11700000D02*
X21900000Y11700000D01*
X20505000Y11195000D02*
X20505000Y10075000D01*
X15800000Y16800000D02*
X17400000Y15200000D01*
X18798000Y11700000D02*
X20000000Y11700000D01*
X17400000Y15200000D02*
X17400000Y13098000D01*
X20505000Y11205000D02*
X21000000Y11700000D01*
X21900000Y11700000D02*
X22300000Y12100000D01*
X17400000Y13098000D02*
X18798000Y11700000D01*
X20505000Y11195000D02*
X20505000Y11205000D01*
X20000000Y11700000D02*
X20505000Y11195000D01*
X22300000Y19745000D02*
X23600000Y21045000D01*
X22300000Y12100000D02*
X22300000Y19745000D01*
%TO.N,Net-(U3A--)*%
X14900000Y5800000D02*
X15299000Y6199000D01*
X15299000Y6199000D02*
X15399000Y6199000D01*
X12185714Y3985714D02*
X13300000Y5100000D01*
X11000000Y9900000D02*
X11000000Y6942857D01*
X17600000Y7100000D02*
X17965000Y6735000D01*
X13300000Y5800000D02*
X14900000Y5800000D01*
X11000000Y3985714D02*
X12185714Y3985714D01*
X11000000Y6942857D02*
X12157143Y6942857D01*
X15399000Y6199000D02*
X16300000Y7100000D01*
X17965000Y6735000D02*
X17965000Y5125000D01*
X12157143Y6942857D02*
X13300000Y5800000D01*
X13300000Y5100000D02*
X13300000Y5800000D01*
X16300000Y7100000D02*
X17600000Y7100000D01*
%TD*%
M02*
