M48
; DRILL file {KiCad 9.0.7} date 2026-04-13T23:47:59-0230
; FORMAT={-:-/ absolute / inch / decimal}
; #@! TF.CreationDate,2026-04-13T23:47:59-02:30
; #@! TF.GenerationSoftware,Kicad,Pcbnew,9.0.7
; #@! TF.FileFunction,Plated,1,4,PTH
FMAT,2
INCH
; #@! TA.AperFunction,Plated,PTH,ViaDrill
T1C0.0157
; #@! TA.AperFunction,Plated,PTH,ComponentDrill
T2C0.0236
; #@! TA.AperFunction,Plated,PTH,ComponentDrill
T3C0.0256
; #@! TA.AperFunction,Plated,PTH,ComponentDrill
T4C0.0276
; #@! TA.AperFunction,Plated,PTH,ComponentDrill
T5C0.0295
; #@! TA.AperFunction,Plated,PTH,ComponentDrill
T6C0.0315
; #@! TA.AperFunction,Plated,PTH,ComponentDrill
T7C0.0394
; #@! TA.AperFunction,Plated,PTH,ComponentDrill
T8C0.0472
; #@! TA.AperFunction,Plated,PTH,ComponentDrill
T9C0.0591
; #@! TA.AperFunction,Plated,PTH,ComponentDrill
T10C0.0709
%
G90
G05
T1
X-2.1063Y0.9252
X-2.0945Y0.5551
X-1.9055Y0.0945
X-1.9041Y0.3608
X-1.815Y-0.6732
X-1.7992Y0.0197
X-1.5669Y0.0827
X-1.5315Y0.3031
X-1.3661Y0.3031
X-0.9331Y0.7205
X-0.9291Y0.7953
X-0.8228Y0.9528
X-0.7835Y0.7165
X-0.7323Y0.7165
X-0.6811Y0.7992
X-0.6614Y0.9528
X-0.5787Y0.8031
X-0.5709Y-0.4252
X-0.2559Y1.5906
X0.5748Y0.4409
X0.5748Y0.2795
X0.6772Y1.5984
X0.7559Y0.1457
X0.8071Y0.2598
X1.2047Y0.2717
X1.5079Y0.1575
X1.5079Y-0.0039
X1.6772Y-0.1339
X1.7283Y0.0591
X1.7283Y-0.1339
X1.8189Y-0.3661
T2
X0.7689Y0.0551
X0.828Y0.0551
X1.2886Y0.4606
X1.3476Y0.4606
X1.5492Y-0.2598
X1.6083Y-0.2598
X1.9705Y0.7244
X2.0295Y0.7244
T4
X-1.6181Y-0.0591
X-1.6142Y-0.1811
X-1.6142Y-0.3215
X-1.6142Y-0.4528
X-1.4213Y-0.0591
X-1.4173Y-0.1811
X-1.4173Y-0.3215
X-1.4173Y-0.4528
X-1.2795Y0.5748
X-1.2795Y0.437
X-1.2795Y-0.3228
X-1.2795Y-0.4528
X-1.0827Y0.5748
X-1.0827Y0.437
X-1.0827Y-0.3228
X-1.0827Y-0.4528
X-0.9449Y0.1552
X-0.9449Y0.058
X-0.748Y0.1552
X-0.748Y0.058
X-0.5591Y-0.1575
X-0.5591Y-0.252
X-0.437Y1.185
X-0.437Y0.9882
X-0.3622Y-0.1575
X-0.3622Y-0.252
X-0.3543Y1.185
X-0.3543Y0.9882
X0.2362Y0.3898
X0.2362Y0.2733
X0.2362Y0.1569
X0.2362Y0.0405
X0.2362Y-0.0759
X0.2362Y-0.1924
X0.311Y1.2913
X0.311Y1.1864
X0.311Y1.0814
X0.311Y0.9764
X0.311Y0.8714
X0.311Y0.7664
X0.311Y0.6614
X0.4331Y0.3898
X0.4331Y0.2733
X0.4331Y0.1569
X0.4331Y0.0405
X0.4331Y-0.0759
X0.4331Y-0.1924
X0.5079Y1.2913
X0.5079Y1.1864
X0.5079Y1.0814
X0.5079Y0.9764
X0.5079Y0.8714
X0.5079Y0.7664
X0.5079Y0.6614
X0.9409Y0.4173
X0.9449Y0.5039
X1.0827Y-0.3228
X1.0827Y-0.4409
X1.1378Y0.4173
X1.1417Y0.5039
X1.2795Y-0.3228
X1.2795Y-0.4409
X1.8701Y0.3937
X1.8701Y0.3031
X1.8701Y0.2126
X1.8701Y-0.0787
X1.8701Y-0.1969
X2.0669Y0.3937
X2.0669Y0.3031
X2.0669Y0.2126
X2.0669Y-0.0787
X2.0669Y-0.1969
T5
X-1.565Y0.4055
X-1.4665Y0.4055
X-0.8996Y0.2677
X-0.8012Y0.2677
X0.7815Y0.976
X0.8799Y0.976
X1.5256Y0.248
X1.624Y0.248
X1.9193Y0.0512
X2.0177Y0.0512
T6
X-2.0276Y1.2579
X-2.0276Y1.1594
X-2.0276Y0.8051
X-2.0276Y0.7067
X-2.0118Y0.4173
X-2.0118Y0.3031
X-2.0118Y0.189
X-2.0069Y-0.1102
X-2.0069Y-0.2756
X-2.0069Y-0.4409
X-1.815Y0.4173
X-1.815Y0.3031
X-1.815Y0.189
X-1.81Y-0.1102
X-1.81Y-0.2756
X-1.81Y-0.4409
X-0.9449Y-0.0866
X-0.9449Y-0.2786
X-0.9449Y-0.4409
X-0.8346Y1.5768
X-0.8346Y1.4783
X-0.748Y-0.0866
X-0.748Y-0.2786
X-0.748Y-0.4409
X-0.563Y1.5768
X-0.563Y1.4783
X-0.1929Y0.4252
X-0.1929Y0.315
X-0.1929Y0.1976
X-0.1929Y0.0803
X-0.1929Y-0.037
X-0.1929Y-0.1543
X-0.1929Y-0.2717
X-0.15Y0.9965
X-0.15Y0.6965
X-0.05Y0.9965
X-0.05Y0.6965
X0.0039Y0.4252
X0.0039Y0.315
X0.0039Y0.1976
X0.0039Y0.0803
X0.0039Y-0.037
X0.0039Y-0.1543
X0.0039Y-0.2717
X0.05Y0.9965
X0.05Y0.6965
X0.15Y0.9965
X0.15Y0.6965
X0.4252Y1.5728
X0.4252Y1.4744
X0.6339Y-0.1496
X0.6339Y-0.3189
X0.6339Y-0.437
X0.7323Y1.2756
X0.7323Y1.1258
X0.7323Y0.8285
X0.7323Y0.6811
X0.8307Y-0.1496
X0.8307Y-0.3189
X0.8307Y-0.437
X0.8543Y1.5728
X0.8543Y1.4744
X0.9291Y1.2756
X0.9291Y1.1258
X0.9291Y0.8285
X0.9291Y0.6811
X1.4764Y0.378
X1.4803Y-0.437
X1.6732Y0.378
X1.6772Y-0.437
T7
X-1.4311Y-0.689
X-1.3311Y-0.689
X-1.2311Y-0.689
X-1.1311Y-0.689
X-1.0311Y-0.689
X-0.9311Y-0.689
X0.9311Y-0.689
X1.0311Y-0.689
X1.0827Y-0.1969
X1.1311Y-0.689
X1.1811Y-0.1969
X1.2311Y-0.689
X1.2795Y-0.1969
X1.3311Y-0.689
X1.4311Y-0.689
T8
X-1.9685Y0.5315
X-1.9685Y-0.5709
X-1.7717Y0.5315
X-1.7717Y-0.5709
X-1.5748Y0.5315
X-1.5748Y-0.5709
X-0.7874Y0.5315
X-0.7874Y-0.5709
X-0.5906Y0.5315
X-0.5906Y-0.5709
X-0.3937Y0.5315
X-0.3937Y-0.5709
X0.3937Y0.5315
X0.3937Y-0.5709
X0.5906Y0.5315
X0.5906Y-0.5709
X0.7874Y0.5315
X0.7874Y-0.5709
X1.5748Y0.5315
X1.5748Y-0.5709
X1.7717Y0.5315
X1.7717Y-0.5709
X1.9685Y0.5315
X1.9685Y-0.5709
T9
X-1.8209Y1.4311
X-1.8209Y1.1811
X-1.8209Y0.9311
X-1.1713Y1.4311
X-1.1713Y1.1811
X-1.1713Y0.9311
X1.1713Y1.4311
X1.1713Y1.1811
X1.1713Y0.9311
X1.8209Y1.4311
X1.8209Y1.1811
X1.8209Y0.9311
T2
G00X1.9291Y1.3583
M15
G01X1.9843Y1.3583
M16
G05
G00X1.9291Y1.0039
M15
G01X1.9843Y1.0039
M16
G05
G00X2.0866Y1.2087
M15
G01X2.0866Y1.1535
M16
G05
T3
G00X-0.185Y1.2431
M15
G01X-0.185Y1.3396
M16
G05
G00X-0.0482Y1.4094
M15
G01X0.0482Y1.4094
M16
G05
G00X-0.0482Y1.1732
M15
G01X0.0482Y1.1732
M16
G05
T8
G00X-1.1535Y0.2638
M15
G01X-1.2087Y0.2638
M16
G05
G00X-1.1535Y0.0787
M15
G01X-1.2087Y0.0787
M16
G05
G00X-1.1535Y-0.1063
M15
G01X-1.2087Y-0.1063
M16
G05
T10
G00X1.0079Y0.0846
M15
G01X1.0079Y0.0728
M16
G05
G00X1.3543Y0.0846
M15
G01X1.3543Y0.0728
M16
G05
M30
